M48
; DRILL file {KiCad 7.0.1-0} date 2024 January 08, Monday 18:47:49
; FORMAT={-:-/ absolute / metric / decimal}
; #@! TF.CreationDate,2024-01-08T18:47:49+13:00
; #@! TF.GenerationSoftware,Kicad,Pcbnew,7.0.1-0
; #@! TF.FileFunction,Plated,1,2,PTH
FMAT,2
METRIC
; #@! TA.AperFunction,Plated,PTH,ComponentDrill
T1C3.302
; #@! TA.AperFunction,Plated,PTH,ComponentDrill
T2C4.000
; #@! TA.AperFunction,Plated,PTH,ComponentDrill
T3C5.500
; #@! TA.AperFunction,Plated,PTH,ComponentDrill
T4C6.000
; #@! TA.AperFunction,Plated,PTH,ComponentDrill
T5C6.250
; #@! TA.AperFunction,Plated,PTH,ComponentDrill
T6C6.300
%
G90
G05
T3
X216.28Y-42.3
X216.28Y-137.95
T4
X242.03Y-40.2
X242.03Y-50.25
X242.03Y-60.3
X242.03Y-70.35
X242.03Y-109.85
X242.03Y-119.9
X242.03Y-129.95
X242.03Y-140.0
X256.48Y-40.2
X256.48Y-50.25
X256.48Y-60.3
X256.48Y-70.35
X256.48Y-109.85
X256.48Y-119.9
X256.48Y-129.95
X256.48Y-140.0
T5
X242.02Y-96.15
X242.03Y-82.3
X256.48Y-96.15
X256.49Y-82.3
T6
X203.48Y-42.3
X203.48Y-137.95
X229.08Y-42.3
X229.08Y-137.95
T1
X202.194Y-29.8G85X204.606Y-29.8
G05
X202.194Y-152.3G85X204.606Y-152.3
G05
X258.094Y-29.8G85X260.506Y-29.8
G05
X258.094Y-152.3G85X260.506Y-152.3
G05
T2
X202.32Y-53.57G85X202.32Y-85.57
G05
X202.32Y-94.67G85X202.32Y-126.67
G05
X211.33Y-53.57G85X211.33Y-85.57
G05
X211.33Y-94.67G85X211.33Y-126.67
G05
X220.33Y-53.57G85X220.33Y-85.57
G05
X220.34Y-94.67G85X220.34Y-126.67
G05
X229.32Y-53.57G85X229.32Y-85.57
G05
X229.32Y-94.67G85X229.32Y-126.67
G05
T0
M30
