%TF.GenerationSoftware,KiCad,Pcbnew,7.0.1-0*%
%TF.CreationDate,2024-01-26T10:10:29+13:00*%
%TF.ProjectId,MOL,4d4f4c2e-6b69-4636-9164-5f7063625858,rev?*%
%TF.SameCoordinates,Original*%
%TF.FileFunction,Copper,L2,Bot*%
%TF.FilePolarity,Positive*%
%FSLAX46Y46*%
G04 Gerber Fmt 4.6, Leading zero omitted, Abs format (unit mm)*
G04 Created by KiCad (PCBNEW 7.0.1-0) date 2024-01-26 10:10:29*
%MOMM*%
%LPD*%
G01*
G04 APERTURE LIST*
%TA.AperFunction,ComponentPad*%
%ADD10C,6.500000*%
%TD*%
%TA.AperFunction,ComponentPad*%
%ADD11C,6.000000*%
%TD*%
%TA.AperFunction,ComponentPad*%
%ADD12C,6.750000*%
%TD*%
%TA.AperFunction,ComponentPad*%
%ADD13C,6.800000*%
%TD*%
%TA.AperFunction,ComponentPad*%
%ADD14O,6.715000X4.302000*%
%TD*%
%TA.AperFunction,ComponentPad*%
%ADD15O,4.500000X36.500000*%
%TD*%
G04 APERTURE END LIST*
D10*
%TO.P,JH1,1,1*%
%TO.N,GND*%
X242030000Y-40200000D03*
%TD*%
%TO.P,JH4,1,1*%
%TO.N,GND*%
X242030000Y-129950000D03*
%TD*%
%TO.P,JH3,1,1*%
%TO.N,GND*%
X242030000Y-109850000D03*
%TD*%
D11*
%TO.P,BH1,1,1*%
%TO.N,unconnected-(BH1-Pad1)*%
X216280000Y-42300000D03*
%TD*%
D12*
%TO.P,JH16,1,1*%
%TO.N,GND*%
X256480000Y-140000000D03*
%TD*%
D10*
%TO.P,JH7,1,1*%
%TO.N,GND*%
X256480000Y-109850000D03*
%TD*%
D11*
%TO.P,BH2,1,1*%
%TO.N,unconnected-(BH2-Pad1)*%
X216280000Y-137950000D03*
%TD*%
D12*
%TO.P,PH10,1,1*%
%TO.N,GND*%
X256490000Y-82300000D03*
%TD*%
%TO.P,JH8,1,1*%
%TO.N,GND*%
X256480000Y-129950000D03*
%TD*%
D13*
%TO.P,SH3,1,1*%
%TO.N,GND*%
X203480000Y-137950000D03*
%TD*%
D10*
%TO.P,JH9,1,1*%
%TO.N,GND*%
X242030000Y-50250000D03*
%TD*%
D12*
%TO.P,JH13,1,1*%
%TO.N,GND*%
X256480000Y-50250000D03*
%TD*%
D14*
%TO.P,J20,1,Pin_1*%
%TO.N,unconnected-(J20-Pin_1-Pad1)*%
X259300000Y-29800000D03*
%TD*%
D15*
%TO.P,PH7,1,1*%
%TO.N,unconnected-(PH7-Pad1)*%
X220340000Y-110670000D03*
%TD*%
D12*
%TO.P,PH9,1,1*%
%TO.N,GND*%
X242030000Y-82300000D03*
%TD*%
D15*
%TO.P,PH5,1,1*%
%TO.N,unconnected-(PH5-Pad1)*%
X202320000Y-110670000D03*
%TD*%
D12*
%TO.P,JH15,1,1*%
%TO.N,GND*%
X256480000Y-119900000D03*
%TD*%
D10*
%TO.P,JH2,1,1*%
%TO.N,GND*%
X242030000Y-60300000D03*
%TD*%
%TO.P,JH14,1,1*%
%TO.N,GND*%
X256480000Y-70350000D03*
%TD*%
D14*
%TO.P,J19,1,Pin_1*%
%TO.N,unconnected-(J19-Pin_1-Pad1)*%
X203400000Y-29800000D03*
%TD*%
D15*
%TO.P,PH4,1,1*%
%TO.N,unconnected-(PH4-Pad1)*%
X229320000Y-69570000D03*
%TD*%
D10*
%TO.P,JH11,1,1*%
%TO.N,GND*%
X242030000Y-119900000D03*
%TD*%
D13*
%TO.P,SH2,1,1*%
%TO.N,GND*%
X229080000Y-42300000D03*
%TD*%
D10*
%TO.P,JH12,1,1*%
%TO.N,GND*%
X242030000Y-140000000D03*
%TD*%
%TO.P,JH10,1,1*%
%TO.N,GND*%
X242030000Y-70350000D03*
%TD*%
D15*
%TO.P,PH8,1,1*%
%TO.N,unconnected-(PH8-Pad1)*%
X229320000Y-110670000D03*
%TD*%
D13*
%TO.P,SH1,1,1*%
%TO.N,GND*%
X203480000Y-42300000D03*
%TD*%
D15*
%TO.P,PH2,1,1*%
%TO.N,unconnected-(PH2-Pad1)*%
X211330000Y-69570000D03*
%TD*%
D12*
%TO.P,PH11,1,1*%
%TO.N,GND*%
X242020000Y-96150000D03*
%TD*%
D13*
%TO.P,SH4,1,1*%
%TO.N,GND*%
X229080000Y-137950000D03*
%TD*%
D14*
%TO.P,J21,1,Pin_1*%
%TO.N,unconnected-(J21-Pin_1-Pad1)*%
X203400000Y-152300000D03*
%TD*%
D15*
%TO.P,PH6,1,1*%
%TO.N,unconnected-(PH6-Pad1)*%
X211330000Y-110670000D03*
%TD*%
%TO.P,PH1,1,1*%
%TO.N,unconnected-(PH1-Pad1)*%
X202320000Y-69570000D03*
%TD*%
D14*
%TO.P,J18,1,Pin_1*%
%TO.N,unconnected-(J18-Pin_1-Pad1)*%
X259300000Y-152300000D03*
%TD*%
D12*
%TO.P,JH6,1,1*%
%TO.N,GND*%
X256480000Y-60300000D03*
%TD*%
D15*
%TO.P,PH3,1,1*%
%TO.N,unconnected-(PH3-Pad1)*%
X220330000Y-69570000D03*
%TD*%
D12*
%TO.P,JH5,1,1*%
%TO.N,GND*%
X256480000Y-40200000D03*
%TD*%
%TO.P,PH12,1,1*%
%TO.N,GND*%
X256480000Y-96150000D03*
%TD*%
%TA.AperFunction,Conductor*%
%TO.N,GND*%
G36*
X266747500Y-26817113D02*
G01*
X266792887Y-26862500D01*
X266809500Y-26924500D01*
X266809500Y-155175500D01*
X266792887Y-155237500D01*
X266747500Y-155282887D01*
X266685500Y-155299500D01*
X196054500Y-155299500D01*
X195992500Y-155282887D01*
X195947113Y-155237500D01*
X195930500Y-155175500D01*
X195930500Y-152382053D01*
X199530209Y-152382053D01*
X199560480Y-152708721D01*
X199630663Y-153029190D01*
X199739697Y-153338604D01*
X199885928Y-153632276D01*
X200067140Y-153905753D01*
X200280586Y-154154888D01*
X200523028Y-154375902D01*
X200790793Y-154565449D01*
X201079822Y-154720655D01*
X201385733Y-154839165D01*
X201703889Y-154919185D01*
X201964352Y-154951437D01*
X202029467Y-154959500D01*
X202029468Y-154959500D01*
X204688438Y-154959500D01*
X204688442Y-154959500D01*
X204933942Y-154944358D01*
X205256421Y-154884076D01*
X205569048Y-154784623D01*
X205867083Y-154647505D01*
X206146010Y-154474801D01*
X206401598Y-154269129D01*
X206629975Y-154033608D01*
X206827679Y-153771806D01*
X206991711Y-153487694D01*
X207119586Y-153185577D01*
X207209365Y-152870036D01*
X207259687Y-152545854D01*
X207264734Y-152382053D01*
X255430209Y-152382053D01*
X255460480Y-152708721D01*
X255530663Y-153029190D01*
X255639697Y-153338604D01*
X255785928Y-153632276D01*
X255967140Y-153905753D01*
X256180586Y-154154888D01*
X256423028Y-154375902D01*
X256690793Y-154565449D01*
X256979822Y-154720655D01*
X257285733Y-154839165D01*
X257603889Y-154919185D01*
X257864352Y-154951437D01*
X257929467Y-154959500D01*
X257929468Y-154959500D01*
X260588438Y-154959500D01*
X260588442Y-154959500D01*
X260833942Y-154944358D01*
X261156421Y-154884076D01*
X261469048Y-154784623D01*
X261767083Y-154647505D01*
X262046010Y-154474801D01*
X262301598Y-154269129D01*
X262529975Y-154033608D01*
X262727679Y-153771806D01*
X262891711Y-153487694D01*
X263019586Y-153185577D01*
X263109365Y-152870036D01*
X263159687Y-152545854D01*
X263169790Y-152217945D01*
X263139520Y-151891280D01*
X263069336Y-151570810D01*
X262960302Y-151261394D01*
X262814071Y-150967723D01*
X262632860Y-150694247D01*
X262523320Y-150566392D01*
X262419413Y-150445111D01*
X262176971Y-150224097D01*
X261909207Y-150034551D01*
X261620183Y-149879347D01*
X261620178Y-149879345D01*
X261314267Y-149760835D01*
X260996111Y-149680815D01*
X260996108Y-149680814D01*
X260996106Y-149680814D01*
X260670533Y-149640500D01*
X260670532Y-149640500D01*
X258011558Y-149640500D01*
X257766058Y-149655642D01*
X257658564Y-149675736D01*
X257443577Y-149715924D01*
X257130952Y-149815376D01*
X257130952Y-149815377D01*
X256991914Y-149879345D01*
X256832913Y-149952497D01*
X256553993Y-150125196D01*
X256298401Y-150330871D01*
X256070024Y-150566393D01*
X255872320Y-150828195D01*
X255708287Y-151112307D01*
X255580414Y-151414422D01*
X255490634Y-151729964D01*
X255440312Y-152054143D01*
X255430209Y-152382053D01*
X207264734Y-152382053D01*
X207269790Y-152217945D01*
X207239520Y-151891280D01*
X207169336Y-151570810D01*
X207060302Y-151261394D01*
X206914071Y-150967723D01*
X206732860Y-150694247D01*
X206623320Y-150566392D01*
X206519413Y-150445111D01*
X206276971Y-150224097D01*
X206009207Y-150034551D01*
X205720183Y-149879347D01*
X205720178Y-149879345D01*
X205414267Y-149760835D01*
X205096111Y-149680815D01*
X205096108Y-149680814D01*
X205096106Y-149680814D01*
X204770533Y-149640500D01*
X204770532Y-149640500D01*
X202111558Y-149640500D01*
X201866058Y-149655642D01*
X201758564Y-149675736D01*
X201543577Y-149715924D01*
X201230952Y-149815376D01*
X201230952Y-149815377D01*
X201091914Y-149879345D01*
X200932913Y-149952497D01*
X200653993Y-150125196D01*
X200398401Y-150330871D01*
X200170024Y-150566393D01*
X199972320Y-150828195D01*
X199808287Y-151112307D01*
X199680414Y-151414422D01*
X199590634Y-151729964D01*
X199540312Y-152054143D01*
X199530209Y-152382053D01*
X195930500Y-152382053D01*
X195930500Y-142822641D01*
X239560909Y-142822641D01*
X239731650Y-142969218D01*
X240043838Y-143186507D01*
X240376396Y-143371092D01*
X240725936Y-143521091D01*
X241088839Y-143634952D01*
X241461416Y-143711520D01*
X241839824Y-143750000D01*
X242220176Y-143750000D01*
X242598583Y-143711520D01*
X242971160Y-143634952D01*
X243334063Y-143521091D01*
X243683603Y-143371092D01*
X244016161Y-143186507D01*
X244328343Y-142969222D01*
X244395830Y-142911286D01*
X253922265Y-142911286D01*
X254105038Y-143068192D01*
X254427628Y-143292721D01*
X254771280Y-143483464D01*
X255132467Y-143638461D01*
X255507467Y-143756118D01*
X255892463Y-143835237D01*
X256283484Y-143875000D01*
X256676516Y-143875000D01*
X257067536Y-143835237D01*
X257452532Y-143756118D01*
X257827532Y-143638461D01*
X258188719Y-143483464D01*
X258532371Y-143292721D01*
X258854961Y-143068192D01*
X259037733Y-142911286D01*
X256480001Y-140353553D01*
X256480000Y-140353553D01*
X253922265Y-142911286D01*
X244395830Y-142911286D01*
X244499088Y-142822641D01*
X242030000Y-140353553D01*
X239560909Y-142822641D01*
X195930500Y-142822641D01*
X195930500Y-140879014D01*
X200904536Y-140879014D01*
X201089716Y-141037987D01*
X201414387Y-141263964D01*
X201760257Y-141455938D01*
X202123773Y-141611934D01*
X202501193Y-141730351D01*
X202888673Y-141809981D01*
X203282216Y-141850000D01*
X203677784Y-141850000D01*
X204071326Y-141809981D01*
X204458806Y-141730351D01*
X204836226Y-141611934D01*
X205199742Y-141455938D01*
X205545612Y-141263964D01*
X205870277Y-141037991D01*
X206055462Y-140879014D01*
X203480000Y-138303553D01*
X200904536Y-140879014D01*
X195930500Y-140879014D01*
X195930500Y-137950000D01*
X199574988Y-137950000D01*
X199595023Y-138345066D01*
X199654922Y-138736067D01*
X199754077Y-139119023D01*
X199891457Y-139489959D01*
X200065666Y-139845109D01*
X200274912Y-140180813D01*
X200517039Y-140493616D01*
X200549100Y-140527345D01*
X200549101Y-140527345D01*
X203126447Y-137950001D01*
X203833553Y-137950001D01*
X206410897Y-140527345D01*
X206410898Y-140527344D01*
X206442960Y-140493616D01*
X206685087Y-140180813D01*
X206894333Y-139845109D01*
X207068542Y-139489959D01*
X207205922Y-139119023D01*
X207305077Y-138736067D01*
X207364976Y-138345066D01*
X207385011Y-137950000D01*
X212766685Y-137950000D01*
X212785931Y-138317243D01*
X212843457Y-138680452D01*
X212938639Y-139035675D01*
X213070426Y-139378993D01*
X213237381Y-139706662D01*
X213437665Y-140015071D01*
X213437668Y-140015075D01*
X213669098Y-140300867D01*
X213929133Y-140560902D01*
X214214925Y-140792332D01*
X214214927Y-140792333D01*
X214214928Y-140792334D01*
X214523337Y-140992618D01*
X214781290Y-141124051D01*
X214851006Y-141159573D01*
X215194326Y-141291361D01*
X215549541Y-141386541D01*
X215912759Y-141444069D01*
X216280000Y-141463315D01*
X216647241Y-141444069D01*
X217010459Y-141386541D01*
X217365674Y-141291361D01*
X217708994Y-141159573D01*
X218036658Y-140992620D01*
X218036657Y-140992620D01*
X218036662Y-140992618D01*
X218211596Y-140879014D01*
X226504536Y-140879014D01*
X226689716Y-141037987D01*
X227014387Y-141263964D01*
X227360257Y-141455938D01*
X227723773Y-141611934D01*
X228101193Y-141730351D01*
X228488673Y-141809981D01*
X228882216Y-141850000D01*
X229277784Y-141850000D01*
X229671326Y-141809981D01*
X230058806Y-141730351D01*
X230436226Y-141611934D01*
X230799742Y-141455938D01*
X231145612Y-141263964D01*
X231470277Y-141037991D01*
X231655462Y-140879014D01*
X229080000Y-138303553D01*
X226504536Y-140879014D01*
X218211596Y-140879014D01*
X218345075Y-140792332D01*
X218630867Y-140560902D01*
X218890902Y-140300867D01*
X219122332Y-140015075D01*
X219232709Y-139845109D01*
X219322618Y-139706662D01*
X219353299Y-139646447D01*
X219489573Y-139378994D01*
X219621361Y-139035674D01*
X219716541Y-138680459D01*
X219774069Y-138317241D01*
X219793315Y-137950000D01*
X225174988Y-137950000D01*
X225195023Y-138345066D01*
X225254922Y-138736067D01*
X225354077Y-139119023D01*
X225491457Y-139489959D01*
X225665666Y-139845109D01*
X225874912Y-140180813D01*
X226117039Y-140493616D01*
X226149100Y-140527345D01*
X226149101Y-140527345D01*
X228726447Y-137950001D01*
X229433553Y-137950001D01*
X232010897Y-140527345D01*
X232010898Y-140527344D01*
X232042960Y-140493616D01*
X232285087Y-140180813D01*
X232397789Y-139999999D01*
X238275181Y-139999999D01*
X238294446Y-140379871D01*
X238352042Y-140755844D01*
X238447378Y-141124051D01*
X238579478Y-141480730D01*
X238746987Y-141822220D01*
X238948185Y-142145013D01*
X239181000Y-142445784D01*
X239205201Y-142471244D01*
X239205202Y-142471245D01*
X241676447Y-140000001D01*
X242383553Y-140000001D01*
X244854797Y-142471244D01*
X244879004Y-142445779D01*
X245111814Y-142145013D01*
X245313012Y-141822220D01*
X245480521Y-141480730D01*
X245612621Y-141124051D01*
X245707957Y-140755844D01*
X245765553Y-140379871D01*
X245784818Y-140000000D01*
X252600020Y-140000000D01*
X252619927Y-140392533D01*
X252679443Y-140781038D01*
X252777957Y-141161520D01*
X252914460Y-141530088D01*
X253087553Y-141882961D01*
X253295457Y-142216513D01*
X253536028Y-142527306D01*
X253566784Y-142559660D01*
X256126446Y-140000001D01*
X256833553Y-140000001D01*
X259393213Y-142559661D01*
X259393215Y-142559660D01*
X259423966Y-142527311D01*
X259664542Y-142216513D01*
X259872446Y-141882961D01*
X260045539Y-141530088D01*
X260182042Y-141161520D01*
X260280556Y-140781038D01*
X260340072Y-140392533D01*
X260359979Y-140000000D01*
X260340072Y-139607466D01*
X260280556Y-139218961D01*
X260182042Y-138838479D01*
X260045539Y-138469911D01*
X259872446Y-138117038D01*
X259664542Y-137783486D01*
X259423971Y-137472693D01*
X259393214Y-137440338D01*
X256833553Y-140000000D01*
X256833553Y-140000001D01*
X256126446Y-140000001D01*
X256126446Y-140000000D01*
X253566784Y-137440337D01*
X253566784Y-137440338D01*
X253536033Y-137472689D01*
X253295457Y-137783486D01*
X253087553Y-138117038D01*
X252914460Y-138469911D01*
X252777957Y-138838479D01*
X252679443Y-139218961D01*
X252619927Y-139607466D01*
X252600020Y-140000000D01*
X245784818Y-140000000D01*
X245784818Y-139999999D01*
X245765553Y-139620128D01*
X245707957Y-139244155D01*
X245612621Y-138875948D01*
X245480521Y-138519269D01*
X245313012Y-138177779D01*
X245111814Y-137854986D01*
X244878999Y-137554215D01*
X244854797Y-137528754D01*
X244854797Y-137528753D01*
X242383553Y-140000000D01*
X242383553Y-140000001D01*
X241676447Y-140000001D01*
X241676447Y-140000000D01*
X239205201Y-137528754D01*
X239180999Y-137554215D01*
X238948185Y-137854986D01*
X238746987Y-138177779D01*
X238579478Y-138519269D01*
X238447378Y-138875948D01*
X238352042Y-139244155D01*
X238294446Y-139620128D01*
X238275181Y-139999999D01*
X232397789Y-139999999D01*
X232494333Y-139845109D01*
X232668542Y-139489959D01*
X232805922Y-139119023D01*
X232905077Y-138736067D01*
X232964976Y-138345066D01*
X232985011Y-137950000D01*
X232964976Y-137554933D01*
X232907134Y-137177357D01*
X239560909Y-137177357D01*
X242030000Y-139646447D01*
X242030001Y-139646447D01*
X244499089Y-137177357D01*
X244395830Y-137088712D01*
X253922265Y-137088712D01*
X256480000Y-139646446D01*
X256480001Y-139646446D01*
X259037733Y-137088712D01*
X258854961Y-136931807D01*
X258532371Y-136707278D01*
X258188719Y-136516535D01*
X257827532Y-136361538D01*
X257452532Y-136243881D01*
X257067536Y-136164762D01*
X256676516Y-136125000D01*
X256283484Y-136125000D01*
X255892463Y-136164762D01*
X255507467Y-136243881D01*
X255132467Y-136361538D01*
X254771280Y-136516535D01*
X254427628Y-136707278D01*
X254105038Y-136931807D01*
X253922265Y-137088712D01*
X244395830Y-137088712D01*
X244328349Y-137030781D01*
X244016161Y-136813492D01*
X243683603Y-136628907D01*
X243334063Y-136478908D01*
X242971160Y-136365047D01*
X242598583Y-136288479D01*
X242220176Y-136250000D01*
X241839824Y-136250000D01*
X241461416Y-136288479D01*
X241088839Y-136365047D01*
X240725936Y-136478908D01*
X240376396Y-136628907D01*
X240043838Y-136813492D01*
X239731650Y-137030781D01*
X239560909Y-137177357D01*
X232907134Y-137177357D01*
X232905077Y-137163932D01*
X232805922Y-136780976D01*
X232668542Y-136410040D01*
X232494333Y-136054890D01*
X232285087Y-135719186D01*
X232042960Y-135406383D01*
X232010898Y-135372653D01*
X229433553Y-137950000D01*
X229433553Y-137950001D01*
X228726447Y-137950001D01*
X228726447Y-137950000D01*
X226149101Y-135372653D01*
X226149101Y-135372654D01*
X226117039Y-135406384D01*
X225874912Y-135719186D01*
X225665666Y-136054890D01*
X225491457Y-136410040D01*
X225354077Y-136780976D01*
X225254922Y-137163932D01*
X225195023Y-137554933D01*
X225174988Y-137950000D01*
X219793315Y-137950000D01*
X219774069Y-137582759D01*
X219716541Y-137219541D01*
X219621361Y-136864326D01*
X219489573Y-136521006D01*
X219408320Y-136361538D01*
X219322618Y-136193338D01*
X219122334Y-135884928D01*
X219122332Y-135884925D01*
X218890902Y-135599133D01*
X218630867Y-135339098D01*
X218345075Y-135107668D01*
X218345073Y-135107667D01*
X218345071Y-135107665D01*
X218211595Y-135020984D01*
X226504536Y-135020984D01*
X229080000Y-137596447D01*
X229080001Y-137596447D01*
X231655462Y-135020984D01*
X231470283Y-134862012D01*
X231145612Y-134636035D01*
X230799742Y-134444061D01*
X230436226Y-134288065D01*
X230058806Y-134169648D01*
X229671326Y-134090018D01*
X229277784Y-134050000D01*
X228882216Y-134050000D01*
X228488673Y-134090018D01*
X228101193Y-134169648D01*
X227723773Y-134288065D01*
X227360257Y-134444061D01*
X227014387Y-134636035D01*
X226689716Y-134862012D01*
X226504536Y-135020984D01*
X218211595Y-135020984D01*
X218036662Y-134907381D01*
X217708993Y-134740426D01*
X217365675Y-134608639D01*
X217010452Y-134513457D01*
X216647243Y-134455931D01*
X216280000Y-134436685D01*
X215912756Y-134455931D01*
X215549547Y-134513457D01*
X215194324Y-134608639D01*
X214851006Y-134740426D01*
X214523338Y-134907381D01*
X214214928Y-135107665D01*
X213929129Y-135339101D01*
X213669101Y-135599129D01*
X213437665Y-135884928D01*
X213237381Y-136193338D01*
X213070426Y-136521006D01*
X212938639Y-136864324D01*
X212843457Y-137219547D01*
X212785931Y-137582756D01*
X212766685Y-137950000D01*
X207385011Y-137950000D01*
X207364976Y-137554933D01*
X207305077Y-137163932D01*
X207205922Y-136780976D01*
X207068542Y-136410040D01*
X206894333Y-136054890D01*
X206685087Y-135719186D01*
X206442960Y-135406383D01*
X206410898Y-135372653D01*
X203833553Y-137950000D01*
X203833553Y-137950001D01*
X203126447Y-137950001D01*
X203126447Y-137950000D01*
X200549101Y-135372653D01*
X200549101Y-135372654D01*
X200517039Y-135406384D01*
X200274912Y-135719186D01*
X200065666Y-136054890D01*
X199891457Y-136410040D01*
X199754077Y-136780976D01*
X199654922Y-137163932D01*
X199595023Y-137554933D01*
X199574988Y-137950000D01*
X195930500Y-137950000D01*
X195930500Y-135020984D01*
X200904536Y-135020984D01*
X203480000Y-137596447D01*
X203480001Y-137596447D01*
X206055462Y-135020984D01*
X205870283Y-134862012D01*
X205545612Y-134636035D01*
X205199742Y-134444061D01*
X204836226Y-134288065D01*
X204458806Y-134169648D01*
X204071326Y-134090018D01*
X203677784Y-134050000D01*
X203282216Y-134050000D01*
X202888673Y-134090018D01*
X202501193Y-134169648D01*
X202123773Y-134288065D01*
X201760257Y-134444061D01*
X201414387Y-134636035D01*
X201089716Y-134862012D01*
X200904536Y-135020984D01*
X195930500Y-135020984D01*
X195930500Y-132772641D01*
X239560909Y-132772641D01*
X239731650Y-132919218D01*
X240043838Y-133136507D01*
X240376396Y-133321092D01*
X240725936Y-133471091D01*
X241088839Y-133584952D01*
X241461416Y-133661520D01*
X241839824Y-133700000D01*
X242220176Y-133700000D01*
X242598583Y-133661520D01*
X242971160Y-133584952D01*
X243334063Y-133471091D01*
X243683603Y-133321092D01*
X244016161Y-133136507D01*
X244328343Y-132919222D01*
X244395830Y-132861286D01*
X253922265Y-132861286D01*
X254105038Y-133018192D01*
X254427628Y-133242721D01*
X254771280Y-133433464D01*
X255132467Y-133588461D01*
X255507467Y-133706118D01*
X255892463Y-133785237D01*
X256283484Y-133825000D01*
X256676516Y-133825000D01*
X257067536Y-133785237D01*
X257452532Y-133706118D01*
X257827532Y-133588461D01*
X258188719Y-133433464D01*
X258532371Y-133242721D01*
X258854961Y-133018192D01*
X259037733Y-132861286D01*
X256480001Y-130303553D01*
X256480000Y-130303553D01*
X253922265Y-132861286D01*
X244395830Y-132861286D01*
X244499088Y-132772641D01*
X242030000Y-130303553D01*
X239560909Y-132772641D01*
X195930500Y-132772641D01*
X195930500Y-129950000D01*
X238275181Y-129950000D01*
X238294446Y-130329871D01*
X238352042Y-130705844D01*
X238447378Y-131074051D01*
X238579478Y-131430730D01*
X238746987Y-131772220D01*
X238948185Y-132095013D01*
X239181000Y-132395784D01*
X239205201Y-132421244D01*
X239205202Y-132421245D01*
X241676447Y-129950001D01*
X242383553Y-129950001D01*
X244854797Y-132421244D01*
X244879004Y-132395779D01*
X245111814Y-132095013D01*
X245313012Y-131772220D01*
X245480521Y-131430730D01*
X245612621Y-131074051D01*
X245707957Y-130705844D01*
X245765553Y-130329871D01*
X245784818Y-129950000D01*
X245784818Y-129949999D01*
X252600020Y-129949999D01*
X252619927Y-130342533D01*
X252679443Y-130731038D01*
X252777957Y-131111520D01*
X252914460Y-131480088D01*
X253087553Y-131832961D01*
X253295457Y-132166513D01*
X253536028Y-132477306D01*
X253566784Y-132509660D01*
X256126446Y-129950001D01*
X256833553Y-129950001D01*
X259393213Y-132509661D01*
X259393215Y-132509660D01*
X259423966Y-132477311D01*
X259664542Y-132166513D01*
X259872446Y-131832961D01*
X260045539Y-131480088D01*
X260182042Y-131111520D01*
X260280556Y-130731038D01*
X260340072Y-130342533D01*
X260359979Y-129949999D01*
X260340072Y-129557466D01*
X260280556Y-129168961D01*
X260182042Y-128788479D01*
X260045539Y-128419911D01*
X259872446Y-128067038D01*
X259664542Y-127733486D01*
X259423971Y-127422693D01*
X259393214Y-127390338D01*
X256833553Y-129950000D01*
X256833553Y-129950001D01*
X256126446Y-129950001D01*
X256126446Y-129950000D01*
X253566784Y-127390337D01*
X253566784Y-127390338D01*
X253536033Y-127422689D01*
X253295457Y-127733486D01*
X253087553Y-128067038D01*
X252914460Y-128419911D01*
X252777957Y-128788479D01*
X252679443Y-129168961D01*
X252619927Y-129557466D01*
X252600020Y-129949999D01*
X245784818Y-129949999D01*
X245765553Y-129570128D01*
X245707957Y-129194155D01*
X245612621Y-128825948D01*
X245480521Y-128469269D01*
X245313012Y-128127779D01*
X245111814Y-127804986D01*
X244878999Y-127504215D01*
X244854797Y-127478754D01*
X244854797Y-127478753D01*
X242383553Y-129950000D01*
X242383553Y-129950001D01*
X241676447Y-129950001D01*
X241676447Y-129950000D01*
X239205201Y-127478754D01*
X239180999Y-127504215D01*
X238948185Y-127804986D01*
X238746987Y-128127779D01*
X238579478Y-128469269D01*
X238447378Y-128825948D01*
X238352042Y-129194155D01*
X238294446Y-129570128D01*
X238275181Y-129950000D01*
X195930500Y-129950000D01*
X195930500Y-126753356D01*
X199561500Y-126753356D01*
X199576607Y-127003108D01*
X199636763Y-127331364D01*
X199736040Y-127649958D01*
X199736042Y-127649963D01*
X199736043Y-127649965D01*
X199873005Y-127954282D01*
X200045650Y-128239871D01*
X200251459Y-128502567D01*
X200487433Y-128738541D01*
X200750129Y-128944350D01*
X201035718Y-129116995D01*
X201340035Y-129253957D01*
X201658641Y-129353238D01*
X201986892Y-129413393D01*
X202320000Y-129433542D01*
X202653108Y-129413393D01*
X202981359Y-129353238D01*
X203299965Y-129253957D01*
X203604282Y-129116995D01*
X203889871Y-128944350D01*
X204152567Y-128738541D01*
X204388541Y-128502567D01*
X204594350Y-128239871D01*
X204766995Y-127954282D01*
X204903957Y-127649965D01*
X205003238Y-127331359D01*
X205063393Y-127003108D01*
X205078500Y-126753356D01*
X208571500Y-126753356D01*
X208586607Y-127003108D01*
X208646763Y-127331364D01*
X208746040Y-127649958D01*
X208746042Y-127649963D01*
X208746043Y-127649965D01*
X208883005Y-127954282D01*
X209055650Y-128239871D01*
X209261459Y-128502567D01*
X209497433Y-128738541D01*
X209760129Y-128944350D01*
X210045718Y-129116995D01*
X210350035Y-129253957D01*
X210668641Y-129353238D01*
X210996892Y-129413393D01*
X211330000Y-129433542D01*
X211663108Y-129413393D01*
X211991359Y-129353238D01*
X212309965Y-129253957D01*
X212614282Y-129116995D01*
X212899871Y-128944350D01*
X213162567Y-128738541D01*
X213398541Y-128502567D01*
X213604350Y-128239871D01*
X213776995Y-127954282D01*
X213913957Y-127649965D01*
X214013238Y-127331359D01*
X214073393Y-127003108D01*
X214088500Y-126753356D01*
X217581500Y-126753356D01*
X217596607Y-127003108D01*
X217656763Y-127331364D01*
X217756040Y-127649958D01*
X217756042Y-127649963D01*
X217756043Y-127649965D01*
X217893005Y-127954282D01*
X218065650Y-128239871D01*
X218271459Y-128502567D01*
X218507433Y-128738541D01*
X218770129Y-128944350D01*
X219055718Y-129116995D01*
X219360035Y-129253957D01*
X219678641Y-129353238D01*
X220006892Y-129413393D01*
X220340000Y-129433542D01*
X220673108Y-129413393D01*
X221001359Y-129353238D01*
X221319965Y-129253957D01*
X221624282Y-129116995D01*
X221909871Y-128944350D01*
X222172567Y-128738541D01*
X222408541Y-128502567D01*
X222614350Y-128239871D01*
X222786995Y-127954282D01*
X222923957Y-127649965D01*
X223023238Y-127331359D01*
X223083393Y-127003108D01*
X223098500Y-126753356D01*
X226561500Y-126753356D01*
X226576607Y-127003108D01*
X226636763Y-127331364D01*
X226736040Y-127649958D01*
X226736042Y-127649963D01*
X226736043Y-127649965D01*
X226873005Y-127954282D01*
X227045650Y-128239871D01*
X227251459Y-128502567D01*
X227487433Y-128738541D01*
X227750129Y-128944350D01*
X228035718Y-129116995D01*
X228340035Y-129253957D01*
X228658641Y-129353238D01*
X228986892Y-129413393D01*
X229320000Y-129433542D01*
X229653108Y-129413393D01*
X229981359Y-129353238D01*
X230299965Y-129253957D01*
X230604282Y-129116995D01*
X230889871Y-128944350D01*
X231152567Y-128738541D01*
X231388541Y-128502567D01*
X231594350Y-128239871D01*
X231766995Y-127954282D01*
X231903957Y-127649965D01*
X232003238Y-127331359D01*
X232040623Y-127127357D01*
X239560909Y-127127357D01*
X242030000Y-129596447D01*
X242030001Y-129596447D01*
X244499089Y-127127357D01*
X244395830Y-127038712D01*
X253922265Y-127038712D01*
X256480000Y-129596446D01*
X256480001Y-129596446D01*
X259037733Y-127038712D01*
X258854961Y-126881807D01*
X258532371Y-126657278D01*
X258188719Y-126466535D01*
X257827532Y-126311538D01*
X257452532Y-126193881D01*
X257067536Y-126114762D01*
X256676516Y-126075000D01*
X256283484Y-126075000D01*
X255892463Y-126114762D01*
X255507467Y-126193881D01*
X255132467Y-126311538D01*
X254771280Y-126466535D01*
X254427628Y-126657278D01*
X254105038Y-126881807D01*
X253922265Y-127038712D01*
X244395830Y-127038712D01*
X244328349Y-126980781D01*
X244016161Y-126763492D01*
X243683603Y-126578907D01*
X243334063Y-126428908D01*
X242971160Y-126315047D01*
X242598583Y-126238479D01*
X242220176Y-126200000D01*
X241839824Y-126200000D01*
X241461416Y-126238479D01*
X241088839Y-126315047D01*
X240725936Y-126428908D01*
X240376396Y-126578907D01*
X240043838Y-126763492D01*
X239731650Y-126980781D01*
X239560909Y-127127357D01*
X232040623Y-127127357D01*
X232063393Y-127003108D01*
X232078500Y-126753356D01*
X232078500Y-122722641D01*
X239560909Y-122722641D01*
X239731650Y-122869218D01*
X240043838Y-123086507D01*
X240376396Y-123271092D01*
X240725936Y-123421091D01*
X241088839Y-123534952D01*
X241461416Y-123611520D01*
X241839824Y-123650000D01*
X242220176Y-123650000D01*
X242598583Y-123611520D01*
X242971160Y-123534952D01*
X243334063Y-123421091D01*
X243683603Y-123271092D01*
X244016161Y-123086507D01*
X244328343Y-122869222D01*
X244395830Y-122811286D01*
X253922265Y-122811286D01*
X254105038Y-122968192D01*
X254427628Y-123192721D01*
X254771280Y-123383464D01*
X255132467Y-123538461D01*
X255507467Y-123656118D01*
X255892463Y-123735237D01*
X256283484Y-123775000D01*
X256676516Y-123775000D01*
X257067536Y-123735237D01*
X257452532Y-123656118D01*
X257827532Y-123538461D01*
X258188719Y-123383464D01*
X258532371Y-123192721D01*
X258854961Y-122968192D01*
X259037733Y-122811286D01*
X256480001Y-120253553D01*
X256480000Y-120253553D01*
X253922265Y-122811286D01*
X244395830Y-122811286D01*
X244499088Y-122722641D01*
X242030000Y-120253553D01*
X239560909Y-122722641D01*
X232078500Y-122722641D01*
X232078500Y-119900000D01*
X238275181Y-119900000D01*
X238294446Y-120279871D01*
X238352042Y-120655844D01*
X238447378Y-121024051D01*
X238579478Y-121380730D01*
X238746987Y-121722220D01*
X238948185Y-122045013D01*
X239181000Y-122345784D01*
X239205201Y-122371244D01*
X239205202Y-122371245D01*
X241676447Y-119900001D01*
X242383553Y-119900001D01*
X244854797Y-122371244D01*
X244879004Y-122345779D01*
X245111814Y-122045013D01*
X245313012Y-121722220D01*
X245480521Y-121380730D01*
X245612621Y-121024051D01*
X245707957Y-120655844D01*
X245765553Y-120279871D01*
X245784818Y-119900000D01*
X252600020Y-119900000D01*
X252619927Y-120292533D01*
X252679443Y-120681038D01*
X252777957Y-121061520D01*
X252914460Y-121430088D01*
X253087553Y-121782961D01*
X253295457Y-122116513D01*
X253536028Y-122427306D01*
X253566784Y-122459660D01*
X256126446Y-119900001D01*
X256833553Y-119900001D01*
X259393213Y-122459661D01*
X259393215Y-122459660D01*
X259423966Y-122427311D01*
X259664542Y-122116513D01*
X259872446Y-121782961D01*
X260045539Y-121430088D01*
X260182042Y-121061520D01*
X260280556Y-120681038D01*
X260340072Y-120292533D01*
X260359979Y-119900000D01*
X260340072Y-119507466D01*
X260280556Y-119118961D01*
X260182042Y-118738479D01*
X260045539Y-118369911D01*
X259872446Y-118017038D01*
X259664542Y-117683486D01*
X259423971Y-117372693D01*
X259393214Y-117340338D01*
X256833553Y-119900000D01*
X256833553Y-119900001D01*
X256126446Y-119900001D01*
X256126446Y-119900000D01*
X253566784Y-117340337D01*
X253566784Y-117340338D01*
X253536033Y-117372689D01*
X253295457Y-117683486D01*
X253087553Y-118017038D01*
X252914460Y-118369911D01*
X252777957Y-118738479D01*
X252679443Y-119118961D01*
X252619927Y-119507466D01*
X252600020Y-119900000D01*
X245784818Y-119900000D01*
X245765553Y-119520128D01*
X245707957Y-119144155D01*
X245612621Y-118775948D01*
X245480521Y-118419269D01*
X245313012Y-118077779D01*
X245111814Y-117754986D01*
X244878999Y-117454215D01*
X244854797Y-117428754D01*
X244854797Y-117428753D01*
X242383553Y-119900000D01*
X242383553Y-119900001D01*
X241676447Y-119900001D01*
X241676447Y-119900000D01*
X239205201Y-117428754D01*
X239180999Y-117454215D01*
X238948185Y-117754986D01*
X238746987Y-118077779D01*
X238579478Y-118419269D01*
X238447378Y-118775948D01*
X238352042Y-119144155D01*
X238294446Y-119520128D01*
X238275181Y-119900000D01*
X232078500Y-119900000D01*
X232078500Y-117077357D01*
X239560909Y-117077357D01*
X242030000Y-119546447D01*
X242030001Y-119546447D01*
X244499089Y-117077357D01*
X244395830Y-116988712D01*
X253922265Y-116988712D01*
X256480000Y-119546446D01*
X256480001Y-119546446D01*
X259037733Y-116988712D01*
X258854961Y-116831807D01*
X258532371Y-116607278D01*
X258188719Y-116416535D01*
X257827532Y-116261538D01*
X257452532Y-116143881D01*
X257067536Y-116064762D01*
X256676516Y-116025000D01*
X256283484Y-116025000D01*
X255892463Y-116064762D01*
X255507467Y-116143881D01*
X255132467Y-116261538D01*
X254771280Y-116416535D01*
X254427628Y-116607278D01*
X254105038Y-116831807D01*
X253922265Y-116988712D01*
X244395830Y-116988712D01*
X244328349Y-116930781D01*
X244016161Y-116713492D01*
X243683603Y-116528907D01*
X243334063Y-116378908D01*
X242971160Y-116265047D01*
X242598583Y-116188479D01*
X242220176Y-116150000D01*
X241839824Y-116150000D01*
X241461416Y-116188479D01*
X241088839Y-116265047D01*
X240725936Y-116378908D01*
X240376396Y-116528907D01*
X240043838Y-116713492D01*
X239731650Y-116930781D01*
X239560909Y-117077357D01*
X232078500Y-117077357D01*
X232078500Y-112672641D01*
X239560909Y-112672641D01*
X239731650Y-112819218D01*
X240043838Y-113036507D01*
X240376396Y-113221092D01*
X240725936Y-113371091D01*
X241088839Y-113484952D01*
X241461416Y-113561520D01*
X241839824Y-113600000D01*
X242220176Y-113600000D01*
X242598583Y-113561520D01*
X242971160Y-113484952D01*
X243334063Y-113371091D01*
X243683603Y-113221092D01*
X244016161Y-113036507D01*
X244328343Y-112819222D01*
X244499088Y-112672641D01*
X254010909Y-112672641D01*
X254181650Y-112819218D01*
X254493838Y-113036507D01*
X254826396Y-113221092D01*
X255175936Y-113371091D01*
X255538839Y-113484952D01*
X255911416Y-113561520D01*
X256289824Y-113600000D01*
X256670176Y-113600000D01*
X257048583Y-113561520D01*
X257421160Y-113484952D01*
X257784063Y-113371091D01*
X258133603Y-113221092D01*
X258466161Y-113036507D01*
X258778343Y-112819222D01*
X258949088Y-112672641D01*
X256480000Y-110203553D01*
X254010909Y-112672641D01*
X244499088Y-112672641D01*
X242030000Y-110203553D01*
X239560909Y-112672641D01*
X232078500Y-112672641D01*
X232078500Y-109850000D01*
X238275181Y-109850000D01*
X238294446Y-110229871D01*
X238352042Y-110605844D01*
X238447378Y-110974051D01*
X238579478Y-111330730D01*
X238746987Y-111672220D01*
X238948185Y-111995013D01*
X239181000Y-112295784D01*
X239205201Y-112321244D01*
X239205202Y-112321245D01*
X241676447Y-109850001D01*
X242383553Y-109850001D01*
X244854797Y-112321244D01*
X244879004Y-112295779D01*
X245111814Y-111995013D01*
X245313012Y-111672220D01*
X245480521Y-111330730D01*
X245612621Y-110974051D01*
X245707957Y-110605844D01*
X245765553Y-110229871D01*
X245784818Y-109850000D01*
X252725181Y-109850000D01*
X252744446Y-110229871D01*
X252802042Y-110605844D01*
X252897378Y-110974051D01*
X253029478Y-111330730D01*
X253196987Y-111672220D01*
X253398185Y-111995013D01*
X253631000Y-112295784D01*
X253655201Y-112321244D01*
X253655202Y-112321245D01*
X256126447Y-109850001D01*
X256833553Y-109850001D01*
X259304797Y-112321244D01*
X259329004Y-112295779D01*
X259561814Y-111995013D01*
X259763012Y-111672220D01*
X259930521Y-111330730D01*
X260062621Y-110974051D01*
X260157957Y-110605844D01*
X260215553Y-110229871D01*
X260234818Y-109850000D01*
X260215553Y-109470128D01*
X260157957Y-109094155D01*
X260062621Y-108725948D01*
X259930521Y-108369269D01*
X259763012Y-108027779D01*
X259561814Y-107704986D01*
X259328999Y-107404215D01*
X259304797Y-107378754D01*
X259304797Y-107378753D01*
X256833553Y-109850000D01*
X256833553Y-109850001D01*
X256126447Y-109850001D01*
X256126447Y-109850000D01*
X253655201Y-107378754D01*
X253630999Y-107404215D01*
X253398185Y-107704986D01*
X253196987Y-108027779D01*
X253029478Y-108369269D01*
X252897378Y-108725948D01*
X252802042Y-109094155D01*
X252744446Y-109470128D01*
X252725181Y-109850000D01*
X245784818Y-109850000D01*
X245765553Y-109470128D01*
X245707957Y-109094155D01*
X245612621Y-108725948D01*
X245480521Y-108369269D01*
X245313012Y-108027779D01*
X245111814Y-107704986D01*
X244878999Y-107404215D01*
X244854797Y-107378754D01*
X244854797Y-107378753D01*
X242383553Y-109850000D01*
X242383553Y-109850001D01*
X241676447Y-109850001D01*
X241676447Y-109850000D01*
X239205201Y-107378754D01*
X239180999Y-107404215D01*
X238948185Y-107704986D01*
X238746987Y-108027779D01*
X238579478Y-108369269D01*
X238447378Y-108725948D01*
X238352042Y-109094155D01*
X238294446Y-109470128D01*
X238275181Y-109850000D01*
X232078500Y-109850000D01*
X232078500Y-107027357D01*
X239560909Y-107027357D01*
X242030000Y-109496447D01*
X242030001Y-109496447D01*
X244499089Y-107027357D01*
X254010909Y-107027357D01*
X256480000Y-109496447D01*
X256480001Y-109496447D01*
X258949089Y-107027357D01*
X258778349Y-106880781D01*
X258466161Y-106663492D01*
X258133603Y-106478907D01*
X257784063Y-106328908D01*
X257421160Y-106215047D01*
X257048583Y-106138479D01*
X256670176Y-106100000D01*
X256289824Y-106100000D01*
X255911416Y-106138479D01*
X255538839Y-106215047D01*
X255175936Y-106328908D01*
X254826396Y-106478907D01*
X254493838Y-106663492D01*
X254181650Y-106880781D01*
X254010909Y-107027357D01*
X244499089Y-107027357D01*
X244328349Y-106880781D01*
X244016161Y-106663492D01*
X243683603Y-106478907D01*
X243334063Y-106328908D01*
X242971160Y-106215047D01*
X242598583Y-106138479D01*
X242220176Y-106100000D01*
X241839824Y-106100000D01*
X241461416Y-106138479D01*
X241088839Y-106215047D01*
X240725936Y-106328908D01*
X240376396Y-106478907D01*
X240043838Y-106663492D01*
X239731650Y-106880781D01*
X239560909Y-107027357D01*
X232078500Y-107027357D01*
X232078500Y-99061286D01*
X239462265Y-99061286D01*
X239645038Y-99218192D01*
X239967628Y-99442721D01*
X240311280Y-99633464D01*
X240672467Y-99788461D01*
X241047467Y-99906118D01*
X241432463Y-99985237D01*
X241823484Y-100025000D01*
X242216516Y-100025000D01*
X242607536Y-99985237D01*
X242992532Y-99906118D01*
X243367532Y-99788461D01*
X243728719Y-99633464D01*
X244072371Y-99442721D01*
X244394961Y-99218192D01*
X244577733Y-99061286D01*
X253922265Y-99061286D01*
X254105038Y-99218192D01*
X254427628Y-99442721D01*
X254771280Y-99633464D01*
X255132467Y-99788461D01*
X255507467Y-99906118D01*
X255892463Y-99985237D01*
X256283484Y-100025000D01*
X256676516Y-100025000D01*
X257067536Y-99985237D01*
X257452532Y-99906118D01*
X257827532Y-99788461D01*
X258188719Y-99633464D01*
X258532371Y-99442721D01*
X258854961Y-99218192D01*
X259037733Y-99061286D01*
X256480001Y-96503553D01*
X256480000Y-96503553D01*
X253922265Y-99061286D01*
X244577733Y-99061286D01*
X242020001Y-96503553D01*
X242020000Y-96503553D01*
X239462265Y-99061286D01*
X232078500Y-99061286D01*
X232078500Y-96150000D01*
X238140020Y-96150000D01*
X238159927Y-96542533D01*
X238219443Y-96931038D01*
X238317957Y-97311520D01*
X238454460Y-97680088D01*
X238627553Y-98032961D01*
X238835457Y-98366513D01*
X239076028Y-98677306D01*
X239106784Y-98709660D01*
X241666446Y-96150001D01*
X242373553Y-96150001D01*
X244933213Y-98709661D01*
X244933215Y-98709660D01*
X244963966Y-98677311D01*
X245204542Y-98366513D01*
X245412446Y-98032961D01*
X245585539Y-97680088D01*
X245722042Y-97311520D01*
X245820556Y-96931038D01*
X245880072Y-96542533D01*
X245899979Y-96150000D01*
X252600020Y-96150000D01*
X252619927Y-96542533D01*
X252679443Y-96931038D01*
X252777957Y-97311520D01*
X252914460Y-97680088D01*
X253087553Y-98032961D01*
X253295457Y-98366513D01*
X253536028Y-98677306D01*
X253566784Y-98709660D01*
X256126446Y-96150001D01*
X256833553Y-96150001D01*
X259393213Y-98709661D01*
X259393215Y-98709660D01*
X259423966Y-98677311D01*
X259664542Y-98366513D01*
X259872446Y-98032961D01*
X260045539Y-97680088D01*
X260182042Y-97311520D01*
X260280556Y-96931038D01*
X260340072Y-96542533D01*
X260359979Y-96150000D01*
X260340072Y-95757466D01*
X260280556Y-95368961D01*
X260182042Y-94988479D01*
X260045539Y-94619911D01*
X259872446Y-94267038D01*
X259664542Y-93933486D01*
X259423971Y-93622693D01*
X259393214Y-93590338D01*
X256833553Y-96150000D01*
X256833553Y-96150001D01*
X256126446Y-96150001D01*
X256126446Y-96150000D01*
X253566784Y-93590337D01*
X253566784Y-93590338D01*
X253536033Y-93622689D01*
X253295457Y-93933486D01*
X253087553Y-94267038D01*
X252914460Y-94619911D01*
X252777957Y-94988479D01*
X252679443Y-95368961D01*
X252619927Y-95757466D01*
X252600020Y-96150000D01*
X245899979Y-96150000D01*
X245880072Y-95757466D01*
X245820556Y-95368961D01*
X245722042Y-94988479D01*
X245585539Y-94619911D01*
X245412446Y-94267038D01*
X245204542Y-93933486D01*
X244963971Y-93622693D01*
X244933214Y-93590338D01*
X242373553Y-96150000D01*
X242373553Y-96150001D01*
X241666446Y-96150001D01*
X241666446Y-96150000D01*
X239106784Y-93590337D01*
X239106784Y-93590338D01*
X239076033Y-93622689D01*
X238835457Y-93933486D01*
X238627553Y-94267038D01*
X238454460Y-94619911D01*
X238317957Y-94988479D01*
X238219443Y-95368961D01*
X238159927Y-95757466D01*
X238140020Y-96150000D01*
X232078500Y-96150000D01*
X232078500Y-94586644D01*
X232063393Y-94336892D01*
X232003238Y-94008641D01*
X231903957Y-93690035D01*
X231766995Y-93385718D01*
X231678127Y-93238712D01*
X239462265Y-93238712D01*
X242020000Y-95796446D01*
X242020001Y-95796446D01*
X244577733Y-93238712D01*
X253922265Y-93238712D01*
X256480000Y-95796446D01*
X256480001Y-95796446D01*
X259037733Y-93238712D01*
X258854961Y-93081807D01*
X258532371Y-92857278D01*
X258188719Y-92666535D01*
X257827532Y-92511538D01*
X257452532Y-92393881D01*
X257067536Y-92314762D01*
X256676516Y-92275000D01*
X256283484Y-92275000D01*
X255892463Y-92314762D01*
X255507467Y-92393881D01*
X255132467Y-92511538D01*
X254771280Y-92666535D01*
X254427628Y-92857278D01*
X254105038Y-93081807D01*
X253922265Y-93238712D01*
X244577733Y-93238712D01*
X244394961Y-93081807D01*
X244072371Y-92857278D01*
X243728719Y-92666535D01*
X243367532Y-92511538D01*
X242992532Y-92393881D01*
X242607536Y-92314762D01*
X242216516Y-92275000D01*
X241823484Y-92275000D01*
X241432463Y-92314762D01*
X241047467Y-92393881D01*
X240672467Y-92511538D01*
X240311280Y-92666535D01*
X239967628Y-92857278D01*
X239645038Y-93081807D01*
X239462265Y-93238712D01*
X231678127Y-93238712D01*
X231594350Y-93100129D01*
X231388541Y-92837433D01*
X231152567Y-92601459D01*
X230889871Y-92395650D01*
X230604282Y-92223005D01*
X230299965Y-92086043D01*
X230299963Y-92086042D01*
X230299958Y-92086040D01*
X229981364Y-91986763D01*
X229653108Y-91926607D01*
X229320000Y-91906457D01*
X228986891Y-91926607D01*
X228658635Y-91986763D01*
X228340041Y-92086040D01*
X228035717Y-92223005D01*
X227750128Y-92395650D01*
X227487430Y-92601461D01*
X227251461Y-92837430D01*
X227045650Y-93100128D01*
X226873005Y-93385717D01*
X226736040Y-93690041D01*
X226636763Y-94008635D01*
X226636761Y-94008641D01*
X226636762Y-94008641D01*
X226576607Y-94336892D01*
X226561500Y-94586644D01*
X226561500Y-126753356D01*
X223098500Y-126753356D01*
X223098500Y-94586644D01*
X223083393Y-94336892D01*
X223023238Y-94008641D01*
X222923957Y-93690035D01*
X222786995Y-93385718D01*
X222614350Y-93100129D01*
X222408541Y-92837433D01*
X222172567Y-92601459D01*
X221909871Y-92395650D01*
X221624282Y-92223005D01*
X221319965Y-92086043D01*
X221319963Y-92086042D01*
X221319958Y-92086040D01*
X221001364Y-91986763D01*
X220673108Y-91926607D01*
X220340000Y-91906457D01*
X220006891Y-91926607D01*
X219678635Y-91986763D01*
X219360041Y-92086040D01*
X219055717Y-92223005D01*
X218770128Y-92395650D01*
X218507430Y-92601461D01*
X218271461Y-92837430D01*
X218065650Y-93100128D01*
X217893005Y-93385717D01*
X217756040Y-93690041D01*
X217656763Y-94008635D01*
X217656761Y-94008641D01*
X217656762Y-94008641D01*
X217596607Y-94336892D01*
X217581500Y-94586644D01*
X217581500Y-126753356D01*
X214088500Y-126753356D01*
X214088500Y-94586644D01*
X214073393Y-94336892D01*
X214013238Y-94008641D01*
X213913957Y-93690035D01*
X213776995Y-93385718D01*
X213604350Y-93100129D01*
X213398541Y-92837433D01*
X213162567Y-92601459D01*
X212899871Y-92395650D01*
X212614282Y-92223005D01*
X212309965Y-92086043D01*
X212309963Y-92086042D01*
X212309958Y-92086040D01*
X211991364Y-91986763D01*
X211663108Y-91926607D01*
X211330000Y-91906457D01*
X210996891Y-91926607D01*
X210668635Y-91986763D01*
X210350041Y-92086040D01*
X210045717Y-92223005D01*
X209760128Y-92395650D01*
X209497430Y-92601461D01*
X209261461Y-92837430D01*
X209055650Y-93100128D01*
X208883005Y-93385717D01*
X208746040Y-93690041D01*
X208646763Y-94008635D01*
X208646761Y-94008641D01*
X208646762Y-94008641D01*
X208586607Y-94336892D01*
X208571500Y-94586644D01*
X208571500Y-126753356D01*
X205078500Y-126753356D01*
X205078500Y-94586644D01*
X205063393Y-94336892D01*
X205003238Y-94008641D01*
X204903957Y-93690035D01*
X204766995Y-93385718D01*
X204594350Y-93100129D01*
X204388541Y-92837433D01*
X204152567Y-92601459D01*
X203889871Y-92395650D01*
X203604282Y-92223005D01*
X203299965Y-92086043D01*
X203299963Y-92086042D01*
X203299958Y-92086040D01*
X202981364Y-91986763D01*
X202653108Y-91926607D01*
X202320000Y-91906457D01*
X201986891Y-91926607D01*
X201658635Y-91986763D01*
X201340041Y-92086040D01*
X201035717Y-92223005D01*
X200750128Y-92395650D01*
X200487430Y-92601461D01*
X200251461Y-92837430D01*
X200045650Y-93100128D01*
X199873005Y-93385717D01*
X199736040Y-93690041D01*
X199636763Y-94008635D01*
X199636761Y-94008641D01*
X199636762Y-94008641D01*
X199576607Y-94336892D01*
X199561500Y-94586644D01*
X199561500Y-126753356D01*
X195930500Y-126753356D01*
X195930500Y-85653356D01*
X199561500Y-85653356D01*
X199576607Y-85903108D01*
X199604647Y-86056118D01*
X199636763Y-86231364D01*
X199736040Y-86549958D01*
X199736042Y-86549963D01*
X199736043Y-86549965D01*
X199873005Y-86854282D01*
X200045650Y-87139871D01*
X200251459Y-87402567D01*
X200487433Y-87638541D01*
X200750129Y-87844350D01*
X201035718Y-88016995D01*
X201340035Y-88153957D01*
X201658641Y-88253238D01*
X201986892Y-88313393D01*
X202320000Y-88333542D01*
X202653108Y-88313393D01*
X202981359Y-88253238D01*
X203299965Y-88153957D01*
X203604282Y-88016995D01*
X203889871Y-87844350D01*
X204152567Y-87638541D01*
X204388541Y-87402567D01*
X204594350Y-87139871D01*
X204766995Y-86854282D01*
X204903957Y-86549965D01*
X205003238Y-86231359D01*
X205063393Y-85903108D01*
X205078500Y-85653356D01*
X208571500Y-85653356D01*
X208586607Y-85903108D01*
X208614647Y-86056118D01*
X208646763Y-86231364D01*
X208746040Y-86549958D01*
X208746042Y-86549963D01*
X208746043Y-86549965D01*
X208883005Y-86854282D01*
X209055650Y-87139871D01*
X209261459Y-87402567D01*
X209497433Y-87638541D01*
X209760129Y-87844350D01*
X210045718Y-88016995D01*
X210350035Y-88153957D01*
X210668641Y-88253238D01*
X210996892Y-88313393D01*
X211330000Y-88333542D01*
X211663108Y-88313393D01*
X211991359Y-88253238D01*
X212309965Y-88153957D01*
X212614282Y-88016995D01*
X212899871Y-87844350D01*
X213162567Y-87638541D01*
X213398541Y-87402567D01*
X213604350Y-87139871D01*
X213776995Y-86854282D01*
X213913957Y-86549965D01*
X214013238Y-86231359D01*
X214073393Y-85903108D01*
X214088500Y-85653356D01*
X217571500Y-85653356D01*
X217586607Y-85903108D01*
X217614647Y-86056118D01*
X217646763Y-86231364D01*
X217746040Y-86549958D01*
X217746042Y-86549963D01*
X217746043Y-86549965D01*
X217883005Y-86854282D01*
X218055650Y-87139871D01*
X218261459Y-87402567D01*
X218497433Y-87638541D01*
X218760129Y-87844350D01*
X219045718Y-88016995D01*
X219350035Y-88153957D01*
X219668641Y-88253238D01*
X219996892Y-88313393D01*
X220330000Y-88333542D01*
X220663108Y-88313393D01*
X220991359Y-88253238D01*
X221309965Y-88153957D01*
X221614282Y-88016995D01*
X221899871Y-87844350D01*
X222162567Y-87638541D01*
X222398541Y-87402567D01*
X222604350Y-87139871D01*
X222776995Y-86854282D01*
X222913957Y-86549965D01*
X223013238Y-86231359D01*
X223073393Y-85903108D01*
X223088500Y-85653356D01*
X226561500Y-85653356D01*
X226576607Y-85903108D01*
X226604647Y-86056118D01*
X226636763Y-86231364D01*
X226736040Y-86549958D01*
X226736042Y-86549963D01*
X226736043Y-86549965D01*
X226873005Y-86854282D01*
X227045650Y-87139871D01*
X227251459Y-87402567D01*
X227487433Y-87638541D01*
X227750129Y-87844350D01*
X228035718Y-88016995D01*
X228340035Y-88153957D01*
X228658641Y-88253238D01*
X228986892Y-88313393D01*
X229320000Y-88333542D01*
X229653108Y-88313393D01*
X229981359Y-88253238D01*
X230299965Y-88153957D01*
X230604282Y-88016995D01*
X230889871Y-87844350D01*
X231152567Y-87638541D01*
X231388541Y-87402567D01*
X231594350Y-87139871D01*
X231766995Y-86854282D01*
X231903957Y-86549965D01*
X232003238Y-86231359D01*
X232063393Y-85903108D01*
X232078500Y-85653356D01*
X232078500Y-85211286D01*
X239472265Y-85211286D01*
X239655038Y-85368192D01*
X239977628Y-85592721D01*
X240321280Y-85783464D01*
X240682467Y-85938461D01*
X241057467Y-86056118D01*
X241442463Y-86135237D01*
X241833484Y-86175000D01*
X242226516Y-86175000D01*
X242617536Y-86135237D01*
X243002532Y-86056118D01*
X243377532Y-85938461D01*
X243738719Y-85783464D01*
X244082371Y-85592721D01*
X244404961Y-85368192D01*
X244587733Y-85211286D01*
X253932265Y-85211286D01*
X254115038Y-85368192D01*
X254437628Y-85592721D01*
X254781280Y-85783464D01*
X255142467Y-85938461D01*
X255517467Y-86056118D01*
X255902463Y-86135237D01*
X256293484Y-86175000D01*
X256686516Y-86175000D01*
X257077536Y-86135237D01*
X257462532Y-86056118D01*
X257837532Y-85938461D01*
X258198719Y-85783464D01*
X258542371Y-85592721D01*
X258864961Y-85368192D01*
X259047733Y-85211286D01*
X256490001Y-82653553D01*
X256490000Y-82653553D01*
X253932265Y-85211286D01*
X244587733Y-85211286D01*
X242030001Y-82653553D01*
X242030000Y-82653553D01*
X239472265Y-85211286D01*
X232078500Y-85211286D01*
X232078500Y-82299999D01*
X238150020Y-82299999D01*
X238169927Y-82692533D01*
X238229443Y-83081038D01*
X238327957Y-83461520D01*
X238464460Y-83830088D01*
X238637553Y-84182961D01*
X238845457Y-84516513D01*
X239086028Y-84827306D01*
X239116784Y-84859660D01*
X241676446Y-82300001D01*
X242383553Y-82300001D01*
X244943213Y-84859661D01*
X244943215Y-84859660D01*
X244973966Y-84827311D01*
X245214542Y-84516513D01*
X245422446Y-84182961D01*
X245595539Y-83830088D01*
X245732042Y-83461520D01*
X245830556Y-83081038D01*
X245890072Y-82692533D01*
X245909979Y-82299999D01*
X252610020Y-82299999D01*
X252629927Y-82692533D01*
X252689443Y-83081038D01*
X252787957Y-83461520D01*
X252924460Y-83830088D01*
X253097553Y-84182961D01*
X253305457Y-84516513D01*
X253546028Y-84827306D01*
X253576784Y-84859660D01*
X256136446Y-82300001D01*
X256843553Y-82300001D01*
X259403213Y-84859661D01*
X259403215Y-84859660D01*
X259433966Y-84827311D01*
X259674542Y-84516513D01*
X259882446Y-84182961D01*
X260055539Y-83830088D01*
X260192042Y-83461520D01*
X260290556Y-83081038D01*
X260350072Y-82692533D01*
X260369979Y-82299999D01*
X260350072Y-81907466D01*
X260290556Y-81518961D01*
X260192042Y-81138479D01*
X260055539Y-80769911D01*
X259882446Y-80417038D01*
X259674542Y-80083486D01*
X259433971Y-79772693D01*
X259403214Y-79740338D01*
X256843553Y-82300000D01*
X256843553Y-82300001D01*
X256136446Y-82300001D01*
X256136446Y-82300000D01*
X253576784Y-79740337D01*
X253576784Y-79740338D01*
X253546033Y-79772689D01*
X253305457Y-80083486D01*
X253097553Y-80417038D01*
X252924460Y-80769911D01*
X252787957Y-81138479D01*
X252689443Y-81518961D01*
X252629927Y-81907466D01*
X252610020Y-82299999D01*
X245909979Y-82299999D01*
X245890072Y-81907466D01*
X245830556Y-81518961D01*
X245732042Y-81138479D01*
X245595539Y-80769911D01*
X245422446Y-80417038D01*
X245214542Y-80083486D01*
X244973971Y-79772693D01*
X244943214Y-79740338D01*
X242383553Y-82300000D01*
X242383553Y-82300001D01*
X241676446Y-82300001D01*
X241676446Y-82300000D01*
X239116784Y-79740337D01*
X239116784Y-79740338D01*
X239086033Y-79772689D01*
X238845457Y-80083486D01*
X238637553Y-80417038D01*
X238464460Y-80769911D01*
X238327957Y-81138479D01*
X238229443Y-81518961D01*
X238169927Y-81907466D01*
X238150020Y-82299999D01*
X232078500Y-82299999D01*
X232078500Y-79388712D01*
X239472265Y-79388712D01*
X242030000Y-81946446D01*
X242030001Y-81946446D01*
X244587733Y-79388712D01*
X253932265Y-79388712D01*
X256490000Y-81946446D01*
X256490001Y-81946446D01*
X259047733Y-79388712D01*
X258864961Y-79231807D01*
X258542371Y-79007278D01*
X258198719Y-78816535D01*
X257837532Y-78661538D01*
X257462532Y-78543881D01*
X257077536Y-78464762D01*
X256686516Y-78425000D01*
X256293484Y-78425000D01*
X255902463Y-78464762D01*
X255517467Y-78543881D01*
X255142467Y-78661538D01*
X254781280Y-78816535D01*
X254437628Y-79007278D01*
X254115038Y-79231807D01*
X253932265Y-79388712D01*
X244587733Y-79388712D01*
X244404961Y-79231807D01*
X244082371Y-79007278D01*
X243738719Y-78816535D01*
X243377532Y-78661538D01*
X243002532Y-78543881D01*
X242617536Y-78464762D01*
X242226516Y-78425000D01*
X241833484Y-78425000D01*
X241442463Y-78464762D01*
X241057467Y-78543881D01*
X240682467Y-78661538D01*
X240321280Y-78816535D01*
X239977628Y-79007278D01*
X239655038Y-79231807D01*
X239472265Y-79388712D01*
X232078500Y-79388712D01*
X232078500Y-73172641D01*
X239560909Y-73172641D01*
X239731650Y-73319218D01*
X240043838Y-73536507D01*
X240376396Y-73721092D01*
X240725936Y-73871091D01*
X241088839Y-73984952D01*
X241461416Y-74061520D01*
X241839824Y-74100000D01*
X242220176Y-74100000D01*
X242598583Y-74061520D01*
X242971160Y-73984952D01*
X243334063Y-73871091D01*
X243683603Y-73721092D01*
X244016161Y-73536507D01*
X244328343Y-73319222D01*
X244499088Y-73172641D01*
X254010909Y-73172641D01*
X254181650Y-73319218D01*
X254493838Y-73536507D01*
X254826396Y-73721092D01*
X255175936Y-73871091D01*
X255538839Y-73984952D01*
X255911416Y-74061520D01*
X256289824Y-74100000D01*
X256670176Y-74100000D01*
X257048583Y-74061520D01*
X257421160Y-73984952D01*
X257784063Y-73871091D01*
X258133603Y-73721092D01*
X258466161Y-73536507D01*
X258778343Y-73319222D01*
X258949088Y-73172641D01*
X256480000Y-70703553D01*
X254010909Y-73172641D01*
X244499088Y-73172641D01*
X242030000Y-70703553D01*
X239560909Y-73172641D01*
X232078500Y-73172641D01*
X232078500Y-70350000D01*
X238275181Y-70350000D01*
X238294446Y-70729871D01*
X238352042Y-71105844D01*
X238447378Y-71474051D01*
X238579478Y-71830730D01*
X238746987Y-72172220D01*
X238948185Y-72495013D01*
X239181000Y-72795784D01*
X239205201Y-72821244D01*
X239205202Y-72821245D01*
X241676447Y-70350001D01*
X242383553Y-70350001D01*
X244854797Y-72821244D01*
X244879004Y-72795779D01*
X245111814Y-72495013D01*
X245313012Y-72172220D01*
X245480521Y-71830730D01*
X245612621Y-71474051D01*
X245707957Y-71105844D01*
X245765553Y-70729871D01*
X245784818Y-70350000D01*
X252725181Y-70350000D01*
X252744446Y-70729871D01*
X252802042Y-71105844D01*
X252897378Y-71474051D01*
X253029478Y-71830730D01*
X253196987Y-72172220D01*
X253398185Y-72495013D01*
X253631000Y-72795784D01*
X253655201Y-72821244D01*
X253655202Y-72821245D01*
X256126447Y-70350001D01*
X256833553Y-70350001D01*
X259304797Y-72821244D01*
X259329004Y-72795779D01*
X259561814Y-72495013D01*
X259763012Y-72172220D01*
X259930521Y-71830730D01*
X260062621Y-71474051D01*
X260157957Y-71105844D01*
X260215553Y-70729871D01*
X260234818Y-70350000D01*
X260215553Y-69970128D01*
X260157957Y-69594155D01*
X260062621Y-69225948D01*
X259930521Y-68869269D01*
X259763012Y-68527779D01*
X259561814Y-68204986D01*
X259328999Y-67904215D01*
X259304797Y-67878754D01*
X259304797Y-67878753D01*
X256833553Y-70350000D01*
X256833553Y-70350001D01*
X256126447Y-70350001D01*
X256126447Y-70350000D01*
X253655201Y-67878754D01*
X253630999Y-67904215D01*
X253398185Y-68204986D01*
X253196987Y-68527779D01*
X253029478Y-68869269D01*
X252897378Y-69225948D01*
X252802042Y-69594155D01*
X252744446Y-69970128D01*
X252725181Y-70350000D01*
X245784818Y-70350000D01*
X245765553Y-69970128D01*
X245707957Y-69594155D01*
X245612621Y-69225948D01*
X245480521Y-68869269D01*
X245313012Y-68527779D01*
X245111814Y-68204986D01*
X244878999Y-67904215D01*
X244854797Y-67878754D01*
X244854797Y-67878753D01*
X242383553Y-70350000D01*
X242383553Y-70350001D01*
X241676447Y-70350001D01*
X241676447Y-70350000D01*
X239205201Y-67878754D01*
X239180999Y-67904215D01*
X238948185Y-68204986D01*
X238746987Y-68527779D01*
X238579478Y-68869269D01*
X238447378Y-69225948D01*
X238352042Y-69594155D01*
X238294446Y-69970128D01*
X238275181Y-70350000D01*
X232078500Y-70350000D01*
X232078500Y-67527357D01*
X239560909Y-67527357D01*
X242030000Y-69996447D01*
X242030001Y-69996447D01*
X244499089Y-67527357D01*
X254010909Y-67527357D01*
X256480000Y-69996447D01*
X256480001Y-69996447D01*
X258949089Y-67527357D01*
X258778349Y-67380781D01*
X258466161Y-67163492D01*
X258133603Y-66978907D01*
X257784063Y-66828908D01*
X257421160Y-66715047D01*
X257048583Y-66638479D01*
X256670176Y-66600000D01*
X256289824Y-66600000D01*
X255911416Y-66638479D01*
X255538839Y-66715047D01*
X255175936Y-66828908D01*
X254826396Y-66978907D01*
X254493838Y-67163492D01*
X254181650Y-67380781D01*
X254010909Y-67527357D01*
X244499089Y-67527357D01*
X244328349Y-67380781D01*
X244016161Y-67163492D01*
X243683603Y-66978907D01*
X243334063Y-66828908D01*
X242971160Y-66715047D01*
X242598583Y-66638479D01*
X242220176Y-66600000D01*
X241839824Y-66600000D01*
X241461416Y-66638479D01*
X241088839Y-66715047D01*
X240725936Y-66828908D01*
X240376396Y-66978907D01*
X240043838Y-67163492D01*
X239731650Y-67380781D01*
X239560909Y-67527357D01*
X232078500Y-67527357D01*
X232078500Y-63122641D01*
X239560909Y-63122641D01*
X239731650Y-63269218D01*
X240043838Y-63486507D01*
X240376396Y-63671092D01*
X240725936Y-63821091D01*
X241088839Y-63934952D01*
X241461416Y-64011520D01*
X241839824Y-64050000D01*
X242220176Y-64050000D01*
X242598583Y-64011520D01*
X242971160Y-63934952D01*
X243334063Y-63821091D01*
X243683603Y-63671092D01*
X244016161Y-63486507D01*
X244328343Y-63269222D01*
X244395830Y-63211286D01*
X253922265Y-63211286D01*
X254105038Y-63368192D01*
X254427628Y-63592721D01*
X254771280Y-63783464D01*
X255132467Y-63938461D01*
X255507467Y-64056118D01*
X255892463Y-64135237D01*
X256283484Y-64175000D01*
X256676516Y-64175000D01*
X257067536Y-64135237D01*
X257452532Y-64056118D01*
X257827532Y-63938461D01*
X258188719Y-63783464D01*
X258532371Y-63592721D01*
X258854961Y-63368192D01*
X259037733Y-63211286D01*
X256480001Y-60653553D01*
X256480000Y-60653553D01*
X253922265Y-63211286D01*
X244395830Y-63211286D01*
X244499088Y-63122641D01*
X242030000Y-60653553D01*
X239560909Y-63122641D01*
X232078500Y-63122641D01*
X232078500Y-60300000D01*
X238275181Y-60300000D01*
X238294446Y-60679871D01*
X238352042Y-61055844D01*
X238447378Y-61424051D01*
X238579478Y-61780730D01*
X238746987Y-62122220D01*
X238948185Y-62445013D01*
X239181000Y-62745784D01*
X239205201Y-62771244D01*
X239205202Y-62771245D01*
X241676447Y-60300001D01*
X242383553Y-60300001D01*
X244854797Y-62771244D01*
X244879004Y-62745779D01*
X245111814Y-62445013D01*
X245313012Y-62122220D01*
X245480521Y-61780730D01*
X245612621Y-61424051D01*
X245707957Y-61055844D01*
X245765553Y-60679871D01*
X245784818Y-60300000D01*
X252600020Y-60300000D01*
X252619927Y-60692533D01*
X252679443Y-61081038D01*
X252777957Y-61461520D01*
X252914460Y-61830088D01*
X253087553Y-62182961D01*
X253295457Y-62516513D01*
X253536028Y-62827306D01*
X253566784Y-62859660D01*
X256126446Y-60300001D01*
X256833553Y-60300001D01*
X259393213Y-62859661D01*
X259393215Y-62859660D01*
X259423966Y-62827311D01*
X259664542Y-62516513D01*
X259872446Y-62182961D01*
X260045539Y-61830088D01*
X260182042Y-61461520D01*
X260280556Y-61081038D01*
X260340072Y-60692533D01*
X260359979Y-60300000D01*
X260340072Y-59907466D01*
X260280556Y-59518961D01*
X260182042Y-59138479D01*
X260045539Y-58769911D01*
X259872446Y-58417038D01*
X259664542Y-58083486D01*
X259423971Y-57772693D01*
X259393214Y-57740338D01*
X256833553Y-60300000D01*
X256833553Y-60300001D01*
X256126446Y-60300001D01*
X256126446Y-60300000D01*
X253566784Y-57740337D01*
X253566784Y-57740338D01*
X253536033Y-57772689D01*
X253295457Y-58083486D01*
X253087553Y-58417038D01*
X252914460Y-58769911D01*
X252777957Y-59138479D01*
X252679443Y-59518961D01*
X252619927Y-59907466D01*
X252600020Y-60300000D01*
X245784818Y-60300000D01*
X245765553Y-59920128D01*
X245707957Y-59544155D01*
X245612621Y-59175948D01*
X245480521Y-58819269D01*
X245313012Y-58477779D01*
X245111814Y-58154986D01*
X244878999Y-57854215D01*
X244854797Y-57828754D01*
X244854797Y-57828753D01*
X242383553Y-60300000D01*
X242383553Y-60300001D01*
X241676447Y-60300001D01*
X241676447Y-60300000D01*
X239205201Y-57828754D01*
X239180999Y-57854215D01*
X238948185Y-58154986D01*
X238746987Y-58477779D01*
X238579478Y-58819269D01*
X238447378Y-59175948D01*
X238352042Y-59544155D01*
X238294446Y-59920128D01*
X238275181Y-60300000D01*
X232078500Y-60300000D01*
X232078500Y-57477357D01*
X239560909Y-57477357D01*
X242030000Y-59946447D01*
X242030001Y-59946447D01*
X244499089Y-57477357D01*
X244395830Y-57388712D01*
X253922265Y-57388712D01*
X256480000Y-59946446D01*
X256480001Y-59946446D01*
X259037733Y-57388712D01*
X258854961Y-57231807D01*
X258532371Y-57007278D01*
X258188719Y-56816535D01*
X257827532Y-56661538D01*
X257452532Y-56543881D01*
X257067536Y-56464762D01*
X256676516Y-56425000D01*
X256283484Y-56425000D01*
X255892463Y-56464762D01*
X255507467Y-56543881D01*
X255132467Y-56661538D01*
X254771280Y-56816535D01*
X254427628Y-57007278D01*
X254105038Y-57231807D01*
X253922265Y-57388712D01*
X244395830Y-57388712D01*
X244328349Y-57330781D01*
X244016161Y-57113492D01*
X243683603Y-56928907D01*
X243334063Y-56778908D01*
X242971160Y-56665047D01*
X242598583Y-56588479D01*
X242220176Y-56550000D01*
X241839824Y-56550000D01*
X241461416Y-56588479D01*
X241088839Y-56665047D01*
X240725936Y-56778908D01*
X240376396Y-56928907D01*
X240043838Y-57113492D01*
X239731650Y-57330781D01*
X239560909Y-57477357D01*
X232078500Y-57477357D01*
X232078500Y-53486644D01*
X232063393Y-53236892D01*
X232033293Y-53072641D01*
X239560909Y-53072641D01*
X239731650Y-53219218D01*
X240043838Y-53436507D01*
X240376396Y-53621092D01*
X240725936Y-53771091D01*
X241088839Y-53884952D01*
X241461416Y-53961520D01*
X241839824Y-54000000D01*
X242220176Y-54000000D01*
X242598583Y-53961520D01*
X242971160Y-53884952D01*
X243334063Y-53771091D01*
X243683603Y-53621092D01*
X244016161Y-53436507D01*
X244328343Y-53219222D01*
X244395830Y-53161286D01*
X253922265Y-53161286D01*
X254105038Y-53318192D01*
X254427628Y-53542721D01*
X254771280Y-53733464D01*
X255132467Y-53888461D01*
X255507467Y-54006118D01*
X255892463Y-54085237D01*
X256283484Y-54125000D01*
X256676516Y-54125000D01*
X257067536Y-54085237D01*
X257452532Y-54006118D01*
X257827532Y-53888461D01*
X258188719Y-53733464D01*
X258532371Y-53542721D01*
X258854961Y-53318192D01*
X259037733Y-53161286D01*
X256480001Y-50603553D01*
X256480000Y-50603553D01*
X253922265Y-53161286D01*
X244395830Y-53161286D01*
X244499088Y-53072641D01*
X242030000Y-50603553D01*
X239560909Y-53072641D01*
X232033293Y-53072641D01*
X232003238Y-52908641D01*
X231903957Y-52590035D01*
X231766995Y-52285718D01*
X231594350Y-52000129D01*
X231388541Y-51737433D01*
X231152567Y-51501459D01*
X230889871Y-51295650D01*
X230604282Y-51123005D01*
X230299965Y-50986043D01*
X230299963Y-50986042D01*
X230299958Y-50986040D01*
X229981364Y-50886763D01*
X229653108Y-50826607D01*
X229320000Y-50806457D01*
X228986891Y-50826607D01*
X228658635Y-50886763D01*
X228340041Y-50986040D01*
X228035717Y-51123005D01*
X227750128Y-51295650D01*
X227487430Y-51501461D01*
X227251461Y-51737430D01*
X227045650Y-52000128D01*
X226873005Y-52285717D01*
X226736040Y-52590041D01*
X226636763Y-52908635D01*
X226636761Y-52908641D01*
X226636762Y-52908641D01*
X226576607Y-53236892D01*
X226561500Y-53486644D01*
X226561500Y-85653356D01*
X223088500Y-85653356D01*
X223088500Y-53486644D01*
X223073393Y-53236892D01*
X223013238Y-52908641D01*
X222913957Y-52590035D01*
X222776995Y-52285718D01*
X222604350Y-52000129D01*
X222398541Y-51737433D01*
X222162567Y-51501459D01*
X221899871Y-51295650D01*
X221614282Y-51123005D01*
X221309965Y-50986043D01*
X221309963Y-50986042D01*
X221309958Y-50986040D01*
X220991364Y-50886763D01*
X220663108Y-50826607D01*
X220330000Y-50806457D01*
X219996891Y-50826607D01*
X219668635Y-50886763D01*
X219350041Y-50986040D01*
X219045717Y-51123005D01*
X218760128Y-51295650D01*
X218497430Y-51501461D01*
X218261461Y-51737430D01*
X218055650Y-52000128D01*
X217883005Y-52285717D01*
X217746040Y-52590041D01*
X217646763Y-52908635D01*
X217646761Y-52908641D01*
X217646762Y-52908641D01*
X217586607Y-53236892D01*
X217571500Y-53486644D01*
X217571500Y-85653356D01*
X214088500Y-85653356D01*
X214088500Y-53486644D01*
X214073393Y-53236892D01*
X214013238Y-52908641D01*
X213913957Y-52590035D01*
X213776995Y-52285718D01*
X213604350Y-52000129D01*
X213398541Y-51737433D01*
X213162567Y-51501459D01*
X212899871Y-51295650D01*
X212614282Y-51123005D01*
X212309965Y-50986043D01*
X212309963Y-50986042D01*
X212309958Y-50986040D01*
X211991364Y-50886763D01*
X211663108Y-50826607D01*
X211330000Y-50806457D01*
X210996891Y-50826607D01*
X210668635Y-50886763D01*
X210350041Y-50986040D01*
X210045717Y-51123005D01*
X209760128Y-51295650D01*
X209497430Y-51501461D01*
X209261461Y-51737430D01*
X209055650Y-52000128D01*
X208883005Y-52285717D01*
X208746040Y-52590041D01*
X208646763Y-52908635D01*
X208646761Y-52908641D01*
X208646762Y-52908641D01*
X208586607Y-53236892D01*
X208571500Y-53486644D01*
X208571500Y-85653356D01*
X205078500Y-85653356D01*
X205078500Y-53486644D01*
X205063393Y-53236892D01*
X205003238Y-52908641D01*
X204903957Y-52590035D01*
X204766995Y-52285718D01*
X204594350Y-52000129D01*
X204388541Y-51737433D01*
X204152567Y-51501459D01*
X203889871Y-51295650D01*
X203604282Y-51123005D01*
X203299965Y-50986043D01*
X203299963Y-50986042D01*
X203299958Y-50986040D01*
X202981364Y-50886763D01*
X202653108Y-50826607D01*
X202320000Y-50806457D01*
X201986891Y-50826607D01*
X201658635Y-50886763D01*
X201340041Y-50986040D01*
X201035717Y-51123005D01*
X200750128Y-51295650D01*
X200487430Y-51501461D01*
X200251461Y-51737430D01*
X200045650Y-52000128D01*
X199873005Y-52285717D01*
X199736040Y-52590041D01*
X199636763Y-52908635D01*
X199636761Y-52908641D01*
X199636762Y-52908641D01*
X199576607Y-53236892D01*
X199561500Y-53486644D01*
X199561500Y-85653356D01*
X195930500Y-85653356D01*
X195930500Y-50250000D01*
X238275181Y-50250000D01*
X238294446Y-50629871D01*
X238352042Y-51005844D01*
X238447378Y-51374051D01*
X238579478Y-51730730D01*
X238746987Y-52072220D01*
X238948185Y-52395013D01*
X239181000Y-52695784D01*
X239205201Y-52721244D01*
X239205202Y-52721245D01*
X241676447Y-50250001D01*
X242383553Y-50250001D01*
X244854797Y-52721244D01*
X244879004Y-52695779D01*
X245111814Y-52395013D01*
X245313012Y-52072220D01*
X245480521Y-51730730D01*
X245612621Y-51374051D01*
X245707957Y-51005844D01*
X245765553Y-50629871D01*
X245784818Y-50250000D01*
X245784818Y-50249999D01*
X252600020Y-50249999D01*
X252619927Y-50642533D01*
X252679443Y-51031038D01*
X252777957Y-51411520D01*
X252914460Y-51780088D01*
X253087553Y-52132961D01*
X253295457Y-52466513D01*
X253536028Y-52777306D01*
X253566784Y-52809660D01*
X256126446Y-50250001D01*
X256833553Y-50250001D01*
X259393213Y-52809661D01*
X259393215Y-52809660D01*
X259423966Y-52777311D01*
X259664542Y-52466513D01*
X259872446Y-52132961D01*
X260045539Y-51780088D01*
X260182042Y-51411520D01*
X260280556Y-51031038D01*
X260340072Y-50642533D01*
X260359979Y-50249999D01*
X260340072Y-49857466D01*
X260280556Y-49468961D01*
X260182042Y-49088479D01*
X260045539Y-48719911D01*
X259872446Y-48367038D01*
X259664542Y-48033486D01*
X259423971Y-47722693D01*
X259393214Y-47690338D01*
X256833553Y-50250000D01*
X256833553Y-50250001D01*
X256126446Y-50250001D01*
X256126446Y-50250000D01*
X253566784Y-47690337D01*
X253566784Y-47690338D01*
X253536033Y-47722689D01*
X253295457Y-48033486D01*
X253087553Y-48367038D01*
X252914460Y-48719911D01*
X252777957Y-49088479D01*
X252679443Y-49468961D01*
X252619927Y-49857466D01*
X252600020Y-50249999D01*
X245784818Y-50249999D01*
X245765553Y-49870128D01*
X245707957Y-49494155D01*
X245612621Y-49125948D01*
X245480521Y-48769269D01*
X245313012Y-48427779D01*
X245111814Y-48104986D01*
X244878999Y-47804215D01*
X244854797Y-47778754D01*
X244854797Y-47778753D01*
X242383553Y-50250000D01*
X242383553Y-50250001D01*
X241676447Y-50250001D01*
X241676447Y-50250000D01*
X239205201Y-47778754D01*
X239180999Y-47804215D01*
X238948185Y-48104986D01*
X238746987Y-48427779D01*
X238579478Y-48769269D01*
X238447378Y-49125948D01*
X238352042Y-49494155D01*
X238294446Y-49870128D01*
X238275181Y-50250000D01*
X195930500Y-50250000D01*
X195930500Y-47427357D01*
X239560909Y-47427357D01*
X242030000Y-49896447D01*
X242030001Y-49896447D01*
X244499089Y-47427357D01*
X244395830Y-47338712D01*
X253922265Y-47338712D01*
X256480000Y-49896446D01*
X256480001Y-49896446D01*
X259037733Y-47338712D01*
X258854961Y-47181807D01*
X258532371Y-46957278D01*
X258188719Y-46766535D01*
X257827532Y-46611538D01*
X257452532Y-46493881D01*
X257067536Y-46414762D01*
X256676516Y-46375000D01*
X256283484Y-46375000D01*
X255892463Y-46414762D01*
X255507467Y-46493881D01*
X255132467Y-46611538D01*
X254771280Y-46766535D01*
X254427628Y-46957278D01*
X254105038Y-47181807D01*
X253922265Y-47338712D01*
X244395830Y-47338712D01*
X244328349Y-47280781D01*
X244016161Y-47063492D01*
X243683603Y-46878907D01*
X243334063Y-46728908D01*
X242971160Y-46615047D01*
X242598583Y-46538479D01*
X242220176Y-46500000D01*
X241839824Y-46500000D01*
X241461416Y-46538479D01*
X241088839Y-46615047D01*
X240725936Y-46728908D01*
X240376396Y-46878907D01*
X240043838Y-47063492D01*
X239731650Y-47280781D01*
X239560909Y-47427357D01*
X195930500Y-47427357D01*
X195930500Y-45229014D01*
X200904536Y-45229014D01*
X201089716Y-45387987D01*
X201414387Y-45613964D01*
X201760257Y-45805938D01*
X202123773Y-45961934D01*
X202501193Y-46080351D01*
X202888673Y-46159981D01*
X203282216Y-46200000D01*
X203677784Y-46200000D01*
X204071326Y-46159981D01*
X204458806Y-46080351D01*
X204836226Y-45961934D01*
X205199742Y-45805938D01*
X205545612Y-45613964D01*
X205870277Y-45387991D01*
X206055462Y-45229014D01*
X203480000Y-42653553D01*
X200904536Y-45229014D01*
X195930500Y-45229014D01*
X195930500Y-42299999D01*
X199574988Y-42299999D01*
X199595023Y-42695066D01*
X199654922Y-43086067D01*
X199754077Y-43469023D01*
X199891457Y-43839959D01*
X200065666Y-44195109D01*
X200274912Y-44530813D01*
X200517039Y-44843616D01*
X200549100Y-44877345D01*
X200549101Y-44877345D01*
X203126447Y-42300001D01*
X203833553Y-42300001D01*
X206410897Y-44877345D01*
X206410898Y-44877344D01*
X206442960Y-44843616D01*
X206685087Y-44530813D01*
X206894333Y-44195109D01*
X207068542Y-43839959D01*
X207205922Y-43469023D01*
X207305077Y-43086067D01*
X207364976Y-42695066D01*
X207385011Y-42299999D01*
X212766685Y-42299999D01*
X212785931Y-42667243D01*
X212843457Y-43030452D01*
X212938639Y-43385675D01*
X213070426Y-43728993D01*
X213237381Y-44056662D01*
X213437665Y-44365071D01*
X213437668Y-44365075D01*
X213669098Y-44650867D01*
X213929133Y-44910902D01*
X214214925Y-45142332D01*
X214214927Y-45142333D01*
X214214928Y-45142334D01*
X214523337Y-45342618D01*
X214851005Y-45509572D01*
X214851006Y-45509573D01*
X215194326Y-45641361D01*
X215549541Y-45736541D01*
X215912759Y-45794069D01*
X216280000Y-45813315D01*
X216647241Y-45794069D01*
X217010459Y-45736541D01*
X217365674Y-45641361D01*
X217708994Y-45509573D01*
X218036658Y-45342620D01*
X218036657Y-45342620D01*
X218036662Y-45342618D01*
X218211596Y-45229014D01*
X226504536Y-45229014D01*
X226689716Y-45387987D01*
X227014387Y-45613964D01*
X227360257Y-45805938D01*
X227723773Y-45961934D01*
X228101193Y-46080351D01*
X228488673Y-46159981D01*
X228882216Y-46200000D01*
X229277784Y-46200000D01*
X229671326Y-46159981D01*
X230058806Y-46080351D01*
X230436226Y-45961934D01*
X230799742Y-45805938D01*
X231145612Y-45613964D01*
X231470277Y-45387991D01*
X231655462Y-45229014D01*
X229080000Y-42653553D01*
X226504536Y-45229014D01*
X218211596Y-45229014D01*
X218345075Y-45142332D01*
X218630867Y-44910902D01*
X218890902Y-44650867D01*
X219122332Y-44365075D01*
X219310709Y-44075000D01*
X219322618Y-44056662D01*
X219396571Y-43911520D01*
X219489573Y-43728994D01*
X219621361Y-43385674D01*
X219716541Y-43030459D01*
X219774069Y-42667241D01*
X219793315Y-42300000D01*
X219793315Y-42299999D01*
X225174988Y-42299999D01*
X225195023Y-42695066D01*
X225254922Y-43086067D01*
X225354077Y-43469023D01*
X225491457Y-43839959D01*
X225665666Y-44195109D01*
X225874912Y-44530813D01*
X226117039Y-44843616D01*
X226149100Y-44877345D01*
X226149101Y-44877345D01*
X228726447Y-42300001D01*
X229433553Y-42300001D01*
X232010897Y-44877345D01*
X232010898Y-44877344D01*
X232042960Y-44843616D01*
X232285087Y-44530813D01*
X232494333Y-44195109D01*
X232668542Y-43839959D01*
X232805922Y-43469023D01*
X232905077Y-43086067D01*
X232914793Y-43022641D01*
X239560909Y-43022641D01*
X239731650Y-43169218D01*
X240043838Y-43386507D01*
X240376396Y-43571092D01*
X240725936Y-43721091D01*
X241088839Y-43834952D01*
X241461416Y-43911520D01*
X241839824Y-43950000D01*
X242220176Y-43950000D01*
X242598583Y-43911520D01*
X242971160Y-43834952D01*
X243334063Y-43721091D01*
X243683603Y-43571092D01*
X244016161Y-43386507D01*
X244328343Y-43169222D01*
X244395830Y-43111286D01*
X253922265Y-43111286D01*
X254105038Y-43268192D01*
X254427628Y-43492721D01*
X254771280Y-43683464D01*
X255132467Y-43838461D01*
X255507467Y-43956118D01*
X255892463Y-44035237D01*
X256283484Y-44075000D01*
X256676516Y-44075000D01*
X257067536Y-44035237D01*
X257452532Y-43956118D01*
X257827532Y-43838461D01*
X258188719Y-43683464D01*
X258532371Y-43492721D01*
X258854961Y-43268192D01*
X259037733Y-43111286D01*
X256480001Y-40553553D01*
X256480000Y-40553553D01*
X253922265Y-43111286D01*
X244395830Y-43111286D01*
X244499088Y-43022641D01*
X242030000Y-40553553D01*
X239560909Y-43022641D01*
X232914793Y-43022641D01*
X232964976Y-42695066D01*
X232985011Y-42299999D01*
X232964976Y-41904933D01*
X232905077Y-41513932D01*
X232805922Y-41130976D01*
X232668542Y-40760040D01*
X232494333Y-40404890D01*
X232366623Y-40199999D01*
X238275181Y-40199999D01*
X238294446Y-40579871D01*
X238352042Y-40955844D01*
X238447378Y-41324051D01*
X238579478Y-41680730D01*
X238746987Y-42022220D01*
X238948185Y-42345013D01*
X239181000Y-42645784D01*
X239205201Y-42671244D01*
X239205202Y-42671245D01*
X241676447Y-40200001D01*
X242383553Y-40200001D01*
X244854797Y-42671244D01*
X244879004Y-42645779D01*
X245111814Y-42345013D01*
X245313012Y-42022220D01*
X245480521Y-41680730D01*
X245612621Y-41324051D01*
X245707957Y-40955844D01*
X245765553Y-40579871D01*
X245784818Y-40199999D01*
X252600020Y-40199999D01*
X252619927Y-40592533D01*
X252679443Y-40981038D01*
X252777957Y-41361520D01*
X252914460Y-41730088D01*
X253087553Y-42082961D01*
X253295457Y-42416513D01*
X253536028Y-42727306D01*
X253566784Y-42759660D01*
X256126446Y-40200001D01*
X256126446Y-40200000D01*
X256126445Y-40199999D01*
X256833553Y-40199999D01*
X259393214Y-42759661D01*
X259393215Y-42759660D01*
X259423966Y-42727311D01*
X259664542Y-42416513D01*
X259872446Y-42082961D01*
X260045539Y-41730088D01*
X260182042Y-41361520D01*
X260280556Y-40981038D01*
X260340072Y-40592533D01*
X260359979Y-40199999D01*
X260340072Y-39807466D01*
X260280556Y-39418961D01*
X260182042Y-39038479D01*
X260045539Y-38669911D01*
X259872446Y-38317038D01*
X259664542Y-37983486D01*
X259423971Y-37672693D01*
X259393214Y-37640338D01*
X256833553Y-40199999D01*
X256126445Y-40199999D01*
X253566784Y-37640337D01*
X253566784Y-37640338D01*
X253536033Y-37672689D01*
X253295457Y-37983486D01*
X253087553Y-38317038D01*
X252914460Y-38669911D01*
X252777957Y-39038479D01*
X252679443Y-39418961D01*
X252619927Y-39807466D01*
X252600020Y-40199999D01*
X245784818Y-40199999D01*
X245765553Y-39820128D01*
X245707957Y-39444155D01*
X245612621Y-39075948D01*
X245480521Y-38719269D01*
X245313012Y-38377779D01*
X245111814Y-38054986D01*
X244878999Y-37754215D01*
X244854797Y-37728754D01*
X244854797Y-37728753D01*
X242383553Y-40200000D01*
X242383553Y-40200001D01*
X241676447Y-40200001D01*
X241676447Y-40200000D01*
X239205201Y-37728754D01*
X239180999Y-37754215D01*
X238948185Y-38054986D01*
X238746987Y-38377779D01*
X238579478Y-38719269D01*
X238447378Y-39075948D01*
X238352042Y-39444155D01*
X238294446Y-39820128D01*
X238275181Y-40199999D01*
X232366623Y-40199999D01*
X232285087Y-40069186D01*
X232042960Y-39756383D01*
X232010898Y-39722653D01*
X229433553Y-42300000D01*
X229433553Y-42300001D01*
X228726447Y-42300001D01*
X228726447Y-42300000D01*
X226149101Y-39722653D01*
X226149101Y-39722654D01*
X226117039Y-39756384D01*
X225874912Y-40069186D01*
X225665666Y-40404890D01*
X225491457Y-40760040D01*
X225354077Y-41130976D01*
X225254922Y-41513932D01*
X225195023Y-41904933D01*
X225174988Y-42299999D01*
X219793315Y-42299999D01*
X219774069Y-41932759D01*
X219716541Y-41569541D01*
X219621361Y-41214326D01*
X219489573Y-40871006D01*
X219341232Y-40579871D01*
X219322618Y-40543338D01*
X219122334Y-40234928D01*
X219094049Y-40199999D01*
X218890902Y-39949133D01*
X218630867Y-39689098D01*
X218345075Y-39457668D01*
X218345073Y-39457667D01*
X218345071Y-39457665D01*
X218211595Y-39370984D01*
X226504536Y-39370984D01*
X229080000Y-41946447D01*
X229080001Y-41946447D01*
X231655462Y-39370984D01*
X231470283Y-39212012D01*
X231145612Y-38986035D01*
X230799742Y-38794061D01*
X230436226Y-38638065D01*
X230058806Y-38519648D01*
X229671326Y-38440018D01*
X229277784Y-38400000D01*
X228882216Y-38400000D01*
X228488673Y-38440018D01*
X228101193Y-38519648D01*
X227723773Y-38638065D01*
X227360257Y-38794061D01*
X227014387Y-38986035D01*
X226689716Y-39212012D01*
X226504536Y-39370984D01*
X218211595Y-39370984D01*
X218036662Y-39257381D01*
X217708993Y-39090426D01*
X217365675Y-38958639D01*
X217010452Y-38863457D01*
X216647243Y-38805931D01*
X216280000Y-38786685D01*
X215912756Y-38805931D01*
X215549547Y-38863457D01*
X215194324Y-38958639D01*
X214851006Y-39090426D01*
X214523338Y-39257381D01*
X214214928Y-39457665D01*
X213929129Y-39689101D01*
X213669101Y-39949129D01*
X213437665Y-40234928D01*
X213237381Y-40543338D01*
X213070426Y-40871006D01*
X212938639Y-41214324D01*
X212843457Y-41569547D01*
X212785931Y-41932756D01*
X212766685Y-42299999D01*
X207385011Y-42299999D01*
X207364976Y-41904933D01*
X207305077Y-41513932D01*
X207205922Y-41130976D01*
X207068542Y-40760040D01*
X206894333Y-40404890D01*
X206685087Y-40069186D01*
X206442960Y-39756383D01*
X206410898Y-39722653D01*
X203833553Y-42300000D01*
X203833553Y-42300001D01*
X203126447Y-42300001D01*
X203126447Y-42300000D01*
X200549101Y-39722653D01*
X200549101Y-39722654D01*
X200517039Y-39756384D01*
X200274912Y-40069186D01*
X200065666Y-40404890D01*
X199891457Y-40760040D01*
X199754077Y-41130976D01*
X199654922Y-41513932D01*
X199595023Y-41904933D01*
X199574988Y-42299999D01*
X195930500Y-42299999D01*
X195930500Y-39370984D01*
X200904536Y-39370984D01*
X203480000Y-41946447D01*
X203480001Y-41946447D01*
X206055462Y-39370984D01*
X205870283Y-39212012D01*
X205545612Y-38986035D01*
X205199742Y-38794061D01*
X204836226Y-38638065D01*
X204458806Y-38519648D01*
X204071326Y-38440018D01*
X203677784Y-38400000D01*
X203282216Y-38400000D01*
X202888673Y-38440018D01*
X202501193Y-38519648D01*
X202123773Y-38638065D01*
X201760257Y-38794061D01*
X201414387Y-38986035D01*
X201089716Y-39212012D01*
X200904536Y-39370984D01*
X195930500Y-39370984D01*
X195930500Y-37377357D01*
X239560909Y-37377357D01*
X242030000Y-39846447D01*
X242030001Y-39846447D01*
X244499089Y-37377357D01*
X244395830Y-37288712D01*
X253922265Y-37288712D01*
X256480000Y-39846446D01*
X256480001Y-39846446D01*
X259037733Y-37288712D01*
X258854961Y-37131807D01*
X258532371Y-36907278D01*
X258188719Y-36716535D01*
X257827532Y-36561538D01*
X257452532Y-36443881D01*
X257067536Y-36364762D01*
X256676516Y-36325000D01*
X256283484Y-36325000D01*
X255892463Y-36364762D01*
X255507467Y-36443881D01*
X255132467Y-36561538D01*
X254771280Y-36716535D01*
X254427628Y-36907278D01*
X254105038Y-37131807D01*
X253922265Y-37288712D01*
X244395830Y-37288712D01*
X244328349Y-37230781D01*
X244016161Y-37013492D01*
X243683603Y-36828907D01*
X243334063Y-36678908D01*
X242971160Y-36565047D01*
X242598583Y-36488479D01*
X242220176Y-36450000D01*
X241839824Y-36450000D01*
X241461416Y-36488479D01*
X241088839Y-36565047D01*
X240725936Y-36678908D01*
X240376396Y-36828907D01*
X240043838Y-37013492D01*
X239731650Y-37230781D01*
X239560909Y-37377357D01*
X195930500Y-37377357D01*
X195930500Y-29882053D01*
X199530209Y-29882053D01*
X199560480Y-30208721D01*
X199630663Y-30529190D01*
X199739697Y-30838604D01*
X199885928Y-31132276D01*
X200067140Y-31405753D01*
X200280586Y-31654888D01*
X200523028Y-31875902D01*
X200790793Y-32065449D01*
X201079822Y-32220655D01*
X201385733Y-32339165D01*
X201703889Y-32419185D01*
X201964352Y-32451436D01*
X202029467Y-32459500D01*
X202029468Y-32459500D01*
X204688438Y-32459500D01*
X204688442Y-32459500D01*
X204933942Y-32444358D01*
X205256421Y-32384076D01*
X205569048Y-32284623D01*
X205867083Y-32147505D01*
X206146010Y-31974801D01*
X206401598Y-31769129D01*
X206629975Y-31533608D01*
X206827679Y-31271806D01*
X206991711Y-30987694D01*
X207119586Y-30685577D01*
X207209365Y-30370036D01*
X207259687Y-30045854D01*
X207264734Y-29882053D01*
X255430209Y-29882053D01*
X255460480Y-30208721D01*
X255530663Y-30529190D01*
X255639697Y-30838604D01*
X255785928Y-31132276D01*
X255967140Y-31405753D01*
X256180586Y-31654888D01*
X256423028Y-31875902D01*
X256690793Y-32065449D01*
X256979822Y-32220655D01*
X257285733Y-32339165D01*
X257603889Y-32419185D01*
X257864352Y-32451436D01*
X257929467Y-32459500D01*
X257929468Y-32459500D01*
X260588438Y-32459500D01*
X260588442Y-32459500D01*
X260833942Y-32444358D01*
X261156421Y-32384076D01*
X261469048Y-32284623D01*
X261767083Y-32147505D01*
X262046010Y-31974801D01*
X262301598Y-31769129D01*
X262529975Y-31533608D01*
X262727679Y-31271806D01*
X262891711Y-30987694D01*
X263019586Y-30685577D01*
X263109365Y-30370036D01*
X263159687Y-30045854D01*
X263169790Y-29717945D01*
X263139520Y-29391280D01*
X263069336Y-29070810D01*
X262960302Y-28761394D01*
X262814071Y-28467723D01*
X262632860Y-28194247D01*
X262523320Y-28066392D01*
X262419413Y-27945111D01*
X262176971Y-27724097D01*
X261909207Y-27534551D01*
X261620183Y-27379347D01*
X261620178Y-27379345D01*
X261314267Y-27260835D01*
X260996111Y-27180815D01*
X260996108Y-27180814D01*
X260996106Y-27180814D01*
X260670533Y-27140500D01*
X260670532Y-27140500D01*
X258011558Y-27140500D01*
X257766058Y-27155642D01*
X257658565Y-27175735D01*
X257443577Y-27215924D01*
X257130952Y-27315376D01*
X257130952Y-27315377D01*
X256991914Y-27379345D01*
X256832913Y-27452497D01*
X256553993Y-27625196D01*
X256298401Y-27830871D01*
X256070024Y-28066393D01*
X255872320Y-28328195D01*
X255708287Y-28612307D01*
X255580414Y-28914422D01*
X255490634Y-29229964D01*
X255440312Y-29554143D01*
X255430209Y-29882053D01*
X207264734Y-29882053D01*
X207269790Y-29717945D01*
X207239520Y-29391280D01*
X207169336Y-29070810D01*
X207060302Y-28761394D01*
X206914071Y-28467723D01*
X206732860Y-28194247D01*
X206623320Y-28066392D01*
X206519413Y-27945111D01*
X206276971Y-27724097D01*
X206009207Y-27534551D01*
X205720183Y-27379347D01*
X205720178Y-27379345D01*
X205414267Y-27260835D01*
X205096111Y-27180815D01*
X205096108Y-27180814D01*
X205096106Y-27180814D01*
X204770533Y-27140500D01*
X204770532Y-27140500D01*
X202111558Y-27140500D01*
X201866058Y-27155642D01*
X201758565Y-27175735D01*
X201543577Y-27215924D01*
X201230952Y-27315376D01*
X201230952Y-27315377D01*
X201091914Y-27379345D01*
X200932913Y-27452497D01*
X200653993Y-27625196D01*
X200398401Y-27830871D01*
X200170024Y-28066393D01*
X199972320Y-28328195D01*
X199808287Y-28612307D01*
X199680414Y-28914422D01*
X199590634Y-29229964D01*
X199540312Y-29554143D01*
X199530209Y-29882053D01*
X195930500Y-29882053D01*
X195930500Y-26924500D01*
X195947113Y-26862500D01*
X195992500Y-26817113D01*
X196054500Y-26800500D01*
X266685500Y-26800500D01*
X266747500Y-26817113D01*
G37*
%TD.AperFunction*%
%TD*%
M02*
