M48
; DRILL file {KiCad 7.0.1-0} date 2024 January 26, Friday 10:08:19
; FORMAT={-:-/ absolute / metric / decimal}
; #@! TF.CreationDate,2024-01-26T10:08:19+13:00
; #@! TF.GenerationSoftware,Kicad,Pcbnew,7.0.1-0
; #@! TF.FileFunction,Plated,1,2,PTH
FMAT,2
METRIC
; #@! TA.AperFunction,Plated,PTH,ViaDrill
T1C0.400
; #@! TA.AperFunction,Plated,PTH,ComponentDrill
T2C0.800
; #@! TA.AperFunction,Plated,PTH,ComponentDrill
T3C0.900
; #@! TA.AperFunction,Plated,PTH,ComponentDrill
T4C1.000
; #@! TA.AperFunction,Plated,PTH,ComponentDrill
T5C1.200
; #@! TA.AperFunction,Plated,PTH,ComponentDrill
T6C1.300
%
G90
G05
T1
X24.95Y-69.84
X26.05Y-66.1
X26.36Y-74.62
X27.0Y-70.316
X27.41Y-46.07
X30.17Y-50.94
X30.226Y-101.346
X30.82Y-61.2
X31.203Y-50.713
X31.63Y-47.44
X31.67Y-43.2
X31.75Y-105.918
X31.81Y-67.12
X33.18Y-51.75
X33.3Y-115.82
X33.6Y-60.54
X35.78Y-54.33
X36.16Y-70.81
X38.51Y-101.73
X39.48Y-73.84
X39.96Y-81.863
X40.004Y-83.312
X40.34Y-85.5
X40.89Y-66.95
X41.49Y-101.75
X41.59Y-51.34
X43.9Y-76.76
X44.54Y-71.73
X46.46Y-115.28
X46.54Y-38.56
X47.12Y-87.09
X47.24Y-76.99
X47.28Y-102.45
X47.58Y-69.27
X50.11Y-69.22
X51.22Y-74.08
X51.43Y-41.91
X51.825Y-106.45
X52.286Y-108.77
X52.5Y-66.59
X52.68Y-139.63
X52.945Y-59.689
X52.979Y-133.82
X53.579Y-112.825
X54.59Y-42.17
X54.62Y-135.22
X55.24Y-59.16
X57.72Y-115.18
X57.97Y-102.45
X58.04Y-64.01
X59.27Y-133.98
X63.91Y-74.53
X64.6Y-115.85
X65.33Y-80.9
X68.49Y-75.89
X69.5Y-38.59
X69.775Y-108.75
X69.85Y-42.38
X70.28Y-72.86
X73.0Y-38.9
X73.49Y-42.19
X73.93Y-45.84
X74.54Y-70.57
X74.54Y-79.91
X76.85Y-38.65
X77.28Y-135.52
X83.93Y-48.55
X87.3Y-55.9
X88.14Y-142.14
T2
X23.725Y-37.005
X23.725Y-39.545
X24.511Y-56.1
X24.705Y-140.45
X24.73Y-47.06
X24.73Y-52.14
X26.235Y-43.275
X26.935Y-59.61
X27.051Y-56.1
X27.205Y-140.45
X27.27Y-49.6
X27.525Y-73.31
X27.525Y-75.85
X28.66Y-39.52
X28.775Y-43.275
X29.45Y-62.35
X29.475Y-59.61
X29.805Y-96.0
X29.95Y-46.4
X30.024Y-49.075
X30.435Y-65.45
X31.2Y-36.98
X31.805Y-140.525
X31.905Y-52.92
X32.055Y-98.735
X32.055Y-103.815
X32.205Y-118.0
X32.255Y-55.975
X32.28Y-113.325
X32.345Y-96.0
X32.564Y-49.075
X32.975Y-65.45
X33.415Y-89.87
X33.74Y-39.52
X34.13Y-107.625
X34.305Y-140.525
X34.445Y-52.92
X34.45Y-62.35
X34.595Y-101.275
X34.745Y-118.0
X34.78Y-43.325
X34.795Y-55.975
X34.82Y-113.325
X34.95Y-46.4
X35.18Y-81.385
X35.18Y-86.465
X35.81Y-59.475
X35.955Y-89.87
X36.435Y-65.65
X36.67Y-107.625
X37.255Y-49.825
X37.32Y-43.325
X37.43Y-103.5
X37.485Y-100.075
X37.72Y-83.925
X37.925Y-54.186
X37.925Y-56.726
X38.025Y-132.805
X38.025Y-135.345
X38.025Y-137.775
X38.025Y-142.775
X38.35Y-59.475
X38.549Y-37.26
X38.975Y-65.65
X39.795Y-49.825
X39.97Y-103.5
X40.025Y-100.075
X40.205Y-62.45
X41.0Y-108.75
X41.01Y-56.33
X41.05Y-93.4
X41.089Y-37.26
X41.15Y-44.6
X41.175Y-70.525
X42.075Y-75.585
X42.075Y-78.125
X42.425Y-85.605
X42.425Y-88.145
X42.485Y-127.975
X42.585Y-131.425
X42.711Y-65.625
X42.745Y-62.45
X43.025Y-98.45
X43.025Y-103.45
X43.105Y-52.65
X43.175Y-82.325
X43.349Y-49.7
X43.38Y-124.075
X43.4Y-136.77
X43.4Y-141.77
X43.55Y-58.87
X44.275Y-113.955
X44.275Y-116.495
X44.355Y-119.8
X45.025Y-127.975
X45.125Y-131.425
X45.251Y-65.625
X45.55Y-85.555
X45.55Y-88.095
X45.645Y-52.65
X45.675Y-75.53
X45.675Y-78.07
X45.675Y-100.886
X45.675Y-103.426
X45.715Y-82.325
X45.889Y-49.7
X45.92Y-124.075
X46.0Y-108.75
X46.05Y-93.4
X46.09Y-56.33
X46.15Y-44.6
X46.175Y-70.525
X46.895Y-119.8
X48.53Y-58.1
X48.75Y-85.8
X48.75Y-88.34
X48.75Y-90.88
X48.75Y-93.42
X48.75Y-101.15
X48.75Y-103.69
X48.75Y-106.23
X48.75Y-108.77
X48.75Y-111.31
X48.75Y-113.85
X48.75Y-116.39
X48.9Y-39.525
X48.9Y-42.065
X48.9Y-44.605
X48.9Y-47.145
X48.9Y-49.685
X48.9Y-52.225
X48.9Y-54.765
X48.9Y-62.875
X48.9Y-65.415
X48.9Y-67.955
X48.9Y-70.495
X48.9Y-73.035
X48.9Y-75.575
X48.9Y-78.115
X48.93Y-124.1
X48.93Y-126.64
X48.93Y-129.18
X48.93Y-131.72
X48.93Y-134.26
X48.93Y-136.8
X48.93Y-139.34
X48.93Y-141.88
X51.07Y-58.1
X54.065Y-58.05
X56.37Y-85.8
X56.37Y-88.34
X56.37Y-90.88
X56.37Y-93.42
X56.37Y-101.15
X56.37Y-103.69
X56.37Y-106.23
X56.37Y-108.77
X56.37Y-111.31
X56.37Y-113.85
X56.37Y-116.39
X56.52Y-39.525
X56.52Y-42.065
X56.52Y-44.605
X56.52Y-47.145
X56.52Y-49.685
X56.52Y-52.225
X56.52Y-54.765
X56.52Y-62.875
X56.52Y-65.415
X56.52Y-67.955
X56.52Y-70.495
X56.52Y-73.035
X56.52Y-75.575
X56.52Y-78.115
X56.55Y-124.1
X56.55Y-126.64
X56.55Y-129.18
X56.55Y-131.72
X56.55Y-134.26
X56.55Y-136.8
X56.55Y-139.34
X56.55Y-141.88
X56.605Y-58.05
X59.05Y-85.8
X59.05Y-108.75
X59.2Y-39.5
X59.2Y-70.5
X59.225Y-47.15
X59.33Y-124.1
X59.375Y-114.174
X59.375Y-116.714
X59.425Y-57.6
X59.505Y-95.55
X59.53Y-88.625
X59.536Y-52.175
X59.625Y-101.055
X59.625Y-103.595
X59.65Y-62.33
X59.65Y-64.87
X59.775Y-128.1
X59.805Y-131.425
X60.024Y-78.075
X60.75Y-136.82
X60.75Y-141.82
X61.87Y-124.1
X61.965Y-55.06
X62.045Y-95.55
X62.07Y-88.625
X62.076Y-52.175
X62.125Y-114.225
X62.125Y-119.225
X62.315Y-128.1
X62.345Y-131.425
X62.564Y-78.075
X62.66Y-91.725
X62.875Y-62.78
X62.875Y-65.32
X64.05Y-85.8
X64.05Y-108.75
X64.055Y-101.075
X64.2Y-39.5
X64.2Y-70.5
X64.225Y-47.15
X64.505Y-57.6
X65.2Y-91.725
X65.755Y-78.075
X66.225Y-137.7
X66.225Y-142.7
X66.325Y-132.63
X66.325Y-135.17
X66.455Y-121.25
X66.595Y-101.075
X66.75Y-41.086
X66.75Y-43.626
X66.799Y-49.45
X66.83Y-118.0
X67.055Y-113.125
X67.25Y-46.775
X67.73Y-52.425
X67.774Y-55.675
X68.165Y-37.47
X68.295Y-78.075
X68.63Y-62.65
X68.66Y-67.92
X68.995Y-121.25
X69.339Y-49.45
X69.37Y-118.0
X69.595Y-113.125
X70.049Y-58.775
X70.27Y-52.425
X70.314Y-55.675
X70.375Y-140.625
X70.705Y-37.47
X70.93Y-84.7
X71.17Y-62.65
X71.2Y-65.38
X71.925Y-41.06
X71.925Y-43.6
X72.25Y-46.775
X72.589Y-58.775
X72.875Y-140.625
X73.47Y-84.7
X73.74Y-67.92
X74.005Y-118.535
X74.005Y-123.615
X74.105Y-50.585
X74.105Y-55.665
X75.375Y-38.88
X75.375Y-41.42
X75.425Y-44.58
X75.425Y-47.12
X76.13Y-58.775
X76.545Y-121.075
X76.575Y-140.65
X76.645Y-53.125
X78.67Y-58.775
X79.0Y-55.325
X79.01Y-119.05
X79.075Y-140.65
X79.4Y-99.725
X79.4Y-102.265
X80.3Y-86.952
X80.3Y-89.492
X80.635Y-46.4
X80.73Y-38.435
X80.73Y-43.515
X81.55Y-119.05
X81.735Y-58.775
X82.605Y-50.2
X83.06Y-138.675
X83.065Y-141.89
X83.175Y-46.4
X83.27Y-40.975
X84.0Y-55.325
X84.275Y-58.775
X85.145Y-50.2
X85.55Y-110.225
X85.6Y-138.675
X85.605Y-141.89
X85.795Y-79.575
X87.605Y-74.05
X88.05Y-110.225
X88.055Y-69.05
X88.295Y-79.575
X90.145Y-74.05
X90.595Y-69.05
T3
X72.8Y-71.55
X75.96Y-63.53
T4
X23.25Y-60.88
X23.25Y-63.42
X23.25Y-65.96
X23.25Y-68.5
X23.25Y-71.04
X23.25Y-73.58
X23.25Y-76.12
X23.25Y-78.66
X23.25Y-81.2
X23.25Y-83.74
X23.25Y-86.28
X23.25Y-88.82
X23.25Y-91.36
X23.25Y-93.9
X23.25Y-96.44
X23.25Y-98.98
X23.25Y-101.52
X23.25Y-104.06
X23.25Y-106.6
X23.25Y-109.14
X23.25Y-111.68
X23.25Y-114.22
X23.25Y-116.76
X23.25Y-119.3
X85.51Y-89.565
X85.51Y-92.105
X85.51Y-94.645
X85.51Y-97.185
X85.51Y-99.725
X88.05Y-89.565
X88.05Y-92.105
X88.05Y-94.645
X88.05Y-97.185
X88.05Y-99.725
X90.15Y-37.0
X90.15Y-39.54
X90.15Y-42.08
X90.15Y-44.62
X90.15Y-47.16
X90.15Y-49.7
X90.15Y-52.24
X90.15Y-54.78
X90.15Y-57.32
X90.15Y-59.86
X90.15Y-62.4
X90.15Y-64.94
X90.15Y-115.26
X90.15Y-117.8
X90.15Y-120.34
X90.15Y-122.88
X90.15Y-125.42
X90.15Y-127.96
X90.15Y-130.5
X90.15Y-133.04
X90.15Y-135.58
X90.15Y-138.12
X90.15Y-140.66
X90.15Y-143.2
T5
X79.4Y-106.375
X79.4Y-111.455
X80.2Y-77.585
X80.2Y-82.665
T6
X30.75Y-75.895
X37.75Y-73.395
X37.75Y-78.395
X69.88Y-96.975
X72.38Y-89.975
X74.88Y-96.975
X77.8Y-71.55
X84.8Y-69.05
X84.8Y-74.05
T0
M30
