%TF.GenerationSoftware,KiCad,Pcbnew,7.0.1-0*%
%TF.CreationDate,2024-01-26T10:08:16+13:00*%
%TF.ProjectId,MOL,4d4f4c2e-6b69-4636-9164-5f7063625858,rev?*%
%TF.SameCoordinates,Original*%
%TF.FileFunction,Legend,Bot*%
%TF.FilePolarity,Positive*%
%FSLAX46Y46*%
G04 Gerber Fmt 4.6, Leading zero omitted, Abs format (unit mm)*
G04 Created by KiCad (PCBNEW 7.0.1-0) date 2024-01-26 10:08:16*
%MOMM*%
%LPD*%
G01*
G04 APERTURE LIST*
%ADD10C,0.150000*%
%ADD11C,0.300000*%
%ADD12C,0.120000*%
G04 APERTURE END LIST*
D10*
X27542380Y-133381904D02*
X28542380Y-133381904D01*
X27542380Y-132953333D02*
X28066190Y-132953333D01*
X28066190Y-132953333D02*
X28161428Y-133000952D01*
X28161428Y-133000952D02*
X28209047Y-133096190D01*
X28209047Y-133096190D02*
X28209047Y-133239047D01*
X28209047Y-133239047D02*
X28161428Y-133334285D01*
X28161428Y-133334285D02*
X28113809Y-133381904D01*
X28209047Y-132619999D02*
X28209047Y-132239047D01*
X28542380Y-132477142D02*
X27685238Y-132477142D01*
X27685238Y-132477142D02*
X27590000Y-132429523D01*
X27590000Y-132429523D02*
X27542380Y-132334285D01*
X27542380Y-132334285D02*
X27542380Y-132239047D01*
X28209047Y-132048570D02*
X28209047Y-131667618D01*
X28542380Y-131905713D02*
X27685238Y-131905713D01*
X27685238Y-131905713D02*
X27590000Y-131858094D01*
X27590000Y-131858094D02*
X27542380Y-131762856D01*
X27542380Y-131762856D02*
X27542380Y-131667618D01*
X28209047Y-131334284D02*
X27209047Y-131334284D01*
X28161428Y-131334284D02*
X28209047Y-131239046D01*
X28209047Y-131239046D02*
X28209047Y-131048570D01*
X28209047Y-131048570D02*
X28161428Y-130953332D01*
X28161428Y-130953332D02*
X28113809Y-130905713D01*
X28113809Y-130905713D02*
X28018571Y-130858094D01*
X28018571Y-130858094D02*
X27732857Y-130858094D01*
X27732857Y-130858094D02*
X27637619Y-130905713D01*
X27637619Y-130905713D02*
X27590000Y-130953332D01*
X27590000Y-130953332D02*
X27542380Y-131048570D01*
X27542380Y-131048570D02*
X27542380Y-131239046D01*
X27542380Y-131239046D02*
X27590000Y-131334284D01*
X27590000Y-130477141D02*
X27542380Y-130381903D01*
X27542380Y-130381903D02*
X27542380Y-130191427D01*
X27542380Y-130191427D02*
X27590000Y-130096189D01*
X27590000Y-130096189D02*
X27685238Y-130048570D01*
X27685238Y-130048570D02*
X27732857Y-130048570D01*
X27732857Y-130048570D02*
X27828095Y-130096189D01*
X27828095Y-130096189D02*
X27875714Y-130191427D01*
X27875714Y-130191427D02*
X27875714Y-130334284D01*
X27875714Y-130334284D02*
X27923333Y-130429522D01*
X27923333Y-130429522D02*
X28018571Y-130477141D01*
X28018571Y-130477141D02*
X28066190Y-130477141D01*
X28066190Y-130477141D02*
X28161428Y-130429522D01*
X28161428Y-130429522D02*
X28209047Y-130334284D01*
X28209047Y-130334284D02*
X28209047Y-130191427D01*
X28209047Y-130191427D02*
X28161428Y-130096189D01*
X27637619Y-129619998D02*
X27590000Y-129572379D01*
X27590000Y-129572379D02*
X27542380Y-129619998D01*
X27542380Y-129619998D02*
X27590000Y-129667617D01*
X27590000Y-129667617D02*
X27637619Y-129619998D01*
X27637619Y-129619998D02*
X27542380Y-129619998D01*
X28161428Y-129619998D02*
X28113809Y-129572379D01*
X28113809Y-129572379D02*
X28066190Y-129619998D01*
X28066190Y-129619998D02*
X28113809Y-129667617D01*
X28113809Y-129667617D02*
X28161428Y-129619998D01*
X28161428Y-129619998D02*
X28066190Y-129619998D01*
X28590000Y-128429523D02*
X27304285Y-129286665D01*
X28590000Y-127381904D02*
X27304285Y-128239046D01*
X28209047Y-127143808D02*
X27542380Y-126953332D01*
X27542380Y-126953332D02*
X28018571Y-126762856D01*
X28018571Y-126762856D02*
X27542380Y-126572380D01*
X27542380Y-126572380D02*
X28209047Y-126381904D01*
X28209047Y-126096189D02*
X27542380Y-125905713D01*
X27542380Y-125905713D02*
X28018571Y-125715237D01*
X28018571Y-125715237D02*
X27542380Y-125524761D01*
X27542380Y-125524761D02*
X28209047Y-125334285D01*
X28209047Y-125048570D02*
X27542380Y-124858094D01*
X27542380Y-124858094D02*
X28018571Y-124667618D01*
X28018571Y-124667618D02*
X27542380Y-124477142D01*
X27542380Y-124477142D02*
X28209047Y-124286666D01*
X27637619Y-123905713D02*
X27590000Y-123858094D01*
X27590000Y-123858094D02*
X27542380Y-123905713D01*
X27542380Y-123905713D02*
X27590000Y-123953332D01*
X27590000Y-123953332D02*
X27637619Y-123905713D01*
X27637619Y-123905713D02*
X27542380Y-123905713D01*
X27590000Y-123477142D02*
X27542380Y-123381904D01*
X27542380Y-123381904D02*
X27542380Y-123191428D01*
X27542380Y-123191428D02*
X27590000Y-123096190D01*
X27590000Y-123096190D02*
X27685238Y-123048571D01*
X27685238Y-123048571D02*
X27732857Y-123048571D01*
X27732857Y-123048571D02*
X27828095Y-123096190D01*
X27828095Y-123096190D02*
X27875714Y-123191428D01*
X27875714Y-123191428D02*
X27875714Y-123334285D01*
X27875714Y-123334285D02*
X27923333Y-123429523D01*
X27923333Y-123429523D02*
X28018571Y-123477142D01*
X28018571Y-123477142D02*
X28066190Y-123477142D01*
X28066190Y-123477142D02*
X28161428Y-123429523D01*
X28161428Y-123429523D02*
X28209047Y-123334285D01*
X28209047Y-123334285D02*
X28209047Y-123191428D01*
X28209047Y-123191428D02*
X28161428Y-123096190D01*
X27590000Y-122191428D02*
X27542380Y-122286666D01*
X27542380Y-122286666D02*
X27542380Y-122477142D01*
X27542380Y-122477142D02*
X27590000Y-122572380D01*
X27590000Y-122572380D02*
X27637619Y-122619999D01*
X27637619Y-122619999D02*
X27732857Y-122667618D01*
X27732857Y-122667618D02*
X28018571Y-122667618D01*
X28018571Y-122667618D02*
X28113809Y-122619999D01*
X28113809Y-122619999D02*
X28161428Y-122572380D01*
X28161428Y-122572380D02*
X28209047Y-122477142D01*
X28209047Y-122477142D02*
X28209047Y-122286666D01*
X28209047Y-122286666D02*
X28161428Y-122191428D01*
X27542380Y-121762856D02*
X28209047Y-121762856D01*
X28018571Y-121762856D02*
X28113809Y-121715237D01*
X28113809Y-121715237D02*
X28161428Y-121667618D01*
X28161428Y-121667618D02*
X28209047Y-121572380D01*
X28209047Y-121572380D02*
X28209047Y-121477142D01*
X28209047Y-120715237D02*
X27542380Y-120715237D01*
X28209047Y-121143808D02*
X27685238Y-121143808D01*
X27685238Y-121143808D02*
X27590000Y-121096189D01*
X27590000Y-121096189D02*
X27542380Y-121000951D01*
X27542380Y-121000951D02*
X27542380Y-120858094D01*
X27542380Y-120858094D02*
X27590000Y-120762856D01*
X27590000Y-120762856D02*
X27637619Y-120715237D01*
X28209047Y-120381903D02*
X28209047Y-120000951D01*
X27542380Y-120239046D02*
X28399523Y-120239046D01*
X28399523Y-120239046D02*
X28494761Y-120191427D01*
X28494761Y-120191427D02*
X28542380Y-120096189D01*
X28542380Y-120096189D02*
X28542380Y-120000951D01*
X28209047Y-119810474D02*
X28209047Y-119429522D01*
X27542380Y-119667617D02*
X28399523Y-119667617D01*
X28399523Y-119667617D02*
X28494761Y-119619998D01*
X28494761Y-119619998D02*
X28542380Y-119524760D01*
X28542380Y-119524760D02*
X28542380Y-119429522D01*
X28209047Y-119191426D02*
X27542380Y-118953331D01*
X28209047Y-118715236D02*
X27542380Y-118953331D01*
X27542380Y-118953331D02*
X27304285Y-119048569D01*
X27304285Y-119048569D02*
X27256666Y-119096188D01*
X27256666Y-119096188D02*
X27209047Y-119191426D01*
X27590000Y-117905712D02*
X27542380Y-118000950D01*
X27542380Y-118000950D02*
X27542380Y-118191426D01*
X27542380Y-118191426D02*
X27590000Y-118286664D01*
X27590000Y-118286664D02*
X27637619Y-118334283D01*
X27637619Y-118334283D02*
X27732857Y-118381902D01*
X27732857Y-118381902D02*
X28018571Y-118381902D01*
X28018571Y-118381902D02*
X28113809Y-118334283D01*
X28113809Y-118334283D02*
X28161428Y-118286664D01*
X28161428Y-118286664D02*
X28209047Y-118191426D01*
X28209047Y-118191426D02*
X28209047Y-118000950D01*
X28209047Y-118000950D02*
X28161428Y-117905712D01*
X27542380Y-117048569D02*
X28066190Y-117048569D01*
X28066190Y-117048569D02*
X28161428Y-117096188D01*
X28161428Y-117096188D02*
X28209047Y-117191426D01*
X28209047Y-117191426D02*
X28209047Y-117381902D01*
X28209047Y-117381902D02*
X28161428Y-117477140D01*
X27590000Y-117048569D02*
X27542380Y-117143807D01*
X27542380Y-117143807D02*
X27542380Y-117381902D01*
X27542380Y-117381902D02*
X27590000Y-117477140D01*
X27590000Y-117477140D02*
X27685238Y-117524759D01*
X27685238Y-117524759D02*
X27780476Y-117524759D01*
X27780476Y-117524759D02*
X27875714Y-117477140D01*
X27875714Y-117477140D02*
X27923333Y-117381902D01*
X27923333Y-117381902D02*
X27923333Y-117143807D01*
X27923333Y-117143807D02*
X27970952Y-117048569D01*
X28209047Y-116715235D02*
X28209047Y-116334283D01*
X28542380Y-116572378D02*
X27685238Y-116572378D01*
X27685238Y-116572378D02*
X27590000Y-116524759D01*
X27590000Y-116524759D02*
X27542380Y-116429521D01*
X27542380Y-116429521D02*
X27542380Y-116334283D01*
X27590000Y-116048568D02*
X27542380Y-115953330D01*
X27542380Y-115953330D02*
X27542380Y-115762854D01*
X27542380Y-115762854D02*
X27590000Y-115667616D01*
X27590000Y-115667616D02*
X27685238Y-115619997D01*
X27685238Y-115619997D02*
X27732857Y-115619997D01*
X27732857Y-115619997D02*
X27828095Y-115667616D01*
X27828095Y-115667616D02*
X27875714Y-115762854D01*
X27875714Y-115762854D02*
X27875714Y-115905711D01*
X27875714Y-115905711D02*
X27923333Y-116000949D01*
X27923333Y-116000949D02*
X28018571Y-116048568D01*
X28018571Y-116048568D02*
X28066190Y-116048568D01*
X28066190Y-116048568D02*
X28161428Y-116000949D01*
X28161428Y-116000949D02*
X28209047Y-115905711D01*
X28209047Y-115905711D02*
X28209047Y-115762854D01*
X28209047Y-115762854D02*
X28161428Y-115667616D01*
X28209047Y-115334282D02*
X28209047Y-114953330D01*
X28542380Y-115191425D02*
X27685238Y-115191425D01*
X27685238Y-115191425D02*
X27590000Y-115143806D01*
X27590000Y-115143806D02*
X27542380Y-115048568D01*
X27542380Y-115048568D02*
X27542380Y-114953330D01*
X28209047Y-114191425D02*
X27542380Y-114191425D01*
X28209047Y-114619996D02*
X27685238Y-114619996D01*
X27685238Y-114619996D02*
X27590000Y-114572377D01*
X27590000Y-114572377D02*
X27542380Y-114477139D01*
X27542380Y-114477139D02*
X27542380Y-114334282D01*
X27542380Y-114334282D02*
X27590000Y-114239044D01*
X27590000Y-114239044D02*
X27637619Y-114191425D01*
X27542380Y-113286663D02*
X28542380Y-113286663D01*
X27590000Y-113286663D02*
X27542380Y-113381901D01*
X27542380Y-113381901D02*
X27542380Y-113572377D01*
X27542380Y-113572377D02*
X27590000Y-113667615D01*
X27590000Y-113667615D02*
X27637619Y-113715234D01*
X27637619Y-113715234D02*
X27732857Y-113762853D01*
X27732857Y-113762853D02*
X28018571Y-113762853D01*
X28018571Y-113762853D02*
X28113809Y-113715234D01*
X28113809Y-113715234D02*
X28161428Y-113667615D01*
X28161428Y-113667615D02*
X28209047Y-113572377D01*
X28209047Y-113572377D02*
X28209047Y-113381901D01*
X28209047Y-113381901D02*
X28161428Y-113286663D01*
X27542380Y-112810472D02*
X28209047Y-112810472D01*
X28542380Y-112810472D02*
X28494761Y-112858091D01*
X28494761Y-112858091D02*
X28447142Y-112810472D01*
X28447142Y-112810472D02*
X28494761Y-112762853D01*
X28494761Y-112762853D02*
X28542380Y-112810472D01*
X28542380Y-112810472D02*
X28447142Y-112810472D01*
X27542380Y-112191425D02*
X27590000Y-112286663D01*
X27590000Y-112286663D02*
X27637619Y-112334282D01*
X27637619Y-112334282D02*
X27732857Y-112381901D01*
X27732857Y-112381901D02*
X28018571Y-112381901D01*
X28018571Y-112381901D02*
X28113809Y-112334282D01*
X28113809Y-112334282D02*
X28161428Y-112286663D01*
X28161428Y-112286663D02*
X28209047Y-112191425D01*
X28209047Y-112191425D02*
X28209047Y-112048568D01*
X28209047Y-112048568D02*
X28161428Y-111953330D01*
X28161428Y-111953330D02*
X28113809Y-111905711D01*
X28113809Y-111905711D02*
X28018571Y-111858092D01*
X28018571Y-111858092D02*
X27732857Y-111858092D01*
X27732857Y-111858092D02*
X27637619Y-111905711D01*
X27637619Y-111905711D02*
X27590000Y-111953330D01*
X27590000Y-111953330D02*
X27542380Y-112048568D01*
X27542380Y-112048568D02*
X27542380Y-112191425D01*
X27590000Y-111477139D02*
X27542380Y-111381901D01*
X27542380Y-111381901D02*
X27542380Y-111191425D01*
X27542380Y-111191425D02*
X27590000Y-111096187D01*
X27590000Y-111096187D02*
X27685238Y-111048568D01*
X27685238Y-111048568D02*
X27732857Y-111048568D01*
X27732857Y-111048568D02*
X27828095Y-111096187D01*
X27828095Y-111096187D02*
X27875714Y-111191425D01*
X27875714Y-111191425D02*
X27875714Y-111334282D01*
X27875714Y-111334282D02*
X27923333Y-111429520D01*
X27923333Y-111429520D02*
X28018571Y-111477139D01*
X28018571Y-111477139D02*
X28066190Y-111477139D01*
X28066190Y-111477139D02*
X28161428Y-111429520D01*
X28161428Y-111429520D02*
X28209047Y-111334282D01*
X28209047Y-111334282D02*
X28209047Y-111191425D01*
X28209047Y-111191425D02*
X28161428Y-111096187D01*
X27637619Y-110619996D02*
X27590000Y-110572377D01*
X27590000Y-110572377D02*
X27542380Y-110619996D01*
X27542380Y-110619996D02*
X27590000Y-110667615D01*
X27590000Y-110667615D02*
X27637619Y-110619996D01*
X27637619Y-110619996D02*
X27542380Y-110619996D01*
X27590000Y-109715235D02*
X27542380Y-109810473D01*
X27542380Y-109810473D02*
X27542380Y-110000949D01*
X27542380Y-110000949D02*
X27590000Y-110096187D01*
X27590000Y-110096187D02*
X27637619Y-110143806D01*
X27637619Y-110143806D02*
X27732857Y-110191425D01*
X27732857Y-110191425D02*
X28018571Y-110191425D01*
X28018571Y-110191425D02*
X28113809Y-110143806D01*
X28113809Y-110143806D02*
X28161428Y-110096187D01*
X28161428Y-110096187D02*
X28209047Y-110000949D01*
X28209047Y-110000949D02*
X28209047Y-109810473D01*
X28209047Y-109810473D02*
X28161428Y-109715235D01*
X27542380Y-109143806D02*
X27590000Y-109239044D01*
X27590000Y-109239044D02*
X27637619Y-109286663D01*
X27637619Y-109286663D02*
X27732857Y-109334282D01*
X27732857Y-109334282D02*
X28018571Y-109334282D01*
X28018571Y-109334282D02*
X28113809Y-109286663D01*
X28113809Y-109286663D02*
X28161428Y-109239044D01*
X28161428Y-109239044D02*
X28209047Y-109143806D01*
X28209047Y-109143806D02*
X28209047Y-109000949D01*
X28209047Y-109000949D02*
X28161428Y-108905711D01*
X28161428Y-108905711D02*
X28113809Y-108858092D01*
X28113809Y-108858092D02*
X28018571Y-108810473D01*
X28018571Y-108810473D02*
X27732857Y-108810473D01*
X27732857Y-108810473D02*
X27637619Y-108858092D01*
X27637619Y-108858092D02*
X27590000Y-108905711D01*
X27590000Y-108905711D02*
X27542380Y-109000949D01*
X27542380Y-109000949D02*
X27542380Y-109143806D01*
X27542380Y-108381901D02*
X28209047Y-108381901D01*
X28113809Y-108381901D02*
X28161428Y-108334282D01*
X28161428Y-108334282D02*
X28209047Y-108239044D01*
X28209047Y-108239044D02*
X28209047Y-108096187D01*
X28209047Y-108096187D02*
X28161428Y-108000949D01*
X28161428Y-108000949D02*
X28066190Y-107953330D01*
X28066190Y-107953330D02*
X27542380Y-107953330D01*
X28066190Y-107953330D02*
X28161428Y-107905711D01*
X28161428Y-107905711D02*
X28209047Y-107810473D01*
X28209047Y-107810473D02*
X28209047Y-107667616D01*
X28209047Y-107667616D02*
X28161428Y-107572377D01*
X28161428Y-107572377D02*
X28066190Y-107524758D01*
X28066190Y-107524758D02*
X27542380Y-107524758D01*
X25922380Y-133381904D02*
X26922380Y-133381904D01*
X26922380Y-133381904D02*
X26208095Y-133048571D01*
X26208095Y-133048571D02*
X26922380Y-132715238D01*
X26922380Y-132715238D02*
X25922380Y-132715238D01*
X26922380Y-132048571D02*
X26922380Y-131858095D01*
X26922380Y-131858095D02*
X26874761Y-131762857D01*
X26874761Y-131762857D02*
X26779523Y-131667619D01*
X26779523Y-131667619D02*
X26589047Y-131620000D01*
X26589047Y-131620000D02*
X26255714Y-131620000D01*
X26255714Y-131620000D02*
X26065238Y-131667619D01*
X26065238Y-131667619D02*
X25970000Y-131762857D01*
X25970000Y-131762857D02*
X25922380Y-131858095D01*
X25922380Y-131858095D02*
X25922380Y-132048571D01*
X25922380Y-132048571D02*
X25970000Y-132143809D01*
X25970000Y-132143809D02*
X26065238Y-132239047D01*
X26065238Y-132239047D02*
X26255714Y-132286666D01*
X26255714Y-132286666D02*
X26589047Y-132286666D01*
X26589047Y-132286666D02*
X26779523Y-132239047D01*
X26779523Y-132239047D02*
X26874761Y-132143809D01*
X26874761Y-132143809D02*
X26922380Y-132048571D01*
X25922380Y-130715238D02*
X25922380Y-131191428D01*
X25922380Y-131191428D02*
X26922380Y-131191428D01*
X26303333Y-129619999D02*
X26303333Y-128858095D01*
X25922380Y-127619999D02*
X26589047Y-127619999D01*
X26398571Y-127619999D02*
X26493809Y-127572380D01*
X26493809Y-127572380D02*
X26541428Y-127524761D01*
X26541428Y-127524761D02*
X26589047Y-127429523D01*
X26589047Y-127429523D02*
X26589047Y-127334285D01*
X25970000Y-126619999D02*
X25922380Y-126715237D01*
X25922380Y-126715237D02*
X25922380Y-126905713D01*
X25922380Y-126905713D02*
X25970000Y-127000951D01*
X25970000Y-127000951D02*
X26065238Y-127048570D01*
X26065238Y-127048570D02*
X26446190Y-127048570D01*
X26446190Y-127048570D02*
X26541428Y-127000951D01*
X26541428Y-127000951D02*
X26589047Y-126905713D01*
X26589047Y-126905713D02*
X26589047Y-126715237D01*
X26589047Y-126715237D02*
X26541428Y-126619999D01*
X26541428Y-126619999D02*
X26446190Y-126572380D01*
X26446190Y-126572380D02*
X26350952Y-126572380D01*
X26350952Y-126572380D02*
X26255714Y-127048570D01*
X26589047Y-126239046D02*
X25922380Y-126000951D01*
X25922380Y-126000951D02*
X26589047Y-125762856D01*
X26922380Y-124429522D02*
X26922380Y-124334284D01*
X26922380Y-124334284D02*
X26874761Y-124239046D01*
X26874761Y-124239046D02*
X26827142Y-124191427D01*
X26827142Y-124191427D02*
X26731904Y-124143808D01*
X26731904Y-124143808D02*
X26541428Y-124096189D01*
X26541428Y-124096189D02*
X26303333Y-124096189D01*
X26303333Y-124096189D02*
X26112857Y-124143808D01*
X26112857Y-124143808D02*
X26017619Y-124191427D01*
X26017619Y-124191427D02*
X25970000Y-124239046D01*
X25970000Y-124239046D02*
X25922380Y-124334284D01*
X25922380Y-124334284D02*
X25922380Y-124429522D01*
X25922380Y-124429522D02*
X25970000Y-124524760D01*
X25970000Y-124524760D02*
X26017619Y-124572379D01*
X26017619Y-124572379D02*
X26112857Y-124619998D01*
X26112857Y-124619998D02*
X26303333Y-124667617D01*
X26303333Y-124667617D02*
X26541428Y-124667617D01*
X26541428Y-124667617D02*
X26731904Y-124619998D01*
X26731904Y-124619998D02*
X26827142Y-124572379D01*
X26827142Y-124572379D02*
X26874761Y-124524760D01*
X26874761Y-124524760D02*
X26922380Y-124429522D01*
X26922380Y-123477141D02*
X26922380Y-123381903D01*
X26922380Y-123381903D02*
X26874761Y-123286665D01*
X26874761Y-123286665D02*
X26827142Y-123239046D01*
X26827142Y-123239046D02*
X26731904Y-123191427D01*
X26731904Y-123191427D02*
X26541428Y-123143808D01*
X26541428Y-123143808D02*
X26303333Y-123143808D01*
X26303333Y-123143808D02*
X26112857Y-123191427D01*
X26112857Y-123191427D02*
X26017619Y-123239046D01*
X26017619Y-123239046D02*
X25970000Y-123286665D01*
X25970000Y-123286665D02*
X25922380Y-123381903D01*
X25922380Y-123381903D02*
X25922380Y-123477141D01*
X25922380Y-123477141D02*
X25970000Y-123572379D01*
X25970000Y-123572379D02*
X26017619Y-123619998D01*
X26017619Y-123619998D02*
X26112857Y-123667617D01*
X26112857Y-123667617D02*
X26303333Y-123715236D01*
X26303333Y-123715236D02*
X26541428Y-123715236D01*
X26541428Y-123715236D02*
X26731904Y-123667617D01*
X26731904Y-123667617D02*
X26827142Y-123619998D01*
X26827142Y-123619998D02*
X26874761Y-123572379D01*
X26874761Y-123572379D02*
X26922380Y-123477141D01*
X26827142Y-122762855D02*
X26874761Y-122715236D01*
X26874761Y-122715236D02*
X26922380Y-122619998D01*
X26922380Y-122619998D02*
X26922380Y-122381903D01*
X26922380Y-122381903D02*
X26874761Y-122286665D01*
X26874761Y-122286665D02*
X26827142Y-122239046D01*
X26827142Y-122239046D02*
X26731904Y-122191427D01*
X26731904Y-122191427D02*
X26636666Y-122191427D01*
X26636666Y-122191427D02*
X26493809Y-122239046D01*
X26493809Y-122239046D02*
X25922380Y-122810474D01*
X25922380Y-122810474D02*
X25922380Y-122191427D01*
X25541428Y-120715236D02*
X25589047Y-120762855D01*
X25589047Y-120762855D02*
X25731904Y-120858093D01*
X25731904Y-120858093D02*
X25827142Y-120905712D01*
X25827142Y-120905712D02*
X25970000Y-120953331D01*
X25970000Y-120953331D02*
X26208095Y-121000950D01*
X26208095Y-121000950D02*
X26398571Y-121000950D01*
X26398571Y-121000950D02*
X26636666Y-120953331D01*
X26636666Y-120953331D02*
X26779523Y-120905712D01*
X26779523Y-120905712D02*
X26874761Y-120858093D01*
X26874761Y-120858093D02*
X27017619Y-120762855D01*
X27017619Y-120762855D02*
X27065238Y-120715236D01*
X26827142Y-120381902D02*
X26874761Y-120334283D01*
X26874761Y-120334283D02*
X26922380Y-120239045D01*
X26922380Y-120239045D02*
X26922380Y-120000950D01*
X26922380Y-120000950D02*
X26874761Y-119905712D01*
X26874761Y-119905712D02*
X26827142Y-119858093D01*
X26827142Y-119858093D02*
X26731904Y-119810474D01*
X26731904Y-119810474D02*
X26636666Y-119810474D01*
X26636666Y-119810474D02*
X26493809Y-119858093D01*
X26493809Y-119858093D02*
X25922380Y-120429521D01*
X25922380Y-120429521D02*
X25922380Y-119810474D01*
X26922380Y-119191426D02*
X26922380Y-119096188D01*
X26922380Y-119096188D02*
X26874761Y-119000950D01*
X26874761Y-119000950D02*
X26827142Y-118953331D01*
X26827142Y-118953331D02*
X26731904Y-118905712D01*
X26731904Y-118905712D02*
X26541428Y-118858093D01*
X26541428Y-118858093D02*
X26303333Y-118858093D01*
X26303333Y-118858093D02*
X26112857Y-118905712D01*
X26112857Y-118905712D02*
X26017619Y-118953331D01*
X26017619Y-118953331D02*
X25970000Y-119000950D01*
X25970000Y-119000950D02*
X25922380Y-119096188D01*
X25922380Y-119096188D02*
X25922380Y-119191426D01*
X25922380Y-119191426D02*
X25970000Y-119286664D01*
X25970000Y-119286664D02*
X26017619Y-119334283D01*
X26017619Y-119334283D02*
X26112857Y-119381902D01*
X26112857Y-119381902D02*
X26303333Y-119429521D01*
X26303333Y-119429521D02*
X26541428Y-119429521D01*
X26541428Y-119429521D02*
X26731904Y-119381902D01*
X26731904Y-119381902D02*
X26827142Y-119334283D01*
X26827142Y-119334283D02*
X26874761Y-119286664D01*
X26874761Y-119286664D02*
X26922380Y-119191426D01*
X26827142Y-118477140D02*
X26874761Y-118429521D01*
X26874761Y-118429521D02*
X26922380Y-118334283D01*
X26922380Y-118334283D02*
X26922380Y-118096188D01*
X26922380Y-118096188D02*
X26874761Y-118000950D01*
X26874761Y-118000950D02*
X26827142Y-117953331D01*
X26827142Y-117953331D02*
X26731904Y-117905712D01*
X26731904Y-117905712D02*
X26636666Y-117905712D01*
X26636666Y-117905712D02*
X26493809Y-117953331D01*
X26493809Y-117953331D02*
X25922380Y-118524759D01*
X25922380Y-118524759D02*
X25922380Y-117905712D01*
X26589047Y-117048569D02*
X25922380Y-117048569D01*
X26970000Y-117286664D02*
X26255714Y-117524759D01*
X26255714Y-117524759D02*
X26255714Y-116905712D01*
X25541428Y-116619997D02*
X25589047Y-116572378D01*
X25589047Y-116572378D02*
X25731904Y-116477140D01*
X25731904Y-116477140D02*
X25827142Y-116429521D01*
X25827142Y-116429521D02*
X25970000Y-116381902D01*
X25970000Y-116381902D02*
X26208095Y-116334283D01*
X26208095Y-116334283D02*
X26398571Y-116334283D01*
X26398571Y-116334283D02*
X26636666Y-116381902D01*
X26636666Y-116381902D02*
X26779523Y-116429521D01*
X26779523Y-116429521D02*
X26874761Y-116477140D01*
X26874761Y-116477140D02*
X27017619Y-116572378D01*
X27017619Y-116572378D02*
X27065238Y-116619997D01*
X89444888Y-112150000D02*
X89444888Y-111400000D01*
X89641295Y-79600000D02*
G75*
G03*
X89641295Y-79600000I-2616295J0D01*
G01*
X89069888Y-111775000D02*
X89819888Y-111775000D01*
X84050000Y-78075000D02*
X84800000Y-78075000D01*
X89411183Y-110225000D02*
G75*
G03*
X89411183Y-110225000I-2616295J0D01*
G01*
X84425000Y-78450000D02*
X84425000Y-77700000D01*
D11*
X38282142Y-69766428D02*
X37996428Y-69766428D01*
X37996428Y-69766428D02*
X37853571Y-69837857D01*
X37853571Y-69837857D02*
X37710714Y-69980714D01*
X37710714Y-69980714D02*
X37639285Y-70266428D01*
X37639285Y-70266428D02*
X37639285Y-70766428D01*
X37639285Y-70766428D02*
X37710714Y-71052142D01*
X37710714Y-71052142D02*
X37853571Y-71195000D01*
X37853571Y-71195000D02*
X37996428Y-71266428D01*
X37996428Y-71266428D02*
X38282142Y-71266428D01*
X38282142Y-71266428D02*
X38425000Y-71195000D01*
X38425000Y-71195000D02*
X38567857Y-71052142D01*
X38567857Y-71052142D02*
X38639285Y-70766428D01*
X38639285Y-70766428D02*
X38639285Y-70266428D01*
X38639285Y-70266428D02*
X38567857Y-69980714D01*
X38567857Y-69980714D02*
X38425000Y-69837857D01*
X38425000Y-69837857D02*
X38282142Y-69766428D01*
X37210713Y-70266428D02*
X36639285Y-70266428D01*
X36996428Y-71266428D02*
X36996428Y-69980714D01*
X36996428Y-69980714D02*
X36924999Y-69837857D01*
X36924999Y-69837857D02*
X36782142Y-69766428D01*
X36782142Y-69766428D02*
X36639285Y-69766428D01*
X36353570Y-70266428D02*
X35782142Y-70266428D01*
X36139285Y-71266428D02*
X36139285Y-69980714D01*
X36139285Y-69980714D02*
X36067856Y-69837857D01*
X36067856Y-69837857D02*
X35924999Y-69766428D01*
X35924999Y-69766428D02*
X35782142Y-69766428D01*
X35353570Y-71195000D02*
X35210713Y-71266428D01*
X35210713Y-71266428D02*
X34924999Y-71266428D01*
X34924999Y-71266428D02*
X34782142Y-71195000D01*
X34782142Y-71195000D02*
X34710713Y-71052142D01*
X34710713Y-71052142D02*
X34710713Y-70980714D01*
X34710713Y-70980714D02*
X34782142Y-70837857D01*
X34782142Y-70837857D02*
X34924999Y-70766428D01*
X34924999Y-70766428D02*
X35139285Y-70766428D01*
X35139285Y-70766428D02*
X35282142Y-70695000D01*
X35282142Y-70695000D02*
X35353570Y-70552142D01*
X35353570Y-70552142D02*
X35353570Y-70480714D01*
X35353570Y-70480714D02*
X35282142Y-70337857D01*
X35282142Y-70337857D02*
X35139285Y-70266428D01*
X35139285Y-70266428D02*
X34924999Y-70266428D01*
X34924999Y-70266428D02*
X34782142Y-70337857D01*
X33496427Y-71195000D02*
X33639284Y-71266428D01*
X33639284Y-71266428D02*
X33924999Y-71266428D01*
X33924999Y-71266428D02*
X34067856Y-71195000D01*
X34067856Y-71195000D02*
X34139284Y-71052142D01*
X34139284Y-71052142D02*
X34139284Y-70480714D01*
X34139284Y-70480714D02*
X34067856Y-70337857D01*
X34067856Y-70337857D02*
X33924999Y-70266428D01*
X33924999Y-70266428D02*
X33639284Y-70266428D01*
X33639284Y-70266428D02*
X33496427Y-70337857D01*
X33496427Y-70337857D02*
X33424999Y-70480714D01*
X33424999Y-70480714D02*
X33424999Y-70623571D01*
X33424999Y-70623571D02*
X34139284Y-70766428D01*
X32996427Y-70266428D02*
X32424999Y-70266428D01*
X32782142Y-69766428D02*
X32782142Y-71052142D01*
X32782142Y-71052142D02*
X32710713Y-71195000D01*
X32710713Y-71195000D02*
X32567856Y-71266428D01*
X32567856Y-71266428D02*
X32424999Y-71266428D01*
X30853570Y-70837857D02*
X30139285Y-70837857D01*
X30996427Y-71266428D02*
X30496427Y-69766428D01*
X30496427Y-69766428D02*
X29996427Y-71266428D01*
X76282142Y-86716428D02*
X75996428Y-86716428D01*
X75996428Y-86716428D02*
X75853571Y-86787857D01*
X75853571Y-86787857D02*
X75710714Y-86930714D01*
X75710714Y-86930714D02*
X75639285Y-87216428D01*
X75639285Y-87216428D02*
X75639285Y-87716428D01*
X75639285Y-87716428D02*
X75710714Y-88002142D01*
X75710714Y-88002142D02*
X75853571Y-88145000D01*
X75853571Y-88145000D02*
X75996428Y-88216428D01*
X75996428Y-88216428D02*
X76282142Y-88216428D01*
X76282142Y-88216428D02*
X76425000Y-88145000D01*
X76425000Y-88145000D02*
X76567857Y-88002142D01*
X76567857Y-88002142D02*
X76639285Y-87716428D01*
X76639285Y-87716428D02*
X76639285Y-87216428D01*
X76639285Y-87216428D02*
X76567857Y-86930714D01*
X76567857Y-86930714D02*
X76425000Y-86787857D01*
X76425000Y-86787857D02*
X76282142Y-86716428D01*
X75210713Y-87216428D02*
X74639285Y-87216428D01*
X74996428Y-88216428D02*
X74996428Y-86930714D01*
X74996428Y-86930714D02*
X74924999Y-86787857D01*
X74924999Y-86787857D02*
X74782142Y-86716428D01*
X74782142Y-86716428D02*
X74639285Y-86716428D01*
X74353570Y-87216428D02*
X73782142Y-87216428D01*
X74139285Y-88216428D02*
X74139285Y-86930714D01*
X74139285Y-86930714D02*
X74067856Y-86787857D01*
X74067856Y-86787857D02*
X73924999Y-86716428D01*
X73924999Y-86716428D02*
X73782142Y-86716428D01*
X73353570Y-88145000D02*
X73210713Y-88216428D01*
X73210713Y-88216428D02*
X72924999Y-88216428D01*
X72924999Y-88216428D02*
X72782142Y-88145000D01*
X72782142Y-88145000D02*
X72710713Y-88002142D01*
X72710713Y-88002142D02*
X72710713Y-87930714D01*
X72710713Y-87930714D02*
X72782142Y-87787857D01*
X72782142Y-87787857D02*
X72924999Y-87716428D01*
X72924999Y-87716428D02*
X73139285Y-87716428D01*
X73139285Y-87716428D02*
X73282142Y-87645000D01*
X73282142Y-87645000D02*
X73353570Y-87502142D01*
X73353570Y-87502142D02*
X73353570Y-87430714D01*
X73353570Y-87430714D02*
X73282142Y-87287857D01*
X73282142Y-87287857D02*
X73139285Y-87216428D01*
X73139285Y-87216428D02*
X72924999Y-87216428D01*
X72924999Y-87216428D02*
X72782142Y-87287857D01*
X71496427Y-88145000D02*
X71639284Y-88216428D01*
X71639284Y-88216428D02*
X71924999Y-88216428D01*
X71924999Y-88216428D02*
X72067856Y-88145000D01*
X72067856Y-88145000D02*
X72139284Y-88002142D01*
X72139284Y-88002142D02*
X72139284Y-87430714D01*
X72139284Y-87430714D02*
X72067856Y-87287857D01*
X72067856Y-87287857D02*
X71924999Y-87216428D01*
X71924999Y-87216428D02*
X71639284Y-87216428D01*
X71639284Y-87216428D02*
X71496427Y-87287857D01*
X71496427Y-87287857D02*
X71424999Y-87430714D01*
X71424999Y-87430714D02*
X71424999Y-87573571D01*
X71424999Y-87573571D02*
X72139284Y-87716428D01*
X70996427Y-87216428D02*
X70424999Y-87216428D01*
X70782142Y-86716428D02*
X70782142Y-88002142D01*
X70782142Y-88002142D02*
X70710713Y-88145000D01*
X70710713Y-88145000D02*
X70567856Y-88216428D01*
X70567856Y-88216428D02*
X70424999Y-88216428D01*
X68282142Y-87430714D02*
X68067856Y-87502142D01*
X68067856Y-87502142D02*
X67996427Y-87573571D01*
X67996427Y-87573571D02*
X67924999Y-87716428D01*
X67924999Y-87716428D02*
X67924999Y-87930714D01*
X67924999Y-87930714D02*
X67996427Y-88073571D01*
X67996427Y-88073571D02*
X68067856Y-88145000D01*
X68067856Y-88145000D02*
X68210713Y-88216428D01*
X68210713Y-88216428D02*
X68782142Y-88216428D01*
X68782142Y-88216428D02*
X68782142Y-86716428D01*
X68782142Y-86716428D02*
X68282142Y-86716428D01*
X68282142Y-86716428D02*
X68139285Y-86787857D01*
X68139285Y-86787857D02*
X68067856Y-86859285D01*
X68067856Y-86859285D02*
X67996427Y-87002142D01*
X67996427Y-87002142D02*
X67996427Y-87145000D01*
X67996427Y-87145000D02*
X68067856Y-87287857D01*
X68067856Y-87287857D02*
X68139285Y-87359285D01*
X68139285Y-87359285D02*
X68282142Y-87430714D01*
X68282142Y-87430714D02*
X68782142Y-87430714D01*
X84935714Y-66641428D02*
X85435714Y-65927142D01*
X85792857Y-66641428D02*
X85792857Y-65141428D01*
X85792857Y-65141428D02*
X85221428Y-65141428D01*
X85221428Y-65141428D02*
X85078571Y-65212857D01*
X85078571Y-65212857D02*
X85007142Y-65284285D01*
X85007142Y-65284285D02*
X84935714Y-65427142D01*
X84935714Y-65427142D02*
X84935714Y-65641428D01*
X84935714Y-65641428D02*
X85007142Y-65784285D01*
X85007142Y-65784285D02*
X85078571Y-65855714D01*
X85078571Y-65855714D02*
X85221428Y-65927142D01*
X85221428Y-65927142D02*
X85792857Y-65927142D01*
X83721428Y-66570000D02*
X83864285Y-66641428D01*
X83864285Y-66641428D02*
X84150000Y-66641428D01*
X84150000Y-66641428D02*
X84292857Y-66570000D01*
X84292857Y-66570000D02*
X84364285Y-66427142D01*
X84364285Y-66427142D02*
X84364285Y-65855714D01*
X84364285Y-65855714D02*
X84292857Y-65712857D01*
X84292857Y-65712857D02*
X84150000Y-65641428D01*
X84150000Y-65641428D02*
X83864285Y-65641428D01*
X83864285Y-65641428D02*
X83721428Y-65712857D01*
X83721428Y-65712857D02*
X83650000Y-65855714D01*
X83650000Y-65855714D02*
X83650000Y-65998571D01*
X83650000Y-65998571D02*
X84364285Y-66141428D01*
X83221428Y-65641428D02*
X82650000Y-65641428D01*
X83007143Y-66641428D02*
X83007143Y-65355714D01*
X83007143Y-65355714D02*
X82935714Y-65212857D01*
X82935714Y-65212857D02*
X82792857Y-65141428D01*
X82792857Y-65141428D02*
X82650000Y-65141428D01*
X82507143Y-66784285D02*
X81364285Y-66784285D01*
X81078571Y-66212857D02*
X80364286Y-66212857D01*
X81221428Y-66641428D02*
X80721428Y-65141428D01*
X80721428Y-65141428D02*
X80221428Y-66641428D01*
X79078572Y-66641428D02*
X79078572Y-65141428D01*
X79078572Y-66570000D02*
X79221429Y-66641428D01*
X79221429Y-66641428D02*
X79507143Y-66641428D01*
X79507143Y-66641428D02*
X79650000Y-66570000D01*
X79650000Y-66570000D02*
X79721429Y-66498571D01*
X79721429Y-66498571D02*
X79792857Y-66355714D01*
X79792857Y-66355714D02*
X79792857Y-65927142D01*
X79792857Y-65927142D02*
X79721429Y-65784285D01*
X79721429Y-65784285D02*
X79650000Y-65712857D01*
X79650000Y-65712857D02*
X79507143Y-65641428D01*
X79507143Y-65641428D02*
X79221429Y-65641428D01*
X79221429Y-65641428D02*
X79078572Y-65712857D01*
X78364286Y-65641428D02*
X78364286Y-66927142D01*
X78364286Y-66927142D02*
X78435714Y-67070000D01*
X78435714Y-67070000D02*
X78578571Y-67141428D01*
X78578571Y-67141428D02*
X78650000Y-67141428D01*
X78364286Y-65141428D02*
X78435714Y-65212857D01*
X78435714Y-65212857D02*
X78364286Y-65284285D01*
X78364286Y-65284285D02*
X78292857Y-65212857D01*
X78292857Y-65212857D02*
X78364286Y-65141428D01*
X78364286Y-65141428D02*
X78364286Y-65284285D01*
D10*
%TO.C,J1*%
X87113333Y-105287619D02*
X87113333Y-106001904D01*
X87113333Y-106001904D02*
X87160952Y-106144761D01*
X87160952Y-106144761D02*
X87256190Y-106240000D01*
X87256190Y-106240000D02*
X87399047Y-106287619D01*
X87399047Y-106287619D02*
X87494285Y-106287619D01*
X86113333Y-106287619D02*
X86684761Y-106287619D01*
X86399047Y-106287619D02*
X86399047Y-105287619D01*
X86399047Y-105287619D02*
X86494285Y-105430476D01*
X86494285Y-105430476D02*
X86589523Y-105525714D01*
X86589523Y-105525714D02*
X86684761Y-105573333D01*
%TO.C,TP1-(5v)1*%
X76680952Y-72962619D02*
X76109524Y-72962619D01*
X76395238Y-73962619D02*
X76395238Y-72962619D01*
X75776190Y-73962619D02*
X75776190Y-72962619D01*
X75776190Y-72962619D02*
X75395238Y-72962619D01*
X75395238Y-72962619D02*
X75300000Y-73010238D01*
X75300000Y-73010238D02*
X75252381Y-73057857D01*
X75252381Y-73057857D02*
X75204762Y-73153095D01*
X75204762Y-73153095D02*
X75204762Y-73295952D01*
X75204762Y-73295952D02*
X75252381Y-73391190D01*
X75252381Y-73391190D02*
X75300000Y-73438809D01*
X75300000Y-73438809D02*
X75395238Y-73486428D01*
X75395238Y-73486428D02*
X75776190Y-73486428D01*
X74252381Y-73962619D02*
X74823809Y-73962619D01*
X74538095Y-73962619D02*
X74538095Y-72962619D01*
X74538095Y-72962619D02*
X74633333Y-73105476D01*
X74633333Y-73105476D02*
X74728571Y-73200714D01*
X74728571Y-73200714D02*
X74823809Y-73248333D01*
X73823809Y-73581666D02*
X73061905Y-73581666D01*
X72300000Y-74343571D02*
X72347619Y-74295952D01*
X72347619Y-74295952D02*
X72442857Y-74153095D01*
X72442857Y-74153095D02*
X72490476Y-74057857D01*
X72490476Y-74057857D02*
X72538095Y-73915000D01*
X72538095Y-73915000D02*
X72585714Y-73676904D01*
X72585714Y-73676904D02*
X72585714Y-73486428D01*
X72585714Y-73486428D02*
X72538095Y-73248333D01*
X72538095Y-73248333D02*
X72490476Y-73105476D01*
X72490476Y-73105476D02*
X72442857Y-73010238D01*
X72442857Y-73010238D02*
X72347619Y-72867380D01*
X72347619Y-72867380D02*
X72300000Y-72819761D01*
X71442857Y-72962619D02*
X71919047Y-72962619D01*
X71919047Y-72962619D02*
X71966666Y-73438809D01*
X71966666Y-73438809D02*
X71919047Y-73391190D01*
X71919047Y-73391190D02*
X71823809Y-73343571D01*
X71823809Y-73343571D02*
X71585714Y-73343571D01*
X71585714Y-73343571D02*
X71490476Y-73391190D01*
X71490476Y-73391190D02*
X71442857Y-73438809D01*
X71442857Y-73438809D02*
X71395238Y-73534047D01*
X71395238Y-73534047D02*
X71395238Y-73772142D01*
X71395238Y-73772142D02*
X71442857Y-73867380D01*
X71442857Y-73867380D02*
X71490476Y-73915000D01*
X71490476Y-73915000D02*
X71585714Y-73962619D01*
X71585714Y-73962619D02*
X71823809Y-73962619D01*
X71823809Y-73962619D02*
X71919047Y-73915000D01*
X71919047Y-73915000D02*
X71966666Y-73867380D01*
X71061904Y-73295952D02*
X70823809Y-73962619D01*
X70823809Y-73962619D02*
X70585714Y-73295952D01*
X70299999Y-74343571D02*
X70252380Y-74295952D01*
X70252380Y-74295952D02*
X70157142Y-74153095D01*
X70157142Y-74153095D02*
X70109523Y-74057857D01*
X70109523Y-74057857D02*
X70061904Y-73915000D01*
X70061904Y-73915000D02*
X70014285Y-73676904D01*
X70014285Y-73676904D02*
X70014285Y-73486428D01*
X70014285Y-73486428D02*
X70061904Y-73248333D01*
X70061904Y-73248333D02*
X70109523Y-73105476D01*
X70109523Y-73105476D02*
X70157142Y-73010238D01*
X70157142Y-73010238D02*
X70252380Y-72867380D01*
X70252380Y-72867380D02*
X70299999Y-72819761D01*
X69014285Y-73962619D02*
X69585713Y-73962619D01*
X69299999Y-73962619D02*
X69299999Y-72962619D01*
X69299999Y-72962619D02*
X69395237Y-73105476D01*
X69395237Y-73105476D02*
X69490475Y-73200714D01*
X69490475Y-73200714D02*
X69585713Y-73248333D01*
%TO.C,TP1-(GND)1*%
X82067618Y-60982619D02*
X81496190Y-60982619D01*
X81781904Y-61982619D02*
X81781904Y-60982619D01*
X81162856Y-61982619D02*
X81162856Y-60982619D01*
X81162856Y-60982619D02*
X80781904Y-60982619D01*
X80781904Y-60982619D02*
X80686666Y-61030238D01*
X80686666Y-61030238D02*
X80639047Y-61077857D01*
X80639047Y-61077857D02*
X80591428Y-61173095D01*
X80591428Y-61173095D02*
X80591428Y-61315952D01*
X80591428Y-61315952D02*
X80639047Y-61411190D01*
X80639047Y-61411190D02*
X80686666Y-61458809D01*
X80686666Y-61458809D02*
X80781904Y-61506428D01*
X80781904Y-61506428D02*
X81162856Y-61506428D01*
X79639047Y-61982619D02*
X80210475Y-61982619D01*
X79924761Y-61982619D02*
X79924761Y-60982619D01*
X79924761Y-60982619D02*
X80019999Y-61125476D01*
X80019999Y-61125476D02*
X80115237Y-61220714D01*
X80115237Y-61220714D02*
X80210475Y-61268333D01*
X79210475Y-61601666D02*
X78448571Y-61601666D01*
X77686666Y-62363571D02*
X77734285Y-62315952D01*
X77734285Y-62315952D02*
X77829523Y-62173095D01*
X77829523Y-62173095D02*
X77877142Y-62077857D01*
X77877142Y-62077857D02*
X77924761Y-61935000D01*
X77924761Y-61935000D02*
X77972380Y-61696904D01*
X77972380Y-61696904D02*
X77972380Y-61506428D01*
X77972380Y-61506428D02*
X77924761Y-61268333D01*
X77924761Y-61268333D02*
X77877142Y-61125476D01*
X77877142Y-61125476D02*
X77829523Y-61030238D01*
X77829523Y-61030238D02*
X77734285Y-60887380D01*
X77734285Y-60887380D02*
X77686666Y-60839761D01*
X76781904Y-61030238D02*
X76877142Y-60982619D01*
X76877142Y-60982619D02*
X77019999Y-60982619D01*
X77019999Y-60982619D02*
X77162856Y-61030238D01*
X77162856Y-61030238D02*
X77258094Y-61125476D01*
X77258094Y-61125476D02*
X77305713Y-61220714D01*
X77305713Y-61220714D02*
X77353332Y-61411190D01*
X77353332Y-61411190D02*
X77353332Y-61554047D01*
X77353332Y-61554047D02*
X77305713Y-61744523D01*
X77305713Y-61744523D02*
X77258094Y-61839761D01*
X77258094Y-61839761D02*
X77162856Y-61935000D01*
X77162856Y-61935000D02*
X77019999Y-61982619D01*
X77019999Y-61982619D02*
X76924761Y-61982619D01*
X76924761Y-61982619D02*
X76781904Y-61935000D01*
X76781904Y-61935000D02*
X76734285Y-61887380D01*
X76734285Y-61887380D02*
X76734285Y-61554047D01*
X76734285Y-61554047D02*
X76924761Y-61554047D01*
X76305713Y-61982619D02*
X76305713Y-60982619D01*
X76305713Y-60982619D02*
X75734285Y-61982619D01*
X75734285Y-61982619D02*
X75734285Y-60982619D01*
X75258094Y-61982619D02*
X75258094Y-60982619D01*
X75258094Y-60982619D02*
X75019999Y-60982619D01*
X75019999Y-60982619D02*
X74877142Y-61030238D01*
X74877142Y-61030238D02*
X74781904Y-61125476D01*
X74781904Y-61125476D02*
X74734285Y-61220714D01*
X74734285Y-61220714D02*
X74686666Y-61411190D01*
X74686666Y-61411190D02*
X74686666Y-61554047D01*
X74686666Y-61554047D02*
X74734285Y-61744523D01*
X74734285Y-61744523D02*
X74781904Y-61839761D01*
X74781904Y-61839761D02*
X74877142Y-61935000D01*
X74877142Y-61935000D02*
X75019999Y-61982619D01*
X75019999Y-61982619D02*
X75258094Y-61982619D01*
X74353332Y-62363571D02*
X74305713Y-62315952D01*
X74305713Y-62315952D02*
X74210475Y-62173095D01*
X74210475Y-62173095D02*
X74162856Y-62077857D01*
X74162856Y-62077857D02*
X74115237Y-61935000D01*
X74115237Y-61935000D02*
X74067618Y-61696904D01*
X74067618Y-61696904D02*
X74067618Y-61506428D01*
X74067618Y-61506428D02*
X74115237Y-61268333D01*
X74115237Y-61268333D02*
X74162856Y-61125476D01*
X74162856Y-61125476D02*
X74210475Y-61030238D01*
X74210475Y-61030238D02*
X74305713Y-60887380D01*
X74305713Y-60887380D02*
X74353332Y-60839761D01*
X73067618Y-61982619D02*
X73639046Y-61982619D01*
X73353332Y-61982619D02*
X73353332Y-60982619D01*
X73353332Y-60982619D02*
X73448570Y-61125476D01*
X73448570Y-61125476D02*
X73543808Y-61220714D01*
X73543808Y-61220714D02*
X73639046Y-61268333D01*
D12*
%TO.C,J1*%
X91340000Y-104935000D02*
X91340000Y-84355000D01*
X91340000Y-84355000D02*
X82220000Y-84355000D01*
X90030000Y-103635000D02*
X90030000Y-85655000D01*
X90030000Y-85655000D02*
X83530000Y-85655000D01*
X83530000Y-103635000D02*
X90030000Y-103635000D01*
X83530000Y-96695000D02*
X83530000Y-103635000D01*
X83530000Y-92595000D02*
X83530000Y-92595000D01*
X83530000Y-92595000D02*
X82220000Y-92595000D01*
X83530000Y-85655000D02*
X83530000Y-92595000D01*
X82220000Y-104935000D02*
X91340000Y-104935000D01*
X82220000Y-96695000D02*
X83530000Y-96695000D01*
X82220000Y-84355000D02*
X82220000Y-104935000D01*
X81830000Y-99725000D02*
X80830000Y-100225000D01*
X80830000Y-100225000D02*
X80830000Y-99225000D01*
X80830000Y-99225000D02*
X81830000Y-99725000D01*
%TO.C,TP1-(5v)1*%
X71500000Y-70450000D02*
X74100000Y-70450000D01*
X71500000Y-72650000D02*
X71500000Y-70450000D01*
X74100000Y-70450000D02*
X74100000Y-72150000D01*
X74100000Y-72150000D02*
X74100000Y-72650000D01*
X74100000Y-72650000D02*
X71500000Y-72650000D01*
%TO.C,TP1-(GND)1*%
X74660000Y-62430000D02*
X77260000Y-62430000D01*
X74660000Y-64630000D02*
X74660000Y-62430000D01*
X77260000Y-62430000D02*
X77260000Y-64130000D01*
X77260000Y-64130000D02*
X77260000Y-64630000D01*
X77260000Y-64630000D02*
X74660000Y-64630000D01*
%TD*%
M02*
