%TF.GenerationSoftware,KiCad,Pcbnew,7.0.1-0*%
%TF.CreationDate,2024-01-08T18:39:07+13:00*%
%TF.ProjectId,MOL-main,4d4f4c2d-6d61-4696-9e2e-6b696361645f,001*%
%TF.SameCoordinates,Original*%
%TF.FileFunction,Legend,Bot*%
%TF.FilePolarity,Positive*%
%FSLAX46Y46*%
G04 Gerber Fmt 4.6, Leading zero omitted, Abs format (unit mm)*
G04 Created by KiCad (PCBNEW 7.0.1-0) date 2024-01-08 18:39:07*
%MOMM*%
%LPD*%
G01*
G04 APERTURE LIST*
%ADD10C,0.150000*%
%ADD11C,0.300000*%
%ADD12C,0.120000*%
G04 APERTURE END LIST*
D10*
X89444888Y-112150000D02*
X89444888Y-111400000D01*
X89641295Y-79600000D02*
G75*
G03*
X89641295Y-79600000I-2616295J0D01*
G01*
X89069888Y-111775000D02*
X89819888Y-111775000D01*
X84050000Y-78075000D02*
X84800000Y-78075000D01*
X89411183Y-110225000D02*
G75*
G03*
X89411183Y-110225000I-2616295J0D01*
G01*
X84425000Y-78450000D02*
X84425000Y-77700000D01*
D11*
X38282142Y-69766428D02*
X37996428Y-69766428D01*
X37996428Y-69766428D02*
X37853571Y-69837857D01*
X37853571Y-69837857D02*
X37710714Y-69980714D01*
X37710714Y-69980714D02*
X37639285Y-70266428D01*
X37639285Y-70266428D02*
X37639285Y-70766428D01*
X37639285Y-70766428D02*
X37710714Y-71052142D01*
X37710714Y-71052142D02*
X37853571Y-71195000D01*
X37853571Y-71195000D02*
X37996428Y-71266428D01*
X37996428Y-71266428D02*
X38282142Y-71266428D01*
X38282142Y-71266428D02*
X38425000Y-71195000D01*
X38425000Y-71195000D02*
X38567857Y-71052142D01*
X38567857Y-71052142D02*
X38639285Y-70766428D01*
X38639285Y-70766428D02*
X38639285Y-70266428D01*
X38639285Y-70266428D02*
X38567857Y-69980714D01*
X38567857Y-69980714D02*
X38425000Y-69837857D01*
X38425000Y-69837857D02*
X38282142Y-69766428D01*
X37210713Y-70266428D02*
X36639285Y-70266428D01*
X36996428Y-71266428D02*
X36996428Y-69980714D01*
X36996428Y-69980714D02*
X36924999Y-69837857D01*
X36924999Y-69837857D02*
X36782142Y-69766428D01*
X36782142Y-69766428D02*
X36639285Y-69766428D01*
X36353570Y-70266428D02*
X35782142Y-70266428D01*
X36139285Y-71266428D02*
X36139285Y-69980714D01*
X36139285Y-69980714D02*
X36067856Y-69837857D01*
X36067856Y-69837857D02*
X35924999Y-69766428D01*
X35924999Y-69766428D02*
X35782142Y-69766428D01*
X35353570Y-71195000D02*
X35210713Y-71266428D01*
X35210713Y-71266428D02*
X34924999Y-71266428D01*
X34924999Y-71266428D02*
X34782142Y-71195000D01*
X34782142Y-71195000D02*
X34710713Y-71052142D01*
X34710713Y-71052142D02*
X34710713Y-70980714D01*
X34710713Y-70980714D02*
X34782142Y-70837857D01*
X34782142Y-70837857D02*
X34924999Y-70766428D01*
X34924999Y-70766428D02*
X35139285Y-70766428D01*
X35139285Y-70766428D02*
X35282142Y-70695000D01*
X35282142Y-70695000D02*
X35353570Y-70552142D01*
X35353570Y-70552142D02*
X35353570Y-70480714D01*
X35353570Y-70480714D02*
X35282142Y-70337857D01*
X35282142Y-70337857D02*
X35139285Y-70266428D01*
X35139285Y-70266428D02*
X34924999Y-70266428D01*
X34924999Y-70266428D02*
X34782142Y-70337857D01*
X33496427Y-71195000D02*
X33639284Y-71266428D01*
X33639284Y-71266428D02*
X33924999Y-71266428D01*
X33924999Y-71266428D02*
X34067856Y-71195000D01*
X34067856Y-71195000D02*
X34139284Y-71052142D01*
X34139284Y-71052142D02*
X34139284Y-70480714D01*
X34139284Y-70480714D02*
X34067856Y-70337857D01*
X34067856Y-70337857D02*
X33924999Y-70266428D01*
X33924999Y-70266428D02*
X33639284Y-70266428D01*
X33639284Y-70266428D02*
X33496427Y-70337857D01*
X33496427Y-70337857D02*
X33424999Y-70480714D01*
X33424999Y-70480714D02*
X33424999Y-70623571D01*
X33424999Y-70623571D02*
X34139284Y-70766428D01*
X32996427Y-70266428D02*
X32424999Y-70266428D01*
X32782142Y-69766428D02*
X32782142Y-71052142D01*
X32782142Y-71052142D02*
X32710713Y-71195000D01*
X32710713Y-71195000D02*
X32567856Y-71266428D01*
X32567856Y-71266428D02*
X32424999Y-71266428D01*
X30853570Y-70837857D02*
X30139285Y-70837857D01*
X30996427Y-71266428D02*
X30496427Y-69766428D01*
X30496427Y-69766428D02*
X29996427Y-71266428D01*
X76282142Y-86716428D02*
X75996428Y-86716428D01*
X75996428Y-86716428D02*
X75853571Y-86787857D01*
X75853571Y-86787857D02*
X75710714Y-86930714D01*
X75710714Y-86930714D02*
X75639285Y-87216428D01*
X75639285Y-87216428D02*
X75639285Y-87716428D01*
X75639285Y-87716428D02*
X75710714Y-88002142D01*
X75710714Y-88002142D02*
X75853571Y-88145000D01*
X75853571Y-88145000D02*
X75996428Y-88216428D01*
X75996428Y-88216428D02*
X76282142Y-88216428D01*
X76282142Y-88216428D02*
X76425000Y-88145000D01*
X76425000Y-88145000D02*
X76567857Y-88002142D01*
X76567857Y-88002142D02*
X76639285Y-87716428D01*
X76639285Y-87716428D02*
X76639285Y-87216428D01*
X76639285Y-87216428D02*
X76567857Y-86930714D01*
X76567857Y-86930714D02*
X76425000Y-86787857D01*
X76425000Y-86787857D02*
X76282142Y-86716428D01*
X75210713Y-87216428D02*
X74639285Y-87216428D01*
X74996428Y-88216428D02*
X74996428Y-86930714D01*
X74996428Y-86930714D02*
X74924999Y-86787857D01*
X74924999Y-86787857D02*
X74782142Y-86716428D01*
X74782142Y-86716428D02*
X74639285Y-86716428D01*
X74353570Y-87216428D02*
X73782142Y-87216428D01*
X74139285Y-88216428D02*
X74139285Y-86930714D01*
X74139285Y-86930714D02*
X74067856Y-86787857D01*
X74067856Y-86787857D02*
X73924999Y-86716428D01*
X73924999Y-86716428D02*
X73782142Y-86716428D01*
X73353570Y-88145000D02*
X73210713Y-88216428D01*
X73210713Y-88216428D02*
X72924999Y-88216428D01*
X72924999Y-88216428D02*
X72782142Y-88145000D01*
X72782142Y-88145000D02*
X72710713Y-88002142D01*
X72710713Y-88002142D02*
X72710713Y-87930714D01*
X72710713Y-87930714D02*
X72782142Y-87787857D01*
X72782142Y-87787857D02*
X72924999Y-87716428D01*
X72924999Y-87716428D02*
X73139285Y-87716428D01*
X73139285Y-87716428D02*
X73282142Y-87645000D01*
X73282142Y-87645000D02*
X73353570Y-87502142D01*
X73353570Y-87502142D02*
X73353570Y-87430714D01*
X73353570Y-87430714D02*
X73282142Y-87287857D01*
X73282142Y-87287857D02*
X73139285Y-87216428D01*
X73139285Y-87216428D02*
X72924999Y-87216428D01*
X72924999Y-87216428D02*
X72782142Y-87287857D01*
X71496427Y-88145000D02*
X71639284Y-88216428D01*
X71639284Y-88216428D02*
X71924999Y-88216428D01*
X71924999Y-88216428D02*
X72067856Y-88145000D01*
X72067856Y-88145000D02*
X72139284Y-88002142D01*
X72139284Y-88002142D02*
X72139284Y-87430714D01*
X72139284Y-87430714D02*
X72067856Y-87287857D01*
X72067856Y-87287857D02*
X71924999Y-87216428D01*
X71924999Y-87216428D02*
X71639284Y-87216428D01*
X71639284Y-87216428D02*
X71496427Y-87287857D01*
X71496427Y-87287857D02*
X71424999Y-87430714D01*
X71424999Y-87430714D02*
X71424999Y-87573571D01*
X71424999Y-87573571D02*
X72139284Y-87716428D01*
X70996427Y-87216428D02*
X70424999Y-87216428D01*
X70782142Y-86716428D02*
X70782142Y-88002142D01*
X70782142Y-88002142D02*
X70710713Y-88145000D01*
X70710713Y-88145000D02*
X70567856Y-88216428D01*
X70567856Y-88216428D02*
X70424999Y-88216428D01*
X68282142Y-87430714D02*
X68067856Y-87502142D01*
X68067856Y-87502142D02*
X67996427Y-87573571D01*
X67996427Y-87573571D02*
X67924999Y-87716428D01*
X67924999Y-87716428D02*
X67924999Y-87930714D01*
X67924999Y-87930714D02*
X67996427Y-88073571D01*
X67996427Y-88073571D02*
X68067856Y-88145000D01*
X68067856Y-88145000D02*
X68210713Y-88216428D01*
X68210713Y-88216428D02*
X68782142Y-88216428D01*
X68782142Y-88216428D02*
X68782142Y-86716428D01*
X68782142Y-86716428D02*
X68282142Y-86716428D01*
X68282142Y-86716428D02*
X68139285Y-86787857D01*
X68139285Y-86787857D02*
X68067856Y-86859285D01*
X68067856Y-86859285D02*
X67996427Y-87002142D01*
X67996427Y-87002142D02*
X67996427Y-87145000D01*
X67996427Y-87145000D02*
X68067856Y-87287857D01*
X68067856Y-87287857D02*
X68139285Y-87359285D01*
X68139285Y-87359285D02*
X68282142Y-87430714D01*
X68282142Y-87430714D02*
X68782142Y-87430714D01*
X84935714Y-66641428D02*
X85435714Y-65927142D01*
X85792857Y-66641428D02*
X85792857Y-65141428D01*
X85792857Y-65141428D02*
X85221428Y-65141428D01*
X85221428Y-65141428D02*
X85078571Y-65212857D01*
X85078571Y-65212857D02*
X85007142Y-65284285D01*
X85007142Y-65284285D02*
X84935714Y-65427142D01*
X84935714Y-65427142D02*
X84935714Y-65641428D01*
X84935714Y-65641428D02*
X85007142Y-65784285D01*
X85007142Y-65784285D02*
X85078571Y-65855714D01*
X85078571Y-65855714D02*
X85221428Y-65927142D01*
X85221428Y-65927142D02*
X85792857Y-65927142D01*
X83721428Y-66570000D02*
X83864285Y-66641428D01*
X83864285Y-66641428D02*
X84150000Y-66641428D01*
X84150000Y-66641428D02*
X84292857Y-66570000D01*
X84292857Y-66570000D02*
X84364285Y-66427142D01*
X84364285Y-66427142D02*
X84364285Y-65855714D01*
X84364285Y-65855714D02*
X84292857Y-65712857D01*
X84292857Y-65712857D02*
X84150000Y-65641428D01*
X84150000Y-65641428D02*
X83864285Y-65641428D01*
X83864285Y-65641428D02*
X83721428Y-65712857D01*
X83721428Y-65712857D02*
X83650000Y-65855714D01*
X83650000Y-65855714D02*
X83650000Y-65998571D01*
X83650000Y-65998571D02*
X84364285Y-66141428D01*
X83221428Y-65641428D02*
X82650000Y-65641428D01*
X83007143Y-66641428D02*
X83007143Y-65355714D01*
X83007143Y-65355714D02*
X82935714Y-65212857D01*
X82935714Y-65212857D02*
X82792857Y-65141428D01*
X82792857Y-65141428D02*
X82650000Y-65141428D01*
X82507143Y-66784285D02*
X81364285Y-66784285D01*
X81078571Y-66212857D02*
X80364286Y-66212857D01*
X81221428Y-66641428D02*
X80721428Y-65141428D01*
X80721428Y-65141428D02*
X80221428Y-66641428D01*
X79078572Y-66641428D02*
X79078572Y-65141428D01*
X79078572Y-66570000D02*
X79221429Y-66641428D01*
X79221429Y-66641428D02*
X79507143Y-66641428D01*
X79507143Y-66641428D02*
X79650000Y-66570000D01*
X79650000Y-66570000D02*
X79721429Y-66498571D01*
X79721429Y-66498571D02*
X79792857Y-66355714D01*
X79792857Y-66355714D02*
X79792857Y-65927142D01*
X79792857Y-65927142D02*
X79721429Y-65784285D01*
X79721429Y-65784285D02*
X79650000Y-65712857D01*
X79650000Y-65712857D02*
X79507143Y-65641428D01*
X79507143Y-65641428D02*
X79221429Y-65641428D01*
X79221429Y-65641428D02*
X79078572Y-65712857D01*
X78364286Y-65641428D02*
X78364286Y-66927142D01*
X78364286Y-66927142D02*
X78435714Y-67070000D01*
X78435714Y-67070000D02*
X78578571Y-67141428D01*
X78578571Y-67141428D02*
X78650000Y-67141428D01*
X78364286Y-65141428D02*
X78435714Y-65212857D01*
X78435714Y-65212857D02*
X78364286Y-65284285D01*
X78364286Y-65284285D02*
X78292857Y-65212857D01*
X78292857Y-65212857D02*
X78364286Y-65141428D01*
X78364286Y-65141428D02*
X78364286Y-65284285D01*
D10*
%TO.C,J1*%
X87113333Y-105287619D02*
X87113333Y-106001904D01*
X87113333Y-106001904D02*
X87160952Y-106144761D01*
X87160952Y-106144761D02*
X87256190Y-106240000D01*
X87256190Y-106240000D02*
X87399047Y-106287619D01*
X87399047Y-106287619D02*
X87494285Y-106287619D01*
X86113333Y-106287619D02*
X86684761Y-106287619D01*
X86399047Y-106287619D02*
X86399047Y-105287619D01*
X86399047Y-105287619D02*
X86494285Y-105430476D01*
X86494285Y-105430476D02*
X86589523Y-105525714D01*
X86589523Y-105525714D02*
X86684761Y-105573333D01*
%TO.C,TP1-(5v)1*%
X76680952Y-72962619D02*
X76109524Y-72962619D01*
X76395238Y-73962619D02*
X76395238Y-72962619D01*
X75776190Y-73962619D02*
X75776190Y-72962619D01*
X75776190Y-72962619D02*
X75395238Y-72962619D01*
X75395238Y-72962619D02*
X75300000Y-73010238D01*
X75300000Y-73010238D02*
X75252381Y-73057857D01*
X75252381Y-73057857D02*
X75204762Y-73153095D01*
X75204762Y-73153095D02*
X75204762Y-73295952D01*
X75204762Y-73295952D02*
X75252381Y-73391190D01*
X75252381Y-73391190D02*
X75300000Y-73438809D01*
X75300000Y-73438809D02*
X75395238Y-73486428D01*
X75395238Y-73486428D02*
X75776190Y-73486428D01*
X74252381Y-73962619D02*
X74823809Y-73962619D01*
X74538095Y-73962619D02*
X74538095Y-72962619D01*
X74538095Y-72962619D02*
X74633333Y-73105476D01*
X74633333Y-73105476D02*
X74728571Y-73200714D01*
X74728571Y-73200714D02*
X74823809Y-73248333D01*
X73823809Y-73581666D02*
X73061905Y-73581666D01*
X72300000Y-74343571D02*
X72347619Y-74295952D01*
X72347619Y-74295952D02*
X72442857Y-74153095D01*
X72442857Y-74153095D02*
X72490476Y-74057857D01*
X72490476Y-74057857D02*
X72538095Y-73915000D01*
X72538095Y-73915000D02*
X72585714Y-73676904D01*
X72585714Y-73676904D02*
X72585714Y-73486428D01*
X72585714Y-73486428D02*
X72538095Y-73248333D01*
X72538095Y-73248333D02*
X72490476Y-73105476D01*
X72490476Y-73105476D02*
X72442857Y-73010238D01*
X72442857Y-73010238D02*
X72347619Y-72867380D01*
X72347619Y-72867380D02*
X72300000Y-72819761D01*
X71442857Y-72962619D02*
X71919047Y-72962619D01*
X71919047Y-72962619D02*
X71966666Y-73438809D01*
X71966666Y-73438809D02*
X71919047Y-73391190D01*
X71919047Y-73391190D02*
X71823809Y-73343571D01*
X71823809Y-73343571D02*
X71585714Y-73343571D01*
X71585714Y-73343571D02*
X71490476Y-73391190D01*
X71490476Y-73391190D02*
X71442857Y-73438809D01*
X71442857Y-73438809D02*
X71395238Y-73534047D01*
X71395238Y-73534047D02*
X71395238Y-73772142D01*
X71395238Y-73772142D02*
X71442857Y-73867380D01*
X71442857Y-73867380D02*
X71490476Y-73915000D01*
X71490476Y-73915000D02*
X71585714Y-73962619D01*
X71585714Y-73962619D02*
X71823809Y-73962619D01*
X71823809Y-73962619D02*
X71919047Y-73915000D01*
X71919047Y-73915000D02*
X71966666Y-73867380D01*
X71061904Y-73295952D02*
X70823809Y-73962619D01*
X70823809Y-73962619D02*
X70585714Y-73295952D01*
X70299999Y-74343571D02*
X70252380Y-74295952D01*
X70252380Y-74295952D02*
X70157142Y-74153095D01*
X70157142Y-74153095D02*
X70109523Y-74057857D01*
X70109523Y-74057857D02*
X70061904Y-73915000D01*
X70061904Y-73915000D02*
X70014285Y-73676904D01*
X70014285Y-73676904D02*
X70014285Y-73486428D01*
X70014285Y-73486428D02*
X70061904Y-73248333D01*
X70061904Y-73248333D02*
X70109523Y-73105476D01*
X70109523Y-73105476D02*
X70157142Y-73010238D01*
X70157142Y-73010238D02*
X70252380Y-72867380D01*
X70252380Y-72867380D02*
X70299999Y-72819761D01*
X69014285Y-73962619D02*
X69585713Y-73962619D01*
X69299999Y-73962619D02*
X69299999Y-72962619D01*
X69299999Y-72962619D02*
X69395237Y-73105476D01*
X69395237Y-73105476D02*
X69490475Y-73200714D01*
X69490475Y-73200714D02*
X69585713Y-73248333D01*
D12*
%TO.C,J1*%
X80830000Y-99225000D02*
X81830000Y-99725000D01*
X80830000Y-100225000D02*
X80830000Y-99225000D01*
X81830000Y-99725000D02*
X80830000Y-100225000D01*
X82220000Y-84355000D02*
X82220000Y-104935000D01*
X82220000Y-96695000D02*
X83530000Y-96695000D01*
X82220000Y-104935000D02*
X91340000Y-104935000D01*
X83530000Y-85655000D02*
X83530000Y-92595000D01*
X83530000Y-92595000D02*
X82220000Y-92595000D01*
X83530000Y-92595000D02*
X83530000Y-92595000D01*
X83530000Y-96695000D02*
X83530000Y-103635000D01*
X83530000Y-103635000D02*
X90030000Y-103635000D01*
X90030000Y-85655000D02*
X83530000Y-85655000D01*
X90030000Y-103635000D02*
X90030000Y-85655000D01*
X91340000Y-84355000D02*
X82220000Y-84355000D01*
X91340000Y-104935000D02*
X91340000Y-84355000D01*
%TO.C,TP1-(5v)1*%
X74100000Y-72650000D02*
X71500000Y-72650000D01*
X74100000Y-72150000D02*
X74100000Y-72650000D01*
X74100000Y-70450000D02*
X74100000Y-72150000D01*
X71500000Y-72650000D02*
X71500000Y-70450000D01*
X71500000Y-70450000D02*
X74100000Y-70450000D01*
%TD*%
M02*
