M48
; DRILL file {KiCad 7.0.1-0} date 2024 January 08, Monday 18:45:37
; FORMAT={-:-/ absolute / metric / decimal}
; #@! TF.CreationDate,2024-01-08T18:45:37+13:00
; #@! TF.GenerationSoftware,Kicad,Pcbnew,7.0.1-0
; #@! TF.FileFunction,Plated,1,2,PTH
FMAT,2
METRIC
; #@! TA.AperFunction,Plated,PTH,ViaDrill
T1C0.400
; #@! TA.AperFunction,Plated,PTH,ComponentDrill
T2C0.800
; #@! TA.AperFunction,Plated,PTH,ComponentDrill
T3C1.000
; #@! TA.AperFunction,Plated,PTH,ComponentDrill
T4C1.220
; #@! TA.AperFunction,Plated,PTH,ComponentDrill
T5C1.420
; #@! TA.AperFunction,Plated,PTH,ComponentDrill
T6C1.430
; #@! TA.AperFunction,Plated,PTH,ComponentDrill
T7C1.800
%
G90
G05
T1
X110.25Y-84.8
X110.43Y-77.0
X110.48Y-122.86
X112.38Y-81.92
X113.524Y-67.775
X113.974Y-68.775
X114.145Y-50.54
X115.02Y-58.64
X116.326Y-55.852
X116.812Y-122.662
X118.381Y-89.973
X119.04Y-117.484
X121.93Y-74.304
X122.21Y-100.805
X125.695Y-67.53
X125.95Y-60.89
X127.08Y-56.899
X127.249Y-102.244
X128.094Y-79.18
X128.385Y-116.035
X129.06Y-83.69
X130.7Y-64.0
X130.93Y-109.74
X131.5Y-119.15
X133.345Y-65.925
X133.796Y-90.2
X134.14Y-110.43
X134.64Y-116.36
X134.651Y-111.289
X134.95Y-37.75
X136.144Y-92.745
X136.27Y-40.25
X136.31Y-64.52
X136.39Y-130.275
X136.594Y-89.04
X137.044Y-73.855
X138.328Y-48.948
X138.35Y-52.18
X141.17Y-85.97
X141.25Y-44.51
X141.796Y-100.325
X141.81Y-39.95
X142.007Y-117.057
X142.025Y-48.735
X142.7Y-37.18
X143.596Y-37.622
X143.95Y-135.75
X144.55Y-67.9
X145.21Y-86.22
X145.374Y-87.261
X146.202Y-105.228
X152.25Y-99.42
X153.26Y-85.43
X154.301Y-85.413
X154.88Y-62.62
X155.61Y-124.5
X156.154Y-67.014
X156.75Y-75.55
X157.167Y-106.085
X157.27Y-63.28
X157.63Y-134.155
X159.333Y-85.903
X160.42Y-85.84
X166.55Y-99.0
X166.557Y-85.465
X168.3Y-77.95
X169.083Y-135.025
X169.4Y-137.78
X169.465Y-125.07
X169.932Y-52.963
X169.94Y-43.65
X170.09Y-36.276
X170.19Y-126.664
X171.275Y-144.05
X173.096Y-121.01
X174.924Y-91.2
T2
X120.6Y-40.105
X120.6Y-42.645
X120.8Y-135.305
X120.8Y-137.845
X175.1Y-108.0
X175.1Y-110.54
X175.2Y-71.505
X175.2Y-74.045
T3
X108.1Y-60.88
X108.1Y-63.42
X108.1Y-65.96
X108.1Y-68.5
X108.1Y-71.04
X108.1Y-73.58
X108.1Y-76.12
X108.1Y-78.66
X108.1Y-81.2
X108.1Y-83.74
X108.1Y-86.28
X108.1Y-88.82
X108.1Y-91.36
X108.1Y-93.9
X108.1Y-96.44
X108.1Y-98.98
X108.1Y-101.52
X108.1Y-104.06
X108.1Y-106.6
X108.1Y-109.14
X108.1Y-111.68
X108.1Y-114.22
X108.1Y-116.76
X108.1Y-119.3
X123.685Y-42.345
X123.685Y-137.995
X124.235Y-39.145
X124.235Y-45.545
X124.235Y-134.795
X124.235Y-141.195
X128.735Y-39.145
X128.735Y-45.545
X128.735Y-134.795
X128.735Y-141.195
X129.285Y-42.345
X129.285Y-137.995
X149.75Y-89.8
X149.75Y-103.65
X152.25Y-89.8
X152.25Y-103.65
X154.75Y-89.8
X154.75Y-103.65
X164.2Y-89.8
X164.2Y-103.65
X166.7Y-89.8
X166.7Y-103.65
X169.2Y-89.8
X169.2Y-103.65
X175.1Y-37.0
X175.1Y-39.54
X175.1Y-42.08
X175.1Y-44.62
X175.1Y-47.16
X175.1Y-49.7
X175.1Y-52.24
X175.1Y-54.78
X175.1Y-57.32
X175.1Y-59.86
X175.1Y-62.4
X175.1Y-64.94
X175.1Y-115.31
X175.1Y-117.85
X175.1Y-120.39
X175.1Y-122.93
X175.1Y-125.47
X175.1Y-128.01
X175.1Y-130.55
X175.1Y-133.09
X175.1Y-135.63
X175.1Y-138.17
X175.1Y-140.71
X175.1Y-143.25
T4
X145.77Y-40.2
X145.77Y-50.24
X145.77Y-60.3
X145.77Y-70.35
X145.77Y-109.85
X145.77Y-119.9
X145.77Y-129.95
X145.77Y-140.0
X160.22Y-40.2
X160.22Y-50.25
X160.22Y-60.3
X160.22Y-70.35
X160.22Y-109.85
X160.22Y-119.9
X160.22Y-129.95
X160.22Y-140.0
T5
X148.87Y-40.2
X148.87Y-50.24
X148.87Y-60.3
X148.87Y-70.35
X148.87Y-109.85
X148.87Y-119.9
X148.87Y-129.95
X148.87Y-140.0
X163.32Y-40.2
X163.32Y-50.25
X163.32Y-60.3
X163.32Y-70.35
X163.32Y-109.85
X163.32Y-119.9
X163.32Y-129.95
X163.32Y-140.0
T6
X157.17Y-40.2
X157.17Y-50.24
X157.17Y-60.3
X157.17Y-70.35
X157.17Y-109.85
X157.17Y-119.9
X157.17Y-129.95
X157.17Y-140.0
X171.62Y-40.2
X171.62Y-50.25
X171.62Y-60.3
X171.62Y-70.35
X171.62Y-109.85
X171.62Y-119.9
X171.62Y-129.95
X171.62Y-140.0
T7
X147.45Y-82.3
X147.45Y-96.15
X157.05Y-82.3
X157.05Y-96.15
X161.9Y-82.3
X161.9Y-96.15
X171.5Y-82.3
X171.5Y-96.15
T2
X112.8Y-54.15G85X112.8Y-54.95
G05
X112.8Y-84.15G85X112.8Y-84.95
G05
X112.8Y-87.15G85X112.8Y-87.95
G05
X112.8Y-95.25G85X112.8Y-96.05
G05
X112.8Y-125.25G85X112.8Y-126.05
G05
X112.8Y-128.25G85X112.8Y-129.05
G05
X121.8Y-54.15G85X121.8Y-54.95
G05
X121.8Y-84.15G85X121.8Y-84.95
G05
X121.8Y-87.15G85X121.8Y-87.95
G05
X121.8Y-95.25G85X121.8Y-96.05
G05
X121.8Y-125.25G85X121.8Y-126.05
G05
X121.8Y-128.25G85X121.8Y-129.05
G05
X130.8Y-54.15G85X130.8Y-54.95
G05
X130.8Y-84.15G85X130.8Y-84.95
G05
X130.8Y-87.15G85X130.8Y-87.95
G05
X130.8Y-95.25G85X130.8Y-96.05
G05
X130.8Y-125.25G85X130.8Y-126.05
G05
X130.8Y-128.25G85X130.8Y-129.05
G05
X139.8Y-54.15G85X139.8Y-54.95
G05
X139.8Y-84.15G85X139.8Y-84.95
G05
X139.8Y-87.15G85X139.8Y-87.95
G05
X139.8Y-95.25G85X139.8Y-96.05
G05
X139.8Y-125.25G85X139.8Y-126.05
G05
X139.8Y-128.25G85X139.8Y-129.05
G05
T3
X113.05Y-37.85G85X114.35Y-37.85
G05
X113.05Y-42.3G85X114.35Y-42.3
G05
X113.05Y-46.75G85X114.35Y-46.75
G05
X113.05Y-133.5G85X114.35Y-133.5
G05
X113.05Y-137.95G85X114.35Y-137.95
G05
X113.05Y-142.4G85X114.35Y-142.4
G05
X139.95Y-37.85G85X138.65Y-37.85
G05
X139.95Y-42.3G85X138.65Y-42.3
G05
X139.95Y-46.75G85X138.65Y-46.75
G05
X138.65Y-133.5G85X139.95Y-133.5
G05
X138.65Y-137.95G85X139.95Y-137.95
G05
X138.65Y-142.4G85X139.95Y-142.4
G05
T0
M30
