%TF.GenerationSoftware,KiCad,Pcbnew,7.0.1-0*%
%TF.CreationDate,2024-01-26T10:09:15+13:00*%
%TF.ProjectId,MOL,4d4f4c2e-6b69-4636-9164-5f7063625858,rev?*%
%TF.SameCoordinates,Original*%
%TF.FileFunction,Legend,Top*%
%TF.FilePolarity,Positive*%
%FSLAX46Y46*%
G04 Gerber Fmt 4.6, Leading zero omitted, Abs format (unit mm)*
G04 Created by KiCad (PCBNEW 7.0.1-0) date 2024-01-26 10:09:15*
%MOMM*%
%LPD*%
G01*
G04 APERTURE LIST*
%ADD10C,0.150000*%
%ADD11C,0.400000*%
%ADD12C,0.120000*%
G04 APERTURE END LIST*
D10*
%TO.C,RV3*%
X132654761Y-89512619D02*
X132321428Y-89036428D01*
X132083333Y-89512619D02*
X132083333Y-88512619D01*
X132083333Y-88512619D02*
X132464285Y-88512619D01*
X132464285Y-88512619D02*
X132559523Y-88560238D01*
X132559523Y-88560238D02*
X132607142Y-88607857D01*
X132607142Y-88607857D02*
X132654761Y-88703095D01*
X132654761Y-88703095D02*
X132654761Y-88845952D01*
X132654761Y-88845952D02*
X132607142Y-88941190D01*
X132607142Y-88941190D02*
X132559523Y-88988809D01*
X132559523Y-88988809D02*
X132464285Y-89036428D01*
X132464285Y-89036428D02*
X132083333Y-89036428D01*
X132940476Y-88512619D02*
X133273809Y-89512619D01*
X133273809Y-89512619D02*
X133607142Y-88512619D01*
X133845238Y-88512619D02*
X134464285Y-88512619D01*
X134464285Y-88512619D02*
X134130952Y-88893571D01*
X134130952Y-88893571D02*
X134273809Y-88893571D01*
X134273809Y-88893571D02*
X134369047Y-88941190D01*
X134369047Y-88941190D02*
X134416666Y-88988809D01*
X134416666Y-88988809D02*
X134464285Y-89084047D01*
X134464285Y-89084047D02*
X134464285Y-89322142D01*
X134464285Y-89322142D02*
X134416666Y-89417380D01*
X134416666Y-89417380D02*
X134369047Y-89465000D01*
X134369047Y-89465000D02*
X134273809Y-89512619D01*
X134273809Y-89512619D02*
X133988095Y-89512619D01*
X133988095Y-89512619D02*
X133892857Y-89465000D01*
X133892857Y-89465000D02*
X133845238Y-89417380D01*
%TO.C,RV6*%
X118604761Y-130312619D02*
X118271428Y-129836428D01*
X118033333Y-130312619D02*
X118033333Y-129312619D01*
X118033333Y-129312619D02*
X118414285Y-129312619D01*
X118414285Y-129312619D02*
X118509523Y-129360238D01*
X118509523Y-129360238D02*
X118557142Y-129407857D01*
X118557142Y-129407857D02*
X118604761Y-129503095D01*
X118604761Y-129503095D02*
X118604761Y-129645952D01*
X118604761Y-129645952D02*
X118557142Y-129741190D01*
X118557142Y-129741190D02*
X118509523Y-129788809D01*
X118509523Y-129788809D02*
X118414285Y-129836428D01*
X118414285Y-129836428D02*
X118033333Y-129836428D01*
X118890476Y-129312619D02*
X119223809Y-130312619D01*
X119223809Y-130312619D02*
X119557142Y-129312619D01*
X120319047Y-129312619D02*
X120128571Y-129312619D01*
X120128571Y-129312619D02*
X120033333Y-129360238D01*
X120033333Y-129360238D02*
X119985714Y-129407857D01*
X119985714Y-129407857D02*
X119890476Y-129550714D01*
X119890476Y-129550714D02*
X119842857Y-129741190D01*
X119842857Y-129741190D02*
X119842857Y-130122142D01*
X119842857Y-130122142D02*
X119890476Y-130217380D01*
X119890476Y-130217380D02*
X119938095Y-130265000D01*
X119938095Y-130265000D02*
X120033333Y-130312619D01*
X120033333Y-130312619D02*
X120223809Y-130312619D01*
X120223809Y-130312619D02*
X120319047Y-130265000D01*
X120319047Y-130265000D02*
X120366666Y-130217380D01*
X120366666Y-130217380D02*
X120414285Y-130122142D01*
X120414285Y-130122142D02*
X120414285Y-129884047D01*
X120414285Y-129884047D02*
X120366666Y-129788809D01*
X120366666Y-129788809D02*
X120319047Y-129741190D01*
X120319047Y-129741190D02*
X120223809Y-129693571D01*
X120223809Y-129693571D02*
X120033333Y-129693571D01*
X120033333Y-129693571D02*
X119938095Y-129741190D01*
X119938095Y-129741190D02*
X119890476Y-129788809D01*
X119890476Y-129788809D02*
X119842857Y-129884047D01*
%TO.C,SW2*%
X125201667Y-133060000D02*
X125344524Y-133107619D01*
X125344524Y-133107619D02*
X125582619Y-133107619D01*
X125582619Y-133107619D02*
X125677857Y-133060000D01*
X125677857Y-133060000D02*
X125725476Y-133012380D01*
X125725476Y-133012380D02*
X125773095Y-132917142D01*
X125773095Y-132917142D02*
X125773095Y-132821904D01*
X125773095Y-132821904D02*
X125725476Y-132726666D01*
X125725476Y-132726666D02*
X125677857Y-132679047D01*
X125677857Y-132679047D02*
X125582619Y-132631428D01*
X125582619Y-132631428D02*
X125392143Y-132583809D01*
X125392143Y-132583809D02*
X125296905Y-132536190D01*
X125296905Y-132536190D02*
X125249286Y-132488571D01*
X125249286Y-132488571D02*
X125201667Y-132393333D01*
X125201667Y-132393333D02*
X125201667Y-132298095D01*
X125201667Y-132298095D02*
X125249286Y-132202857D01*
X125249286Y-132202857D02*
X125296905Y-132155238D01*
X125296905Y-132155238D02*
X125392143Y-132107619D01*
X125392143Y-132107619D02*
X125630238Y-132107619D01*
X125630238Y-132107619D02*
X125773095Y-132155238D01*
X126106429Y-132107619D02*
X126344524Y-133107619D01*
X126344524Y-133107619D02*
X126535000Y-132393333D01*
X126535000Y-132393333D02*
X126725476Y-133107619D01*
X126725476Y-133107619D02*
X126963572Y-132107619D01*
X127296905Y-132202857D02*
X127344524Y-132155238D01*
X127344524Y-132155238D02*
X127439762Y-132107619D01*
X127439762Y-132107619D02*
X127677857Y-132107619D01*
X127677857Y-132107619D02*
X127773095Y-132155238D01*
X127773095Y-132155238D02*
X127820714Y-132202857D01*
X127820714Y-132202857D02*
X127868333Y-132298095D01*
X127868333Y-132298095D02*
X127868333Y-132393333D01*
X127868333Y-132393333D02*
X127820714Y-132536190D01*
X127820714Y-132536190D02*
X127249286Y-133107619D01*
X127249286Y-133107619D02*
X127868333Y-133107619D01*
X124132619Y-139656904D02*
X123132619Y-139656904D01*
X124132619Y-139085476D02*
X123561190Y-139514047D01*
X123132619Y-139085476D02*
X123704047Y-139656904D01*
%TO.C,RV10*%
X159862619Y-98271428D02*
X159386428Y-98604761D01*
X159862619Y-98842856D02*
X158862619Y-98842856D01*
X158862619Y-98842856D02*
X158862619Y-98461904D01*
X158862619Y-98461904D02*
X158910238Y-98366666D01*
X158910238Y-98366666D02*
X158957857Y-98319047D01*
X158957857Y-98319047D02*
X159053095Y-98271428D01*
X159053095Y-98271428D02*
X159195952Y-98271428D01*
X159195952Y-98271428D02*
X159291190Y-98319047D01*
X159291190Y-98319047D02*
X159338809Y-98366666D01*
X159338809Y-98366666D02*
X159386428Y-98461904D01*
X159386428Y-98461904D02*
X159386428Y-98842856D01*
X158862619Y-97985713D02*
X159862619Y-97652380D01*
X159862619Y-97652380D02*
X158862619Y-97319047D01*
X159862619Y-96461904D02*
X159862619Y-97033332D01*
X159862619Y-96747618D02*
X158862619Y-96747618D01*
X158862619Y-96747618D02*
X159005476Y-96842856D01*
X159005476Y-96842856D02*
X159100714Y-96938094D01*
X159100714Y-96938094D02*
X159148333Y-97033332D01*
X158862619Y-95842856D02*
X158862619Y-95747618D01*
X158862619Y-95747618D02*
X158910238Y-95652380D01*
X158910238Y-95652380D02*
X158957857Y-95604761D01*
X158957857Y-95604761D02*
X159053095Y-95557142D01*
X159053095Y-95557142D02*
X159243571Y-95509523D01*
X159243571Y-95509523D02*
X159481666Y-95509523D01*
X159481666Y-95509523D02*
X159672142Y-95557142D01*
X159672142Y-95557142D02*
X159767380Y-95604761D01*
X159767380Y-95604761D02*
X159815000Y-95652380D01*
X159815000Y-95652380D02*
X159862619Y-95747618D01*
X159862619Y-95747618D02*
X159862619Y-95842856D01*
X159862619Y-95842856D02*
X159815000Y-95938094D01*
X159815000Y-95938094D02*
X159767380Y-95985713D01*
X159767380Y-95985713D02*
X159672142Y-96033332D01*
X159672142Y-96033332D02*
X159481666Y-96080951D01*
X159481666Y-96080951D02*
X159243571Y-96080951D01*
X159243571Y-96080951D02*
X159053095Y-96033332D01*
X159053095Y-96033332D02*
X158957857Y-95985713D01*
X158957857Y-95985713D02*
X158910238Y-95938094D01*
X158910238Y-95938094D02*
X158862619Y-95842856D01*
%TO.C,RV2*%
X123704761Y-89362619D02*
X123371428Y-88886428D01*
X123133333Y-89362619D02*
X123133333Y-88362619D01*
X123133333Y-88362619D02*
X123514285Y-88362619D01*
X123514285Y-88362619D02*
X123609523Y-88410238D01*
X123609523Y-88410238D02*
X123657142Y-88457857D01*
X123657142Y-88457857D02*
X123704761Y-88553095D01*
X123704761Y-88553095D02*
X123704761Y-88695952D01*
X123704761Y-88695952D02*
X123657142Y-88791190D01*
X123657142Y-88791190D02*
X123609523Y-88838809D01*
X123609523Y-88838809D02*
X123514285Y-88886428D01*
X123514285Y-88886428D02*
X123133333Y-88886428D01*
X123990476Y-88362619D02*
X124323809Y-89362619D01*
X124323809Y-89362619D02*
X124657142Y-88362619D01*
X124942857Y-88457857D02*
X124990476Y-88410238D01*
X124990476Y-88410238D02*
X125085714Y-88362619D01*
X125085714Y-88362619D02*
X125323809Y-88362619D01*
X125323809Y-88362619D02*
X125419047Y-88410238D01*
X125419047Y-88410238D02*
X125466666Y-88457857D01*
X125466666Y-88457857D02*
X125514285Y-88553095D01*
X125514285Y-88553095D02*
X125514285Y-88648333D01*
X125514285Y-88648333D02*
X125466666Y-88791190D01*
X125466666Y-88791190D02*
X124895238Y-89362619D01*
X124895238Y-89362619D02*
X125514285Y-89362619D01*
%TO.C,J3*%
X146312619Y-114213333D02*
X147026904Y-114213333D01*
X147026904Y-114213333D02*
X147169761Y-114260952D01*
X147169761Y-114260952D02*
X147265000Y-114356190D01*
X147265000Y-114356190D02*
X147312619Y-114499047D01*
X147312619Y-114499047D02*
X147312619Y-114594285D01*
X146312619Y-113832380D02*
X146312619Y-113213333D01*
X146312619Y-113213333D02*
X146693571Y-113546666D01*
X146693571Y-113546666D02*
X146693571Y-113403809D01*
X146693571Y-113403809D02*
X146741190Y-113308571D01*
X146741190Y-113308571D02*
X146788809Y-113260952D01*
X146788809Y-113260952D02*
X146884047Y-113213333D01*
X146884047Y-113213333D02*
X147122142Y-113213333D01*
X147122142Y-113213333D02*
X147217380Y-113260952D01*
X147217380Y-113260952D02*
X147265000Y-113308571D01*
X147265000Y-113308571D02*
X147312619Y-113403809D01*
X147312619Y-113403809D02*
X147312619Y-113689523D01*
X147312619Y-113689523D02*
X147265000Y-113784761D01*
X147265000Y-113784761D02*
X147217380Y-113832380D01*
%TO.C,J9*%
X160762619Y-124263333D02*
X161476904Y-124263333D01*
X161476904Y-124263333D02*
X161619761Y-124310952D01*
X161619761Y-124310952D02*
X161715000Y-124406190D01*
X161715000Y-124406190D02*
X161762619Y-124549047D01*
X161762619Y-124549047D02*
X161762619Y-124644285D01*
X161762619Y-123739523D02*
X161762619Y-123549047D01*
X161762619Y-123549047D02*
X161715000Y-123453809D01*
X161715000Y-123453809D02*
X161667380Y-123406190D01*
X161667380Y-123406190D02*
X161524523Y-123310952D01*
X161524523Y-123310952D02*
X161334047Y-123263333D01*
X161334047Y-123263333D02*
X160953095Y-123263333D01*
X160953095Y-123263333D02*
X160857857Y-123310952D01*
X160857857Y-123310952D02*
X160810238Y-123358571D01*
X160810238Y-123358571D02*
X160762619Y-123453809D01*
X160762619Y-123453809D02*
X160762619Y-123644285D01*
X160762619Y-123644285D02*
X160810238Y-123739523D01*
X160810238Y-123739523D02*
X160857857Y-123787142D01*
X160857857Y-123787142D02*
X160953095Y-123834761D01*
X160953095Y-123834761D02*
X161191190Y-123834761D01*
X161191190Y-123834761D02*
X161286428Y-123787142D01*
X161286428Y-123787142D02*
X161334047Y-123739523D01*
X161334047Y-123739523D02*
X161381666Y-123644285D01*
X161381666Y-123644285D02*
X161381666Y-123453809D01*
X161381666Y-123453809D02*
X161334047Y-123358571D01*
X161334047Y-123358571D02*
X161286428Y-123310952D01*
X161286428Y-123310952D02*
X161191190Y-123263333D01*
%TO.C,RV7*%
X127654761Y-130462619D02*
X127321428Y-129986428D01*
X127083333Y-130462619D02*
X127083333Y-129462619D01*
X127083333Y-129462619D02*
X127464285Y-129462619D01*
X127464285Y-129462619D02*
X127559523Y-129510238D01*
X127559523Y-129510238D02*
X127607142Y-129557857D01*
X127607142Y-129557857D02*
X127654761Y-129653095D01*
X127654761Y-129653095D02*
X127654761Y-129795952D01*
X127654761Y-129795952D02*
X127607142Y-129891190D01*
X127607142Y-129891190D02*
X127559523Y-129938809D01*
X127559523Y-129938809D02*
X127464285Y-129986428D01*
X127464285Y-129986428D02*
X127083333Y-129986428D01*
X127940476Y-129462619D02*
X128273809Y-130462619D01*
X128273809Y-130462619D02*
X128607142Y-129462619D01*
X128845238Y-129462619D02*
X129511904Y-129462619D01*
X129511904Y-129462619D02*
X129083333Y-130462619D01*
%TO.C,J7*%
X160762619Y-144363333D02*
X161476904Y-144363333D01*
X161476904Y-144363333D02*
X161619761Y-144410952D01*
X161619761Y-144410952D02*
X161715000Y-144506190D01*
X161715000Y-144506190D02*
X161762619Y-144649047D01*
X161762619Y-144649047D02*
X161762619Y-144744285D01*
X160762619Y-143982380D02*
X160762619Y-143315714D01*
X160762619Y-143315714D02*
X161762619Y-143744285D01*
%TO.C,R58*%
X120057142Y-134062619D02*
X119723809Y-133586428D01*
X119485714Y-134062619D02*
X119485714Y-133062619D01*
X119485714Y-133062619D02*
X119866666Y-133062619D01*
X119866666Y-133062619D02*
X119961904Y-133110238D01*
X119961904Y-133110238D02*
X120009523Y-133157857D01*
X120009523Y-133157857D02*
X120057142Y-133253095D01*
X120057142Y-133253095D02*
X120057142Y-133395952D01*
X120057142Y-133395952D02*
X120009523Y-133491190D01*
X120009523Y-133491190D02*
X119961904Y-133538809D01*
X119961904Y-133538809D02*
X119866666Y-133586428D01*
X119866666Y-133586428D02*
X119485714Y-133586428D01*
X120961904Y-133062619D02*
X120485714Y-133062619D01*
X120485714Y-133062619D02*
X120438095Y-133538809D01*
X120438095Y-133538809D02*
X120485714Y-133491190D01*
X120485714Y-133491190D02*
X120580952Y-133443571D01*
X120580952Y-133443571D02*
X120819047Y-133443571D01*
X120819047Y-133443571D02*
X120914285Y-133491190D01*
X120914285Y-133491190D02*
X120961904Y-133538809D01*
X120961904Y-133538809D02*
X121009523Y-133634047D01*
X121009523Y-133634047D02*
X121009523Y-133872142D01*
X121009523Y-133872142D02*
X120961904Y-133967380D01*
X120961904Y-133967380D02*
X120914285Y-134015000D01*
X120914285Y-134015000D02*
X120819047Y-134062619D01*
X120819047Y-134062619D02*
X120580952Y-134062619D01*
X120580952Y-134062619D02*
X120485714Y-134015000D01*
X120485714Y-134015000D02*
X120438095Y-133967380D01*
X121580952Y-133491190D02*
X121485714Y-133443571D01*
X121485714Y-133443571D02*
X121438095Y-133395952D01*
X121438095Y-133395952D02*
X121390476Y-133300714D01*
X121390476Y-133300714D02*
X121390476Y-133253095D01*
X121390476Y-133253095D02*
X121438095Y-133157857D01*
X121438095Y-133157857D02*
X121485714Y-133110238D01*
X121485714Y-133110238D02*
X121580952Y-133062619D01*
X121580952Y-133062619D02*
X121771428Y-133062619D01*
X121771428Y-133062619D02*
X121866666Y-133110238D01*
X121866666Y-133110238D02*
X121914285Y-133157857D01*
X121914285Y-133157857D02*
X121961904Y-133253095D01*
X121961904Y-133253095D02*
X121961904Y-133300714D01*
X121961904Y-133300714D02*
X121914285Y-133395952D01*
X121914285Y-133395952D02*
X121866666Y-133443571D01*
X121866666Y-133443571D02*
X121771428Y-133491190D01*
X121771428Y-133491190D02*
X121580952Y-133491190D01*
X121580952Y-133491190D02*
X121485714Y-133538809D01*
X121485714Y-133538809D02*
X121438095Y-133586428D01*
X121438095Y-133586428D02*
X121390476Y-133681666D01*
X121390476Y-133681666D02*
X121390476Y-133872142D01*
X121390476Y-133872142D02*
X121438095Y-133967380D01*
X121438095Y-133967380D02*
X121485714Y-134015000D01*
X121485714Y-134015000D02*
X121580952Y-134062619D01*
X121580952Y-134062619D02*
X121771428Y-134062619D01*
X121771428Y-134062619D02*
X121866666Y-134015000D01*
X121866666Y-134015000D02*
X121914285Y-133967380D01*
X121914285Y-133967380D02*
X121961904Y-133872142D01*
X121961904Y-133872142D02*
X121961904Y-133681666D01*
X121961904Y-133681666D02*
X121914285Y-133586428D01*
X121914285Y-133586428D02*
X121866666Y-133538809D01*
X121866666Y-133538809D02*
X121771428Y-133491190D01*
%TO.C,J13*%
X146312619Y-124739523D02*
X147026904Y-124739523D01*
X147026904Y-124739523D02*
X147169761Y-124787142D01*
X147169761Y-124787142D02*
X147265000Y-124882380D01*
X147265000Y-124882380D02*
X147312619Y-125025237D01*
X147312619Y-125025237D02*
X147312619Y-125120475D01*
X147312619Y-123739523D02*
X147312619Y-124310951D01*
X147312619Y-124025237D02*
X146312619Y-124025237D01*
X146312619Y-124025237D02*
X146455476Y-124120475D01*
X146455476Y-124120475D02*
X146550714Y-124215713D01*
X146550714Y-124215713D02*
X146598333Y-124310951D01*
X146312619Y-123406189D02*
X146312619Y-122787142D01*
X146312619Y-122787142D02*
X146693571Y-123120475D01*
X146693571Y-123120475D02*
X146693571Y-122977618D01*
X146693571Y-122977618D02*
X146741190Y-122882380D01*
X146741190Y-122882380D02*
X146788809Y-122834761D01*
X146788809Y-122834761D02*
X146884047Y-122787142D01*
X146884047Y-122787142D02*
X147122142Y-122787142D01*
X147122142Y-122787142D02*
X147217380Y-122834761D01*
X147217380Y-122834761D02*
X147265000Y-122882380D01*
X147265000Y-122882380D02*
X147312619Y-122977618D01*
X147312619Y-122977618D02*
X147312619Y-123263332D01*
X147312619Y-123263332D02*
X147265000Y-123358570D01*
X147265000Y-123358570D02*
X147217380Y-123406189D01*
%TO.C,J4*%
X146312619Y-44563333D02*
X147026904Y-44563333D01*
X147026904Y-44563333D02*
X147169761Y-44610952D01*
X147169761Y-44610952D02*
X147265000Y-44706190D01*
X147265000Y-44706190D02*
X147312619Y-44849047D01*
X147312619Y-44849047D02*
X147312619Y-44944285D01*
X146645952Y-43658571D02*
X147312619Y-43658571D01*
X146265000Y-43896666D02*
X146979285Y-44134761D01*
X146979285Y-44134761D02*
X146979285Y-43515714D01*
%TO.C,RV8*%
X136554761Y-130462619D02*
X136221428Y-129986428D01*
X135983333Y-130462619D02*
X135983333Y-129462619D01*
X135983333Y-129462619D02*
X136364285Y-129462619D01*
X136364285Y-129462619D02*
X136459523Y-129510238D01*
X136459523Y-129510238D02*
X136507142Y-129557857D01*
X136507142Y-129557857D02*
X136554761Y-129653095D01*
X136554761Y-129653095D02*
X136554761Y-129795952D01*
X136554761Y-129795952D02*
X136507142Y-129891190D01*
X136507142Y-129891190D02*
X136459523Y-129938809D01*
X136459523Y-129938809D02*
X136364285Y-129986428D01*
X136364285Y-129986428D02*
X135983333Y-129986428D01*
X136840476Y-129462619D02*
X137173809Y-130462619D01*
X137173809Y-130462619D02*
X137507142Y-129462619D01*
X137983333Y-129891190D02*
X137888095Y-129843571D01*
X137888095Y-129843571D02*
X137840476Y-129795952D01*
X137840476Y-129795952D02*
X137792857Y-129700714D01*
X137792857Y-129700714D02*
X137792857Y-129653095D01*
X137792857Y-129653095D02*
X137840476Y-129557857D01*
X137840476Y-129557857D02*
X137888095Y-129510238D01*
X137888095Y-129510238D02*
X137983333Y-129462619D01*
X137983333Y-129462619D02*
X138173809Y-129462619D01*
X138173809Y-129462619D02*
X138269047Y-129510238D01*
X138269047Y-129510238D02*
X138316666Y-129557857D01*
X138316666Y-129557857D02*
X138364285Y-129653095D01*
X138364285Y-129653095D02*
X138364285Y-129700714D01*
X138364285Y-129700714D02*
X138316666Y-129795952D01*
X138316666Y-129795952D02*
X138269047Y-129843571D01*
X138269047Y-129843571D02*
X138173809Y-129891190D01*
X138173809Y-129891190D02*
X137983333Y-129891190D01*
X137983333Y-129891190D02*
X137888095Y-129938809D01*
X137888095Y-129938809D02*
X137840476Y-129986428D01*
X137840476Y-129986428D02*
X137792857Y-130081666D01*
X137792857Y-130081666D02*
X137792857Y-130272142D01*
X137792857Y-130272142D02*
X137840476Y-130367380D01*
X137840476Y-130367380D02*
X137888095Y-130415000D01*
X137888095Y-130415000D02*
X137983333Y-130462619D01*
X137983333Y-130462619D02*
X138173809Y-130462619D01*
X138173809Y-130462619D02*
X138269047Y-130415000D01*
X138269047Y-130415000D02*
X138316666Y-130367380D01*
X138316666Y-130367380D02*
X138364285Y-130272142D01*
X138364285Y-130272142D02*
X138364285Y-130081666D01*
X138364285Y-130081666D02*
X138316666Y-129986428D01*
X138316666Y-129986428D02*
X138269047Y-129938809D01*
X138269047Y-129938809D02*
X138173809Y-129891190D01*
%TO.C,J8*%
X160762619Y-64663333D02*
X161476904Y-64663333D01*
X161476904Y-64663333D02*
X161619761Y-64710952D01*
X161619761Y-64710952D02*
X161715000Y-64806190D01*
X161715000Y-64806190D02*
X161762619Y-64949047D01*
X161762619Y-64949047D02*
X161762619Y-65044285D01*
X161191190Y-64044285D02*
X161143571Y-64139523D01*
X161143571Y-64139523D02*
X161095952Y-64187142D01*
X161095952Y-64187142D02*
X161000714Y-64234761D01*
X161000714Y-64234761D02*
X160953095Y-64234761D01*
X160953095Y-64234761D02*
X160857857Y-64187142D01*
X160857857Y-64187142D02*
X160810238Y-64139523D01*
X160810238Y-64139523D02*
X160762619Y-64044285D01*
X160762619Y-64044285D02*
X160762619Y-63853809D01*
X160762619Y-63853809D02*
X160810238Y-63758571D01*
X160810238Y-63758571D02*
X160857857Y-63710952D01*
X160857857Y-63710952D02*
X160953095Y-63663333D01*
X160953095Y-63663333D02*
X161000714Y-63663333D01*
X161000714Y-63663333D02*
X161095952Y-63710952D01*
X161095952Y-63710952D02*
X161143571Y-63758571D01*
X161143571Y-63758571D02*
X161191190Y-63853809D01*
X161191190Y-63853809D02*
X161191190Y-64044285D01*
X161191190Y-64044285D02*
X161238809Y-64139523D01*
X161238809Y-64139523D02*
X161286428Y-64187142D01*
X161286428Y-64187142D02*
X161381666Y-64234761D01*
X161381666Y-64234761D02*
X161572142Y-64234761D01*
X161572142Y-64234761D02*
X161667380Y-64187142D01*
X161667380Y-64187142D02*
X161715000Y-64139523D01*
X161715000Y-64139523D02*
X161762619Y-64044285D01*
X161762619Y-64044285D02*
X161762619Y-63853809D01*
X161762619Y-63853809D02*
X161715000Y-63758571D01*
X161715000Y-63758571D02*
X161667380Y-63710952D01*
X161667380Y-63710952D02*
X161572142Y-63663333D01*
X161572142Y-63663333D02*
X161381666Y-63663333D01*
X161381666Y-63663333D02*
X161286428Y-63710952D01*
X161286428Y-63710952D02*
X161238809Y-63758571D01*
X161238809Y-63758571D02*
X161191190Y-63853809D01*
%TO.C,R64*%
X174357142Y-106262619D02*
X174023809Y-105786428D01*
X173785714Y-106262619D02*
X173785714Y-105262619D01*
X173785714Y-105262619D02*
X174166666Y-105262619D01*
X174166666Y-105262619D02*
X174261904Y-105310238D01*
X174261904Y-105310238D02*
X174309523Y-105357857D01*
X174309523Y-105357857D02*
X174357142Y-105453095D01*
X174357142Y-105453095D02*
X174357142Y-105595952D01*
X174357142Y-105595952D02*
X174309523Y-105691190D01*
X174309523Y-105691190D02*
X174261904Y-105738809D01*
X174261904Y-105738809D02*
X174166666Y-105786428D01*
X174166666Y-105786428D02*
X173785714Y-105786428D01*
X175214285Y-105262619D02*
X175023809Y-105262619D01*
X175023809Y-105262619D02*
X174928571Y-105310238D01*
X174928571Y-105310238D02*
X174880952Y-105357857D01*
X174880952Y-105357857D02*
X174785714Y-105500714D01*
X174785714Y-105500714D02*
X174738095Y-105691190D01*
X174738095Y-105691190D02*
X174738095Y-106072142D01*
X174738095Y-106072142D02*
X174785714Y-106167380D01*
X174785714Y-106167380D02*
X174833333Y-106215000D01*
X174833333Y-106215000D02*
X174928571Y-106262619D01*
X174928571Y-106262619D02*
X175119047Y-106262619D01*
X175119047Y-106262619D02*
X175214285Y-106215000D01*
X175214285Y-106215000D02*
X175261904Y-106167380D01*
X175261904Y-106167380D02*
X175309523Y-106072142D01*
X175309523Y-106072142D02*
X175309523Y-105834047D01*
X175309523Y-105834047D02*
X175261904Y-105738809D01*
X175261904Y-105738809D02*
X175214285Y-105691190D01*
X175214285Y-105691190D02*
X175119047Y-105643571D01*
X175119047Y-105643571D02*
X174928571Y-105643571D01*
X174928571Y-105643571D02*
X174833333Y-105691190D01*
X174833333Y-105691190D02*
X174785714Y-105738809D01*
X174785714Y-105738809D02*
X174738095Y-105834047D01*
X176166666Y-105595952D02*
X176166666Y-106262619D01*
X175928571Y-105215000D02*
X175690476Y-105929285D01*
X175690476Y-105929285D02*
X176309523Y-105929285D01*
%TO.C,R65*%
X174557142Y-70262619D02*
X174223809Y-69786428D01*
X173985714Y-70262619D02*
X173985714Y-69262619D01*
X173985714Y-69262619D02*
X174366666Y-69262619D01*
X174366666Y-69262619D02*
X174461904Y-69310238D01*
X174461904Y-69310238D02*
X174509523Y-69357857D01*
X174509523Y-69357857D02*
X174557142Y-69453095D01*
X174557142Y-69453095D02*
X174557142Y-69595952D01*
X174557142Y-69595952D02*
X174509523Y-69691190D01*
X174509523Y-69691190D02*
X174461904Y-69738809D01*
X174461904Y-69738809D02*
X174366666Y-69786428D01*
X174366666Y-69786428D02*
X173985714Y-69786428D01*
X175414285Y-69262619D02*
X175223809Y-69262619D01*
X175223809Y-69262619D02*
X175128571Y-69310238D01*
X175128571Y-69310238D02*
X175080952Y-69357857D01*
X175080952Y-69357857D02*
X174985714Y-69500714D01*
X174985714Y-69500714D02*
X174938095Y-69691190D01*
X174938095Y-69691190D02*
X174938095Y-70072142D01*
X174938095Y-70072142D02*
X174985714Y-70167380D01*
X174985714Y-70167380D02*
X175033333Y-70215000D01*
X175033333Y-70215000D02*
X175128571Y-70262619D01*
X175128571Y-70262619D02*
X175319047Y-70262619D01*
X175319047Y-70262619D02*
X175414285Y-70215000D01*
X175414285Y-70215000D02*
X175461904Y-70167380D01*
X175461904Y-70167380D02*
X175509523Y-70072142D01*
X175509523Y-70072142D02*
X175509523Y-69834047D01*
X175509523Y-69834047D02*
X175461904Y-69738809D01*
X175461904Y-69738809D02*
X175414285Y-69691190D01*
X175414285Y-69691190D02*
X175319047Y-69643571D01*
X175319047Y-69643571D02*
X175128571Y-69643571D01*
X175128571Y-69643571D02*
X175033333Y-69691190D01*
X175033333Y-69691190D02*
X174985714Y-69738809D01*
X174985714Y-69738809D02*
X174938095Y-69834047D01*
X176414285Y-69262619D02*
X175938095Y-69262619D01*
X175938095Y-69262619D02*
X175890476Y-69738809D01*
X175890476Y-69738809D02*
X175938095Y-69691190D01*
X175938095Y-69691190D02*
X176033333Y-69643571D01*
X176033333Y-69643571D02*
X176271428Y-69643571D01*
X176271428Y-69643571D02*
X176366666Y-69691190D01*
X176366666Y-69691190D02*
X176414285Y-69738809D01*
X176414285Y-69738809D02*
X176461904Y-69834047D01*
X176461904Y-69834047D02*
X176461904Y-70072142D01*
X176461904Y-70072142D02*
X176414285Y-70167380D01*
X176414285Y-70167380D02*
X176366666Y-70215000D01*
X176366666Y-70215000D02*
X176271428Y-70262619D01*
X176271428Y-70262619D02*
X176033333Y-70262619D01*
X176033333Y-70262619D02*
X175938095Y-70215000D01*
X175938095Y-70215000D02*
X175890476Y-70167380D01*
%TO.C,RV11*%
X145412619Y-84421428D02*
X144936428Y-84754761D01*
X145412619Y-84992856D02*
X144412619Y-84992856D01*
X144412619Y-84992856D02*
X144412619Y-84611904D01*
X144412619Y-84611904D02*
X144460238Y-84516666D01*
X144460238Y-84516666D02*
X144507857Y-84469047D01*
X144507857Y-84469047D02*
X144603095Y-84421428D01*
X144603095Y-84421428D02*
X144745952Y-84421428D01*
X144745952Y-84421428D02*
X144841190Y-84469047D01*
X144841190Y-84469047D02*
X144888809Y-84516666D01*
X144888809Y-84516666D02*
X144936428Y-84611904D01*
X144936428Y-84611904D02*
X144936428Y-84992856D01*
X144412619Y-84135713D02*
X145412619Y-83802380D01*
X145412619Y-83802380D02*
X144412619Y-83469047D01*
X145412619Y-82611904D02*
X145412619Y-83183332D01*
X145412619Y-82897618D02*
X144412619Y-82897618D01*
X144412619Y-82897618D02*
X144555476Y-82992856D01*
X144555476Y-82992856D02*
X144650714Y-83088094D01*
X144650714Y-83088094D02*
X144698333Y-83183332D01*
X145412619Y-81659523D02*
X145412619Y-82230951D01*
X145412619Y-81945237D02*
X144412619Y-81945237D01*
X144412619Y-81945237D02*
X144555476Y-82040475D01*
X144555476Y-82040475D02*
X144650714Y-82135713D01*
X144650714Y-82135713D02*
X144698333Y-82230951D01*
%TO.C,J12*%
X146312619Y-65139523D02*
X147026904Y-65139523D01*
X147026904Y-65139523D02*
X147169761Y-65187142D01*
X147169761Y-65187142D02*
X147265000Y-65282380D01*
X147265000Y-65282380D02*
X147312619Y-65425237D01*
X147312619Y-65425237D02*
X147312619Y-65520475D01*
X147312619Y-64139523D02*
X147312619Y-64710951D01*
X147312619Y-64425237D02*
X146312619Y-64425237D01*
X146312619Y-64425237D02*
X146455476Y-64520475D01*
X146455476Y-64520475D02*
X146550714Y-64615713D01*
X146550714Y-64615713D02*
X146598333Y-64710951D01*
X146407857Y-63758570D02*
X146360238Y-63710951D01*
X146360238Y-63710951D02*
X146312619Y-63615713D01*
X146312619Y-63615713D02*
X146312619Y-63377618D01*
X146312619Y-63377618D02*
X146360238Y-63282380D01*
X146360238Y-63282380D02*
X146407857Y-63234761D01*
X146407857Y-63234761D02*
X146503095Y-63187142D01*
X146503095Y-63187142D02*
X146598333Y-63187142D01*
X146598333Y-63187142D02*
X146741190Y-63234761D01*
X146741190Y-63234761D02*
X147312619Y-63806189D01*
X147312619Y-63806189D02*
X147312619Y-63187142D01*
%TO.C,J5*%
X146312619Y-144363333D02*
X147026904Y-144363333D01*
X147026904Y-144363333D02*
X147169761Y-144410952D01*
X147169761Y-144410952D02*
X147265000Y-144506190D01*
X147265000Y-144506190D02*
X147312619Y-144649047D01*
X147312619Y-144649047D02*
X147312619Y-144744285D01*
X146312619Y-143410952D02*
X146312619Y-143887142D01*
X146312619Y-143887142D02*
X146788809Y-143934761D01*
X146788809Y-143934761D02*
X146741190Y-143887142D01*
X146741190Y-143887142D02*
X146693571Y-143791904D01*
X146693571Y-143791904D02*
X146693571Y-143553809D01*
X146693571Y-143553809D02*
X146741190Y-143458571D01*
X146741190Y-143458571D02*
X146788809Y-143410952D01*
X146788809Y-143410952D02*
X146884047Y-143363333D01*
X146884047Y-143363333D02*
X147122142Y-143363333D01*
X147122142Y-143363333D02*
X147217380Y-143410952D01*
X147217380Y-143410952D02*
X147265000Y-143458571D01*
X147265000Y-143458571D02*
X147312619Y-143553809D01*
X147312619Y-143553809D02*
X147312619Y-143791904D01*
X147312619Y-143791904D02*
X147265000Y-143887142D01*
X147265000Y-143887142D02*
X147217380Y-143934761D01*
%TO.C,RV12*%
X145412619Y-98271428D02*
X144936428Y-98604761D01*
X145412619Y-98842856D02*
X144412619Y-98842856D01*
X144412619Y-98842856D02*
X144412619Y-98461904D01*
X144412619Y-98461904D02*
X144460238Y-98366666D01*
X144460238Y-98366666D02*
X144507857Y-98319047D01*
X144507857Y-98319047D02*
X144603095Y-98271428D01*
X144603095Y-98271428D02*
X144745952Y-98271428D01*
X144745952Y-98271428D02*
X144841190Y-98319047D01*
X144841190Y-98319047D02*
X144888809Y-98366666D01*
X144888809Y-98366666D02*
X144936428Y-98461904D01*
X144936428Y-98461904D02*
X144936428Y-98842856D01*
X144412619Y-97985713D02*
X145412619Y-97652380D01*
X145412619Y-97652380D02*
X144412619Y-97319047D01*
X145412619Y-96461904D02*
X145412619Y-97033332D01*
X145412619Y-96747618D02*
X144412619Y-96747618D01*
X144412619Y-96747618D02*
X144555476Y-96842856D01*
X144555476Y-96842856D02*
X144650714Y-96938094D01*
X144650714Y-96938094D02*
X144698333Y-97033332D01*
X144507857Y-96080951D02*
X144460238Y-96033332D01*
X144460238Y-96033332D02*
X144412619Y-95938094D01*
X144412619Y-95938094D02*
X144412619Y-95699999D01*
X144412619Y-95699999D02*
X144460238Y-95604761D01*
X144460238Y-95604761D02*
X144507857Y-95557142D01*
X144507857Y-95557142D02*
X144603095Y-95509523D01*
X144603095Y-95509523D02*
X144698333Y-95509523D01*
X144698333Y-95509523D02*
X144841190Y-95557142D01*
X144841190Y-95557142D02*
X145412619Y-96128570D01*
X145412619Y-96128570D02*
X145412619Y-95509523D01*
%TO.C,J2*%
X146312619Y-74713333D02*
X147026904Y-74713333D01*
X147026904Y-74713333D02*
X147169761Y-74760952D01*
X147169761Y-74760952D02*
X147265000Y-74856190D01*
X147265000Y-74856190D02*
X147312619Y-74999047D01*
X147312619Y-74999047D02*
X147312619Y-75094285D01*
X146407857Y-74284761D02*
X146360238Y-74237142D01*
X146360238Y-74237142D02*
X146312619Y-74141904D01*
X146312619Y-74141904D02*
X146312619Y-73903809D01*
X146312619Y-73903809D02*
X146360238Y-73808571D01*
X146360238Y-73808571D02*
X146407857Y-73760952D01*
X146407857Y-73760952D02*
X146503095Y-73713333D01*
X146503095Y-73713333D02*
X146598333Y-73713333D01*
X146598333Y-73713333D02*
X146741190Y-73760952D01*
X146741190Y-73760952D02*
X147312619Y-74332380D01*
X147312619Y-74332380D02*
X147312619Y-73713333D01*
%TO.C,J16*%
X146312619Y-55079523D02*
X147026904Y-55079523D01*
X147026904Y-55079523D02*
X147169761Y-55127142D01*
X147169761Y-55127142D02*
X147265000Y-55222380D01*
X147265000Y-55222380D02*
X147312619Y-55365237D01*
X147312619Y-55365237D02*
X147312619Y-55460475D01*
X147312619Y-54079523D02*
X147312619Y-54650951D01*
X147312619Y-54365237D02*
X146312619Y-54365237D01*
X146312619Y-54365237D02*
X146455476Y-54460475D01*
X146455476Y-54460475D02*
X146550714Y-54555713D01*
X146550714Y-54555713D02*
X146598333Y-54650951D01*
X146312619Y-53222380D02*
X146312619Y-53412856D01*
X146312619Y-53412856D02*
X146360238Y-53508094D01*
X146360238Y-53508094D02*
X146407857Y-53555713D01*
X146407857Y-53555713D02*
X146550714Y-53650951D01*
X146550714Y-53650951D02*
X146741190Y-53698570D01*
X146741190Y-53698570D02*
X147122142Y-53698570D01*
X147122142Y-53698570D02*
X147217380Y-53650951D01*
X147217380Y-53650951D02*
X147265000Y-53603332D01*
X147265000Y-53603332D02*
X147312619Y-53508094D01*
X147312619Y-53508094D02*
X147312619Y-53317618D01*
X147312619Y-53317618D02*
X147265000Y-53222380D01*
X147265000Y-53222380D02*
X147217380Y-53174761D01*
X147217380Y-53174761D02*
X147122142Y-53127142D01*
X147122142Y-53127142D02*
X146884047Y-53127142D01*
X146884047Y-53127142D02*
X146788809Y-53174761D01*
X146788809Y-53174761D02*
X146741190Y-53222380D01*
X146741190Y-53222380D02*
X146693571Y-53317618D01*
X146693571Y-53317618D02*
X146693571Y-53508094D01*
X146693571Y-53508094D02*
X146741190Y-53603332D01*
X146741190Y-53603332D02*
X146788809Y-53650951D01*
X146788809Y-53650951D02*
X146884047Y-53698570D01*
%TO.C,R56*%
X119757142Y-38562619D02*
X119423809Y-38086428D01*
X119185714Y-38562619D02*
X119185714Y-37562619D01*
X119185714Y-37562619D02*
X119566666Y-37562619D01*
X119566666Y-37562619D02*
X119661904Y-37610238D01*
X119661904Y-37610238D02*
X119709523Y-37657857D01*
X119709523Y-37657857D02*
X119757142Y-37753095D01*
X119757142Y-37753095D02*
X119757142Y-37895952D01*
X119757142Y-37895952D02*
X119709523Y-37991190D01*
X119709523Y-37991190D02*
X119661904Y-38038809D01*
X119661904Y-38038809D02*
X119566666Y-38086428D01*
X119566666Y-38086428D02*
X119185714Y-38086428D01*
X120661904Y-37562619D02*
X120185714Y-37562619D01*
X120185714Y-37562619D02*
X120138095Y-38038809D01*
X120138095Y-38038809D02*
X120185714Y-37991190D01*
X120185714Y-37991190D02*
X120280952Y-37943571D01*
X120280952Y-37943571D02*
X120519047Y-37943571D01*
X120519047Y-37943571D02*
X120614285Y-37991190D01*
X120614285Y-37991190D02*
X120661904Y-38038809D01*
X120661904Y-38038809D02*
X120709523Y-38134047D01*
X120709523Y-38134047D02*
X120709523Y-38372142D01*
X120709523Y-38372142D02*
X120661904Y-38467380D01*
X120661904Y-38467380D02*
X120614285Y-38515000D01*
X120614285Y-38515000D02*
X120519047Y-38562619D01*
X120519047Y-38562619D02*
X120280952Y-38562619D01*
X120280952Y-38562619D02*
X120185714Y-38515000D01*
X120185714Y-38515000D02*
X120138095Y-38467380D01*
X121566666Y-37562619D02*
X121376190Y-37562619D01*
X121376190Y-37562619D02*
X121280952Y-37610238D01*
X121280952Y-37610238D02*
X121233333Y-37657857D01*
X121233333Y-37657857D02*
X121138095Y-37800714D01*
X121138095Y-37800714D02*
X121090476Y-37991190D01*
X121090476Y-37991190D02*
X121090476Y-38372142D01*
X121090476Y-38372142D02*
X121138095Y-38467380D01*
X121138095Y-38467380D02*
X121185714Y-38515000D01*
X121185714Y-38515000D02*
X121280952Y-38562619D01*
X121280952Y-38562619D02*
X121471428Y-38562619D01*
X121471428Y-38562619D02*
X121566666Y-38515000D01*
X121566666Y-38515000D02*
X121614285Y-38467380D01*
X121614285Y-38467380D02*
X121661904Y-38372142D01*
X121661904Y-38372142D02*
X121661904Y-38134047D01*
X121661904Y-38134047D02*
X121614285Y-38038809D01*
X121614285Y-38038809D02*
X121566666Y-37991190D01*
X121566666Y-37991190D02*
X121471428Y-37943571D01*
X121471428Y-37943571D02*
X121280952Y-37943571D01*
X121280952Y-37943571D02*
X121185714Y-37991190D01*
X121185714Y-37991190D02*
X121138095Y-38038809D01*
X121138095Y-38038809D02*
X121090476Y-38134047D01*
%TO.C,J14*%
X160762619Y-75189523D02*
X161476904Y-75189523D01*
X161476904Y-75189523D02*
X161619761Y-75237142D01*
X161619761Y-75237142D02*
X161715000Y-75332380D01*
X161715000Y-75332380D02*
X161762619Y-75475237D01*
X161762619Y-75475237D02*
X161762619Y-75570475D01*
X161762619Y-74189523D02*
X161762619Y-74760951D01*
X161762619Y-74475237D02*
X160762619Y-74475237D01*
X160762619Y-74475237D02*
X160905476Y-74570475D01*
X160905476Y-74570475D02*
X161000714Y-74665713D01*
X161000714Y-74665713D02*
X161048333Y-74760951D01*
X161095952Y-73332380D02*
X161762619Y-73332380D01*
X160715000Y-73570475D02*
X161429285Y-73808570D01*
X161429285Y-73808570D02*
X161429285Y-73189523D01*
%TO.C,J6*%
X160762619Y-44563333D02*
X161476904Y-44563333D01*
X161476904Y-44563333D02*
X161619761Y-44610952D01*
X161619761Y-44610952D02*
X161715000Y-44706190D01*
X161715000Y-44706190D02*
X161762619Y-44849047D01*
X161762619Y-44849047D02*
X161762619Y-44944285D01*
X160762619Y-43658571D02*
X160762619Y-43849047D01*
X160762619Y-43849047D02*
X160810238Y-43944285D01*
X160810238Y-43944285D02*
X160857857Y-43991904D01*
X160857857Y-43991904D02*
X161000714Y-44087142D01*
X161000714Y-44087142D02*
X161191190Y-44134761D01*
X161191190Y-44134761D02*
X161572142Y-44134761D01*
X161572142Y-44134761D02*
X161667380Y-44087142D01*
X161667380Y-44087142D02*
X161715000Y-44039523D01*
X161715000Y-44039523D02*
X161762619Y-43944285D01*
X161762619Y-43944285D02*
X161762619Y-43753809D01*
X161762619Y-43753809D02*
X161715000Y-43658571D01*
X161715000Y-43658571D02*
X161667380Y-43610952D01*
X161667380Y-43610952D02*
X161572142Y-43563333D01*
X161572142Y-43563333D02*
X161334047Y-43563333D01*
X161334047Y-43563333D02*
X161238809Y-43610952D01*
X161238809Y-43610952D02*
X161191190Y-43658571D01*
X161191190Y-43658571D02*
X161143571Y-43753809D01*
X161143571Y-43753809D02*
X161143571Y-43944285D01*
X161143571Y-43944285D02*
X161191190Y-44039523D01*
X161191190Y-44039523D02*
X161238809Y-44087142D01*
X161238809Y-44087142D02*
X161334047Y-44134761D01*
%TO.C,J17*%
X146312619Y-134789523D02*
X147026904Y-134789523D01*
X147026904Y-134789523D02*
X147169761Y-134837142D01*
X147169761Y-134837142D02*
X147265000Y-134932380D01*
X147265000Y-134932380D02*
X147312619Y-135075237D01*
X147312619Y-135075237D02*
X147312619Y-135170475D01*
X147312619Y-133789523D02*
X147312619Y-134360951D01*
X147312619Y-134075237D02*
X146312619Y-134075237D01*
X146312619Y-134075237D02*
X146455476Y-134170475D01*
X146455476Y-134170475D02*
X146550714Y-134265713D01*
X146550714Y-134265713D02*
X146598333Y-134360951D01*
X146312619Y-133456189D02*
X146312619Y-132789523D01*
X146312619Y-132789523D02*
X147312619Y-133218094D01*
%TO.C,RV4*%
X141754761Y-89512619D02*
X141421428Y-89036428D01*
X141183333Y-89512619D02*
X141183333Y-88512619D01*
X141183333Y-88512619D02*
X141564285Y-88512619D01*
X141564285Y-88512619D02*
X141659523Y-88560238D01*
X141659523Y-88560238D02*
X141707142Y-88607857D01*
X141707142Y-88607857D02*
X141754761Y-88703095D01*
X141754761Y-88703095D02*
X141754761Y-88845952D01*
X141754761Y-88845952D02*
X141707142Y-88941190D01*
X141707142Y-88941190D02*
X141659523Y-88988809D01*
X141659523Y-88988809D02*
X141564285Y-89036428D01*
X141564285Y-89036428D02*
X141183333Y-89036428D01*
X142040476Y-88512619D02*
X142373809Y-89512619D01*
X142373809Y-89512619D02*
X142707142Y-88512619D01*
X143469047Y-88845952D02*
X143469047Y-89512619D01*
X143230952Y-88465000D02*
X142992857Y-89179285D01*
X142992857Y-89179285D02*
X143611904Y-89179285D01*
%TO.C,RV5*%
X109604761Y-130312619D02*
X109271428Y-129836428D01*
X109033333Y-130312619D02*
X109033333Y-129312619D01*
X109033333Y-129312619D02*
X109414285Y-129312619D01*
X109414285Y-129312619D02*
X109509523Y-129360238D01*
X109509523Y-129360238D02*
X109557142Y-129407857D01*
X109557142Y-129407857D02*
X109604761Y-129503095D01*
X109604761Y-129503095D02*
X109604761Y-129645952D01*
X109604761Y-129645952D02*
X109557142Y-129741190D01*
X109557142Y-129741190D02*
X109509523Y-129788809D01*
X109509523Y-129788809D02*
X109414285Y-129836428D01*
X109414285Y-129836428D02*
X109033333Y-129836428D01*
X109890476Y-129312619D02*
X110223809Y-130312619D01*
X110223809Y-130312619D02*
X110557142Y-129312619D01*
X111366666Y-129312619D02*
X110890476Y-129312619D01*
X110890476Y-129312619D02*
X110842857Y-129788809D01*
X110842857Y-129788809D02*
X110890476Y-129741190D01*
X110890476Y-129741190D02*
X110985714Y-129693571D01*
X110985714Y-129693571D02*
X111223809Y-129693571D01*
X111223809Y-129693571D02*
X111319047Y-129741190D01*
X111319047Y-129741190D02*
X111366666Y-129788809D01*
X111366666Y-129788809D02*
X111414285Y-129884047D01*
X111414285Y-129884047D02*
X111414285Y-130122142D01*
X111414285Y-130122142D02*
X111366666Y-130217380D01*
X111366666Y-130217380D02*
X111319047Y-130265000D01*
X111319047Y-130265000D02*
X111223809Y-130312619D01*
X111223809Y-130312619D02*
X110985714Y-130312619D01*
X110985714Y-130312619D02*
X110890476Y-130265000D01*
X110890476Y-130265000D02*
X110842857Y-130217380D01*
%TO.C,RV1*%
X114754761Y-89212619D02*
X114421428Y-88736428D01*
X114183333Y-89212619D02*
X114183333Y-88212619D01*
X114183333Y-88212619D02*
X114564285Y-88212619D01*
X114564285Y-88212619D02*
X114659523Y-88260238D01*
X114659523Y-88260238D02*
X114707142Y-88307857D01*
X114707142Y-88307857D02*
X114754761Y-88403095D01*
X114754761Y-88403095D02*
X114754761Y-88545952D01*
X114754761Y-88545952D02*
X114707142Y-88641190D01*
X114707142Y-88641190D02*
X114659523Y-88688809D01*
X114659523Y-88688809D02*
X114564285Y-88736428D01*
X114564285Y-88736428D02*
X114183333Y-88736428D01*
X115040476Y-88212619D02*
X115373809Y-89212619D01*
X115373809Y-89212619D02*
X115707142Y-88212619D01*
X116564285Y-89212619D02*
X115992857Y-89212619D01*
X116278571Y-89212619D02*
X116278571Y-88212619D01*
X116278571Y-88212619D02*
X116183333Y-88355476D01*
X116183333Y-88355476D02*
X116088095Y-88450714D01*
X116088095Y-88450714D02*
X115992857Y-88498333D01*
%TO.C,J15*%
X160762619Y-114689523D02*
X161476904Y-114689523D01*
X161476904Y-114689523D02*
X161619761Y-114737142D01*
X161619761Y-114737142D02*
X161715000Y-114832380D01*
X161715000Y-114832380D02*
X161762619Y-114975237D01*
X161762619Y-114975237D02*
X161762619Y-115070475D01*
X161762619Y-113689523D02*
X161762619Y-114260951D01*
X161762619Y-113975237D02*
X160762619Y-113975237D01*
X160762619Y-113975237D02*
X160905476Y-114070475D01*
X160905476Y-114070475D02*
X161000714Y-114165713D01*
X161000714Y-114165713D02*
X161048333Y-114260951D01*
X160762619Y-112784761D02*
X160762619Y-113260951D01*
X160762619Y-113260951D02*
X161238809Y-113308570D01*
X161238809Y-113308570D02*
X161191190Y-113260951D01*
X161191190Y-113260951D02*
X161143571Y-113165713D01*
X161143571Y-113165713D02*
X161143571Y-112927618D01*
X161143571Y-112927618D02*
X161191190Y-112832380D01*
X161191190Y-112832380D02*
X161238809Y-112784761D01*
X161238809Y-112784761D02*
X161334047Y-112737142D01*
X161334047Y-112737142D02*
X161572142Y-112737142D01*
X161572142Y-112737142D02*
X161667380Y-112784761D01*
X161667380Y-112784761D02*
X161715000Y-112832380D01*
X161715000Y-112832380D02*
X161762619Y-112927618D01*
X161762619Y-112927618D02*
X161762619Y-113165713D01*
X161762619Y-113165713D02*
X161715000Y-113260951D01*
X161715000Y-113260951D02*
X161667380Y-113308570D01*
%TO.C,RV9*%
X159862619Y-83945238D02*
X159386428Y-84278571D01*
X159862619Y-84516666D02*
X158862619Y-84516666D01*
X158862619Y-84516666D02*
X158862619Y-84135714D01*
X158862619Y-84135714D02*
X158910238Y-84040476D01*
X158910238Y-84040476D02*
X158957857Y-83992857D01*
X158957857Y-83992857D02*
X159053095Y-83945238D01*
X159053095Y-83945238D02*
X159195952Y-83945238D01*
X159195952Y-83945238D02*
X159291190Y-83992857D01*
X159291190Y-83992857D02*
X159338809Y-84040476D01*
X159338809Y-84040476D02*
X159386428Y-84135714D01*
X159386428Y-84135714D02*
X159386428Y-84516666D01*
X158862619Y-83659523D02*
X159862619Y-83326190D01*
X159862619Y-83326190D02*
X158862619Y-82992857D01*
X159862619Y-82611904D02*
X159862619Y-82421428D01*
X159862619Y-82421428D02*
X159815000Y-82326190D01*
X159815000Y-82326190D02*
X159767380Y-82278571D01*
X159767380Y-82278571D02*
X159624523Y-82183333D01*
X159624523Y-82183333D02*
X159434047Y-82135714D01*
X159434047Y-82135714D02*
X159053095Y-82135714D01*
X159053095Y-82135714D02*
X158957857Y-82183333D01*
X158957857Y-82183333D02*
X158910238Y-82230952D01*
X158910238Y-82230952D02*
X158862619Y-82326190D01*
X158862619Y-82326190D02*
X158862619Y-82516666D01*
X158862619Y-82516666D02*
X158910238Y-82611904D01*
X158910238Y-82611904D02*
X158957857Y-82659523D01*
X158957857Y-82659523D02*
X159053095Y-82707142D01*
X159053095Y-82707142D02*
X159291190Y-82707142D01*
X159291190Y-82707142D02*
X159386428Y-82659523D01*
X159386428Y-82659523D02*
X159434047Y-82611904D01*
X159434047Y-82611904D02*
X159481666Y-82516666D01*
X159481666Y-82516666D02*
X159481666Y-82326190D01*
X159481666Y-82326190D02*
X159434047Y-82230952D01*
X159434047Y-82230952D02*
X159386428Y-82183333D01*
X159386428Y-82183333D02*
X159291190Y-82135714D01*
%TO.C,J11*%
X160762619Y-134789523D02*
X161476904Y-134789523D01*
X161476904Y-134789523D02*
X161619761Y-134837142D01*
X161619761Y-134837142D02*
X161715000Y-134932380D01*
X161715000Y-134932380D02*
X161762619Y-135075237D01*
X161762619Y-135075237D02*
X161762619Y-135170475D01*
X161762619Y-133789523D02*
X161762619Y-134360951D01*
X161762619Y-134075237D02*
X160762619Y-134075237D01*
X160762619Y-134075237D02*
X160905476Y-134170475D01*
X160905476Y-134170475D02*
X161000714Y-134265713D01*
X161000714Y-134265713D02*
X161048333Y-134360951D01*
X161762619Y-132837142D02*
X161762619Y-133408570D01*
X161762619Y-133122856D02*
X160762619Y-133122856D01*
X160762619Y-133122856D02*
X160905476Y-133218094D01*
X160905476Y-133218094D02*
X161000714Y-133313332D01*
X161000714Y-133313332D02*
X161048333Y-133408570D01*
%TO.C,J10*%
X160762619Y-55089523D02*
X161476904Y-55089523D01*
X161476904Y-55089523D02*
X161619761Y-55137142D01*
X161619761Y-55137142D02*
X161715000Y-55232380D01*
X161715000Y-55232380D02*
X161762619Y-55375237D01*
X161762619Y-55375237D02*
X161762619Y-55470475D01*
X161762619Y-54089523D02*
X161762619Y-54660951D01*
X161762619Y-54375237D02*
X160762619Y-54375237D01*
X160762619Y-54375237D02*
X160905476Y-54470475D01*
X160905476Y-54470475D02*
X161000714Y-54565713D01*
X161000714Y-54565713D02*
X161048333Y-54660951D01*
X160762619Y-53470475D02*
X160762619Y-53375237D01*
X160762619Y-53375237D02*
X160810238Y-53279999D01*
X160810238Y-53279999D02*
X160857857Y-53232380D01*
X160857857Y-53232380D02*
X160953095Y-53184761D01*
X160953095Y-53184761D02*
X161143571Y-53137142D01*
X161143571Y-53137142D02*
X161381666Y-53137142D01*
X161381666Y-53137142D02*
X161572142Y-53184761D01*
X161572142Y-53184761D02*
X161667380Y-53232380D01*
X161667380Y-53232380D02*
X161715000Y-53279999D01*
X161715000Y-53279999D02*
X161762619Y-53375237D01*
X161762619Y-53375237D02*
X161762619Y-53470475D01*
X161762619Y-53470475D02*
X161715000Y-53565713D01*
X161715000Y-53565713D02*
X161667380Y-53613332D01*
X161667380Y-53613332D02*
X161572142Y-53660951D01*
X161572142Y-53660951D02*
X161381666Y-53708570D01*
X161381666Y-53708570D02*
X161143571Y-53708570D01*
X161143571Y-53708570D02*
X160953095Y-53660951D01*
X160953095Y-53660951D02*
X160857857Y-53613332D01*
X160857857Y-53613332D02*
X160810238Y-53565713D01*
X160810238Y-53565713D02*
X160762619Y-53470475D01*
%TO.C,SW1*%
X125201667Y-37410000D02*
X125344524Y-37457619D01*
X125344524Y-37457619D02*
X125582619Y-37457619D01*
X125582619Y-37457619D02*
X125677857Y-37410000D01*
X125677857Y-37410000D02*
X125725476Y-37362380D01*
X125725476Y-37362380D02*
X125773095Y-37267142D01*
X125773095Y-37267142D02*
X125773095Y-37171904D01*
X125773095Y-37171904D02*
X125725476Y-37076666D01*
X125725476Y-37076666D02*
X125677857Y-37029047D01*
X125677857Y-37029047D02*
X125582619Y-36981428D01*
X125582619Y-36981428D02*
X125392143Y-36933809D01*
X125392143Y-36933809D02*
X125296905Y-36886190D01*
X125296905Y-36886190D02*
X125249286Y-36838571D01*
X125249286Y-36838571D02*
X125201667Y-36743333D01*
X125201667Y-36743333D02*
X125201667Y-36648095D01*
X125201667Y-36648095D02*
X125249286Y-36552857D01*
X125249286Y-36552857D02*
X125296905Y-36505238D01*
X125296905Y-36505238D02*
X125392143Y-36457619D01*
X125392143Y-36457619D02*
X125630238Y-36457619D01*
X125630238Y-36457619D02*
X125773095Y-36505238D01*
X126106429Y-36457619D02*
X126344524Y-37457619D01*
X126344524Y-37457619D02*
X126535000Y-36743333D01*
X126535000Y-36743333D02*
X126725476Y-37457619D01*
X126725476Y-37457619D02*
X126963572Y-36457619D01*
X127868333Y-37457619D02*
X127296905Y-37457619D01*
X127582619Y-37457619D02*
X127582619Y-36457619D01*
X127582619Y-36457619D02*
X127487381Y-36600476D01*
X127487381Y-36600476D02*
X127392143Y-36695714D01*
X127392143Y-36695714D02*
X127296905Y-36743333D01*
X124132619Y-44006904D02*
X123132619Y-44006904D01*
X124132619Y-43435476D02*
X123561190Y-43864047D01*
X123132619Y-43435476D02*
X123704047Y-44006904D01*
D11*
%TO.C,RV3*%
X130800000Y-89280000D02*
X130800000Y-89550000D01*
X130800000Y-56280000D02*
X130800000Y-82690000D01*
X130800000Y-49550000D02*
X130800000Y-52950000D01*
%TO.C,RV6*%
X121800000Y-130380000D02*
X121800000Y-130650000D01*
X121800000Y-97380000D02*
X121800000Y-123790000D01*
X121800000Y-90650000D02*
X121800000Y-94050000D01*
D12*
%TO.C,SW2*%
X128245000Y-140105000D02*
X128245000Y-135905000D01*
X124665000Y-140105000D02*
X124665000Y-135905000D01*
%TO.C,RV10*%
X171570000Y-91180000D02*
X161830000Y-91180000D01*
X171570000Y-94240000D02*
X171570000Y-91180000D01*
X161830000Y-94240000D02*
X161830000Y-91180000D01*
X171570000Y-102770000D02*
X171570000Y-98050000D01*
X171570000Y-102770000D02*
X170080000Y-102770000D01*
X168360000Y-102770000D02*
X167530000Y-102770000D01*
X165910000Y-102770000D02*
X165380000Y-102770000D01*
X163010000Y-102770000D02*
X161830000Y-102770000D01*
X161820000Y-102770000D02*
X161820000Y-98050000D01*
D11*
%TO.C,RV2*%
X121800000Y-89280000D02*
X121800000Y-89550000D01*
X121800000Y-56280000D02*
X121800000Y-82690000D01*
X121800000Y-49550000D02*
X121800000Y-52950000D01*
D12*
%TO.C,J3*%
X154050000Y-109850000D02*
G75*
G03*
X154050000Y-109850000I-1800000J0D01*
G01*
X158250000Y-105350000D02*
X158250000Y-109350000D01*
X147750000Y-105350000D02*
X158250000Y-105350000D01*
X147750000Y-105350000D02*
X147750000Y-109500000D01*
X147750000Y-110200000D02*
X147750000Y-114350000D01*
X158250000Y-110350000D02*
X158250000Y-114350000D01*
X144770000Y-110910000D02*
X144770000Y-110050000D01*
X144770000Y-110910000D02*
X145570000Y-110910000D01*
X147750000Y-114350000D02*
X158250000Y-114350000D01*
%TO.C,J9*%
X168500000Y-119900000D02*
G75*
G03*
X168500000Y-119900000I-1800000J0D01*
G01*
X172700000Y-115400000D02*
X172700000Y-119400000D01*
X162200000Y-115400000D02*
X172700000Y-115400000D01*
X162200000Y-115400000D02*
X162200000Y-119550000D01*
X162200000Y-120250000D02*
X162200000Y-124400000D01*
X172700000Y-120400000D02*
X172700000Y-124400000D01*
X159220000Y-120960000D02*
X159220000Y-120100000D01*
X159220000Y-120960000D02*
X160020000Y-120960000D01*
X162200000Y-124400000D02*
X172700000Y-124400000D01*
D11*
%TO.C,RV7*%
X130800000Y-130380000D02*
X130800000Y-130650000D01*
X130800000Y-97380000D02*
X130800000Y-123790000D01*
X130800000Y-90650000D02*
X130800000Y-94050000D01*
D12*
%TO.C,J7*%
X168500000Y-140000000D02*
G75*
G03*
X168500000Y-140000000I-1800000J0D01*
G01*
X172700000Y-135500000D02*
X172700000Y-139500000D01*
X162200000Y-135500000D02*
X172700000Y-135500000D01*
X162200000Y-135500000D02*
X162200000Y-139650000D01*
X162200000Y-140350000D02*
X162200000Y-144500000D01*
X172700000Y-140500000D02*
X172700000Y-144500000D01*
X159220000Y-141060000D02*
X159220000Y-140200000D01*
X159220000Y-141060000D02*
X160020000Y-141060000D01*
X162200000Y-144500000D02*
X172700000Y-144500000D01*
%TO.C,R58*%
X122170000Y-137845000D02*
G75*
G03*
X122170000Y-137845000I-1370000J0D01*
G01*
X120800000Y-136475000D02*
X120800000Y-136405000D01*
%TO.C,J13*%
X154050000Y-119900000D02*
G75*
G03*
X154050000Y-119900000I-1800000J0D01*
G01*
X158250000Y-115400000D02*
X158250000Y-119400000D01*
X147750000Y-115400000D02*
X158250000Y-115400000D01*
X147750000Y-115400000D02*
X147750000Y-119550000D01*
X147750000Y-120250000D02*
X147750000Y-124400000D01*
X158250000Y-120400000D02*
X158250000Y-124400000D01*
X144770000Y-120960000D02*
X144770000Y-120100000D01*
X144770000Y-120960000D02*
X145570000Y-120960000D01*
X147750000Y-124400000D02*
X158250000Y-124400000D01*
%TO.C,J4*%
X154050000Y-40200000D02*
G75*
G03*
X154050000Y-40200000I-1800000J0D01*
G01*
X158250000Y-35700000D02*
X158250000Y-39700000D01*
X147750000Y-35700000D02*
X158250000Y-35700000D01*
X147750000Y-35700000D02*
X147750000Y-39850000D01*
X147750000Y-40550000D02*
X147750000Y-44700000D01*
X158250000Y-40700000D02*
X158250000Y-44700000D01*
X144770000Y-41260000D02*
X144770000Y-40400000D01*
X144770000Y-41260000D02*
X145570000Y-41260000D01*
X147750000Y-44700000D02*
X158250000Y-44700000D01*
D11*
%TO.C,RV8*%
X139800000Y-130380000D02*
X139800000Y-130650000D01*
X139800000Y-97380000D02*
X139800000Y-123790000D01*
X139800000Y-90650000D02*
X139800000Y-94050000D01*
D12*
%TO.C,J8*%
X168500000Y-60300000D02*
G75*
G03*
X168500000Y-60300000I-1800000J0D01*
G01*
X172700000Y-55800000D02*
X172700000Y-59800000D01*
X162200000Y-55800000D02*
X172700000Y-55800000D01*
X162200000Y-55800000D02*
X162200000Y-59950000D01*
X162200000Y-60650000D02*
X162200000Y-64800000D01*
X172700000Y-60800000D02*
X172700000Y-64800000D01*
X159220000Y-61360000D02*
X159220000Y-60500000D01*
X159220000Y-61360000D02*
X160020000Y-61360000D01*
X162200000Y-64800000D02*
X172700000Y-64800000D01*
%TO.C,SW6*%
X143745000Y-130965000D02*
X143745000Y-144935000D01*
X134855000Y-130965000D02*
X143745000Y-130965000D01*
X143745000Y-144935000D02*
X134855000Y-144935000D01*
X134855000Y-144935000D02*
X134855000Y-130965000D01*
%TO.C,R64*%
X176470000Y-108000000D02*
G75*
G03*
X176470000Y-108000000I-1370000J0D01*
G01*
X175100000Y-109370000D02*
X175100000Y-109440000D01*
%TO.C,R65*%
X176570000Y-74045000D02*
G75*
G03*
X176570000Y-74045000I-1370000J0D01*
G01*
X175200000Y-72675000D02*
X175200000Y-72605000D01*
%TO.C,RV11*%
X157120000Y-77330000D02*
X147380000Y-77330000D01*
X157120000Y-80390000D02*
X157120000Y-77330000D01*
X147380000Y-80390000D02*
X147380000Y-77330000D01*
X157120000Y-88920000D02*
X157120000Y-84200000D01*
X157120000Y-88920000D02*
X155630000Y-88920000D01*
X153910000Y-88920000D02*
X153080000Y-88920000D01*
X151460000Y-88920000D02*
X150930000Y-88920000D01*
X148560000Y-88920000D02*
X147380000Y-88920000D01*
X147370000Y-88920000D02*
X147370000Y-84200000D01*
%TO.C,J12*%
X154050000Y-60300000D02*
G75*
G03*
X154050000Y-60300000I-1800000J0D01*
G01*
X158250000Y-55800000D02*
X158250000Y-59800000D01*
X147750000Y-55800000D02*
X158250000Y-55800000D01*
X147750000Y-55800000D02*
X147750000Y-59950000D01*
X147750000Y-60650000D02*
X147750000Y-64800000D01*
X158250000Y-60800000D02*
X158250000Y-64800000D01*
X144770000Y-61360000D02*
X144770000Y-60500000D01*
X144770000Y-61360000D02*
X145570000Y-61360000D01*
X147750000Y-64800000D02*
X158250000Y-64800000D01*
%TO.C,J5*%
X154050000Y-140000000D02*
G75*
G03*
X154050000Y-140000000I-1800000J0D01*
G01*
X158250000Y-135500000D02*
X158250000Y-139500000D01*
X147750000Y-135500000D02*
X158250000Y-135500000D01*
X147750000Y-135500000D02*
X147750000Y-139650000D01*
X147750000Y-140350000D02*
X147750000Y-144500000D01*
X158250000Y-140500000D02*
X158250000Y-144500000D01*
X144770000Y-141060000D02*
X144770000Y-140200000D01*
X144770000Y-141060000D02*
X145570000Y-141060000D01*
X147750000Y-144500000D02*
X158250000Y-144500000D01*
%TO.C,RV12*%
X157120000Y-91180000D02*
X147380000Y-91180000D01*
X157120000Y-94240000D02*
X157120000Y-91180000D01*
X147380000Y-94240000D02*
X147380000Y-91180000D01*
X157120000Y-102770000D02*
X157120000Y-98050000D01*
X157120000Y-102770000D02*
X155630000Y-102770000D01*
X153910000Y-102770000D02*
X153080000Y-102770000D01*
X151460000Y-102770000D02*
X150930000Y-102770000D01*
X148560000Y-102770000D02*
X147380000Y-102770000D01*
X147370000Y-102770000D02*
X147370000Y-98050000D01*
%TO.C,SW3*%
X118145000Y-35315000D02*
X118145000Y-49285000D01*
X109255000Y-35315000D02*
X118145000Y-35315000D01*
X118145000Y-49285000D02*
X109255000Y-49285000D01*
X109255000Y-49285000D02*
X109255000Y-35315000D01*
%TO.C,J2*%
X154050000Y-70350000D02*
G75*
G03*
X154050000Y-70350000I-1800000J0D01*
G01*
X158250000Y-65850000D02*
X158250000Y-69850000D01*
X147750000Y-65850000D02*
X158250000Y-65850000D01*
X147750000Y-65850000D02*
X147750000Y-70000000D01*
X147750000Y-70700000D02*
X147750000Y-74850000D01*
X158250000Y-70850000D02*
X158250000Y-74850000D01*
X144770000Y-71410000D02*
X144770000Y-70550000D01*
X144770000Y-71410000D02*
X145570000Y-71410000D01*
X147750000Y-74850000D02*
X158250000Y-74850000D01*
%TO.C,SW5*%
X143745000Y-35315000D02*
X143745000Y-49285000D01*
X134855000Y-35315000D02*
X143745000Y-35315000D01*
X143745000Y-49285000D02*
X134855000Y-49285000D01*
X134855000Y-49285000D02*
X134855000Y-35315000D01*
%TO.C,J16*%
X154050000Y-50240000D02*
G75*
G03*
X154050000Y-50240000I-1800000J0D01*
G01*
X158250000Y-45740000D02*
X158250000Y-49740000D01*
X147750000Y-45740000D02*
X158250000Y-45740000D01*
X147750000Y-45740000D02*
X147750000Y-49890000D01*
X147750000Y-50590000D02*
X147750000Y-54740000D01*
X158250000Y-50740000D02*
X158250000Y-54740000D01*
X144770000Y-51300000D02*
X144770000Y-50440000D01*
X144770000Y-51300000D02*
X145570000Y-51300000D01*
X147750000Y-54740000D02*
X158250000Y-54740000D01*
%TO.C,R56*%
X121970000Y-42645000D02*
G75*
G03*
X121970000Y-42645000I-1370000J0D01*
G01*
X120600000Y-41275000D02*
X120600000Y-41205000D01*
%TO.C,J14*%
X168500000Y-70350000D02*
G75*
G03*
X168500000Y-70350000I-1800000J0D01*
G01*
X172700000Y-65850000D02*
X172700000Y-69850000D01*
X162200000Y-65850000D02*
X172700000Y-65850000D01*
X162200000Y-65850000D02*
X162200000Y-70000000D01*
X162200000Y-70700000D02*
X162200000Y-74850000D01*
X172700000Y-70850000D02*
X172700000Y-74850000D01*
X159220000Y-71410000D02*
X159220000Y-70550000D01*
X159220000Y-71410000D02*
X160020000Y-71410000D01*
X162200000Y-74850000D02*
X172700000Y-74850000D01*
%TO.C,J6*%
X168500000Y-40200000D02*
G75*
G03*
X168500000Y-40200000I-1800000J0D01*
G01*
X172700000Y-35700000D02*
X172700000Y-39700000D01*
X162200000Y-35700000D02*
X172700000Y-35700000D01*
X162200000Y-35700000D02*
X162200000Y-39850000D01*
X162200000Y-40550000D02*
X162200000Y-44700000D01*
X172700000Y-40700000D02*
X172700000Y-44700000D01*
X159220000Y-41260000D02*
X159220000Y-40400000D01*
X159220000Y-41260000D02*
X160020000Y-41260000D01*
X162200000Y-44700000D02*
X172700000Y-44700000D01*
%TO.C,J17*%
X154050000Y-129950000D02*
G75*
G03*
X154050000Y-129950000I-1800000J0D01*
G01*
X158250000Y-125450000D02*
X158250000Y-129450000D01*
X147750000Y-125450000D02*
X158250000Y-125450000D01*
X147750000Y-125450000D02*
X147750000Y-129600000D01*
X147750000Y-130300000D02*
X147750000Y-134450000D01*
X158250000Y-130450000D02*
X158250000Y-134450000D01*
X144770000Y-131010000D02*
X144770000Y-130150000D01*
X144770000Y-131010000D02*
X145570000Y-131010000D01*
X147750000Y-134450000D02*
X158250000Y-134450000D01*
D11*
%TO.C,RV4*%
X139800000Y-89280000D02*
X139800000Y-89550000D01*
X139800000Y-56280000D02*
X139800000Y-82690000D01*
X139800000Y-49550000D02*
X139800000Y-52950000D01*
%TO.C,RV5*%
X112800000Y-130380000D02*
X112800000Y-130650000D01*
X112800000Y-97380000D02*
X112800000Y-123790000D01*
X112800000Y-90650000D02*
X112800000Y-94050000D01*
%TO.C,RV1*%
X112800000Y-89280000D02*
X112800000Y-89550000D01*
X112800000Y-56280000D02*
X112800000Y-82690000D01*
X112800000Y-49550000D02*
X112800000Y-52950000D01*
D12*
%TO.C,J15*%
X168500000Y-109850000D02*
G75*
G03*
X168500000Y-109850000I-1800000J0D01*
G01*
X172700000Y-105350000D02*
X172700000Y-109350000D01*
X162200000Y-105350000D02*
X172700000Y-105350000D01*
X162200000Y-105350000D02*
X162200000Y-109500000D01*
X162200000Y-110200000D02*
X162200000Y-114350000D01*
X172700000Y-110350000D02*
X172700000Y-114350000D01*
X159220000Y-110910000D02*
X159220000Y-110050000D01*
X159220000Y-110910000D02*
X160020000Y-110910000D01*
X162200000Y-114350000D02*
X172700000Y-114350000D01*
%TO.C,RV9*%
X171570000Y-77330000D02*
X161830000Y-77330000D01*
X171570000Y-80390000D02*
X171570000Y-77330000D01*
X161830000Y-80390000D02*
X161830000Y-77330000D01*
X171570000Y-88920000D02*
X171570000Y-84200000D01*
X171570000Y-88920000D02*
X170080000Y-88920000D01*
X168360000Y-88920000D02*
X167530000Y-88920000D01*
X165910000Y-88920000D02*
X165380000Y-88920000D01*
X163010000Y-88920000D02*
X161830000Y-88920000D01*
X161820000Y-88920000D02*
X161820000Y-84200000D01*
%TO.C,J11*%
X168500000Y-129950000D02*
G75*
G03*
X168500000Y-129950000I-1800000J0D01*
G01*
X172700000Y-125450000D02*
X172700000Y-129450000D01*
X162200000Y-125450000D02*
X172700000Y-125450000D01*
X162200000Y-125450000D02*
X162200000Y-129600000D01*
X162200000Y-130300000D02*
X162200000Y-134450000D01*
X172700000Y-130450000D02*
X172700000Y-134450000D01*
X159220000Y-131010000D02*
X159220000Y-130150000D01*
X159220000Y-131010000D02*
X160020000Y-131010000D01*
X162200000Y-134450000D02*
X172700000Y-134450000D01*
%TO.C,J10*%
X168500000Y-50250000D02*
G75*
G03*
X168500000Y-50250000I-1800000J0D01*
G01*
X172700000Y-45750000D02*
X172700000Y-49750000D01*
X162200000Y-45750000D02*
X172700000Y-45750000D01*
X162200000Y-45750000D02*
X162200000Y-49900000D01*
X162200000Y-50600000D02*
X162200000Y-54750000D01*
X172700000Y-50750000D02*
X172700000Y-54750000D01*
X159220000Y-51310000D02*
X159220000Y-50450000D01*
X159220000Y-51310000D02*
X160020000Y-51310000D01*
X162200000Y-54750000D02*
X172700000Y-54750000D01*
%TO.C,SW4*%
X118145000Y-130965000D02*
X118145000Y-144935000D01*
X109255000Y-130965000D02*
X118145000Y-130965000D01*
X118145000Y-144935000D02*
X109255000Y-144935000D01*
X109255000Y-144935000D02*
X109255000Y-130965000D01*
%TO.C,SW1*%
X128245000Y-44455000D02*
X128245000Y-40255000D01*
X124665000Y-44455000D02*
X124665000Y-40255000D01*
%TD*%
M02*
